<svg width="120" height="47" viewBox="0 0 120 47" fill="none" xmlns="http://www.w3.org/2000/svg">
    <path d="M66.751 16.992c.97-.358 1.6-1.506 1.6-2.672 0-2.008-1.464-3.246-3.966-3.246h-5.719V23.27h6.06c2.57 0 4.136-1.327 4.136-3.39 0-1.38-.75-2.582-2.11-2.887zm-5.208-3.443h2.383c1.123 0 1.685.395 1.685 1.184 0 .807-.613 1.309-1.685 1.309h-2.383v-2.493zm0 7.21v-2.404h2.86c1.106 0 1.65.377 1.65 1.13 0 .771-.578 1.273-1.719 1.273h-2.791zm16.596.412.783 2.098h3.064l-4.902-12.267h-2.757l-4.92 12.267h3.064l.766-2.098h4.903zm-.953-2.582H74.19l1.498-4.054 1.498 4.053zm14.872 2.008h-5.72v-9.523h-2.876V23.27h8.596v-2.672zm9.531.574.783 2.098h3.064l-4.902-12.267h-2.758L92.857 23.27h3.064l.766-2.098h4.902zm-.953-2.582H97.64l1.498-4.054 1.498 4.053zm15.113-7.515h-3.183l-2.843 5.309-2.825-5.309h-3.183l4.579 8.519v3.676h2.893v-3.676l4.562-8.519zm4.251 0h-2.877V23.27H120V11.074z" fill="#704FA6"/>
    <path d="M47.583 5.71C45.35 2.235 40.588 0 35.426 0c-3.722 0-7.343 1.192-10.222 3.327C22.326 1.142 18.754 0 14.982 0 9.822 0 5.06 2.235 2.826 5.76.196 9.832-.598 14.3.443 18.969c.844 3.773 2.879 7.696 6.104 11.67 5.607 6.95 13.398 12.314 16.672 14.648.298.248.646.446.844.596l.298.298c.248.148.496.248.794.248.297 0 .595-.1.843-.298.298-.199.645-.497 1.092-.745 3.325-2.334 11.115-7.746 16.672-14.649 3.226-3.972 5.26-7.895 6.104-11.67 1.141-4.766.347-9.235-2.282-13.356h-.001zm-15.382 7.747v15.145H18.208V13.507c0-.1 0-.248-.05-.297L25.006 7.2l7.195 6.256zm-6.699 29.398c-.1.05-.149.099-.248.148a1.04 1.04 0 0 0-.298-.199C5.506 29.297-1.094 17.38 5.306 7.3c1.687-2.632 5.508-4.32 9.676-4.32 2.829 0 5.558.744 7.79 2.283l-11.908 10.38c-.645.545-.645 1.44-.149 2.085.298.298.695.497 1.092.497.347 0 .645-.1.992-.348l2.481-2.185v14.4c0 .845.646 1.44 1.439 1.44H33.69c.844 0 1.439-.645 1.439-1.44V16.04l2.482 2.185c.297.248.645.348.992.348.396 0 .843-.15 1.091-.497.546-.646.497-1.54-.148-2.086L27.437 5.363c2.282-1.59 5.061-2.384 7.99-2.384 4.168 0 7.988 1.738 9.675 4.37 6.401 10.03-.198 21.998-19.6 35.505z" fill="#7150A6"/>
    <path fill-rule="evenodd" clip-rule="evenodd" d="M26.048 17.479h3.324v3.327h-3.324v-3.327zm-4.962 4.916h3.325v3.327h-3.325v-3.327zm4.962 0h3.324v3.327h-3.324v-3.327zm-4.962-4.916h3.325v3.327h-3.325v-3.327z" fill="#704FA6"/>
    <path d="M66.986 28.323h-1.033l-3.565 7.611-3.564-7.611H57.79l4.16 8.837h.875l4.161-8.837zm2.268-1.161a.645.645 0 0 0 .662-.632c0-.361-.291-.632-.662-.632-.371 0-.663.27-.663.632 0 .348.305.632.663.632zm.477 1.161h-.941v8.772h.94v-8.772zm8.559 7.947h-5.022v-7.947h-.94v8.772h5.962v-.825zm7.86 0h-5.023v-7.947h-.94v8.772h5.962v-.825zm7.925-1.73 1.166 2.555h1.007l-4.081-8.836h-.901l-4.081 8.836h1.007l1.166-2.554h4.717zm-.384-.838h-3.95l1.975-4.334 1.975 4.334zm7.321-5.573c-.968 0-1.736.233-2.332.697-.584.451-.875 1.058-.875 1.819 0 1.2.848 1.987 2.491 2.296l1.564.297c1.126.22 1.696.696 1.696 1.496 0 1.045-.915 1.729-2.346 1.729-1.643 0-2.636-.787-2.862-2.167h-.927c.212 1.896 1.59 2.992 3.75 2.992 1.007 0 1.815-.244 2.424-.722.623-.49.928-1.135.928-1.935 0-1.213-.835-1.974-2.504-2.283l-1.365-.258c-1.233-.233-1.855-.71-1.855-1.497 0-1.019.888-1.664 2.266-1.664 1.484 0 2.319.645 2.53 1.768h.928c-.106-.839-.477-1.471-1.126-1.91-.65-.438-1.445-.658-2.385-.658zm6.721.194h-.94v8.772h.94v-8.772z" fill="#704FA6"/>
</svg>
