<svg width="322" height="59" viewBox="0 0 322 59" fill="none" xmlns="http://www.w3.org/2000/svg">
<path fill-rule="evenodd" clip-rule="evenodd" d="M23.687 5.865H18.485V0.665C18.485 0.267 18.215 0 17.817 0H15.566C15.146 0 14.898 0.25 14.898 0.665V5.853C14.898 5.853 14.895 5.86 14.895 5.865H9.73099C9.31099 5.865 9.06299 6.115 9.06299 6.535V8.79C9.06299 9.207 9.31199 9.455 9.73099 9.455H14.881L14.895 9.457C14.895 9.465 14.898 9.472 14.898 9.472V14.622C14.898 15.042 15.146 15.289 15.566 15.289H17.817C18.235 15.289 18.485 15.041 18.485 14.621V9.455H23.687C24.105 9.455 24.353 9.207 24.353 8.79V6.535C24.353 6.132 24.085 5.865 23.687 5.865V5.865Z" fill="#FFD520"/>
<path fill-rule="evenodd" clip-rule="evenodd" d="M33.059 11.397C33.059 12.391 32.331 13.143 31.339 13.143C31.1089 13.1461 30.8804 13.1031 30.6672 13.0164C30.454 12.9298 30.2603 12.8013 30.0975 12.6385C29.9348 12.4758 29.8063 12.2821 29.7196 12.0688C29.633 11.8556 29.5899 11.6272 29.593 11.397V8.85204C29.593 7.88304 30.32 7.12904 31.339 7.12904C32.331 7.12904 33.059 7.88304 33.059 8.85204V11.397ZM35.847 11.397V8.85204C35.847 6.40204 34.029 4.58404 31.701 4.58404C30.659 4.58404 30.053 5.06904 29.762 5.06904C29.664 5.06904 29.593 4.97304 29.593 4.80204V0.658039C29.593 0.487039 29.497 0.415039 29.35 0.415039H27.072C26.902 0.415039 26.828 0.487039 26.828 0.658039V15.444C26.828 15.614 26.902 15.688 27.072 15.688H29.132C29.472 15.688 29.326 15.203 29.545 15.203C29.836 15.203 30.392 15.688 31.485 15.688C34.005 15.688 35.847 13.942 35.847 11.397V11.397ZM42.974 11.64C42.974 12.608 42.223 13.383 41.254 13.383C40.236 13.383 39.508 12.608 39.508 11.64V8.63204C39.508 7.66304 40.236 6.88804 41.254 6.88804C42.223 6.88804 42.974 7.66304 42.974 8.63204V11.64ZM45.762 11.64V8.63204C45.762 6.06204 43.969 4.34104 41.254 4.34104C38.514 4.34104 36.72 6.06304 36.72 8.63104V11.64C36.72 14.208 38.514 15.93 41.254 15.93C43.969 15.93 45.762 14.208 45.762 11.64ZM55.775 15.687H53.471C53.302 15.687 53.231 15.613 53.231 15.444V8.85004C53.231 7.88204 52.503 7.12804 51.508 7.12804C50.49 7.12804 49.765 7.88204 49.765 8.85004V15.443C49.765 15.613 49.691 15.686 49.521 15.686H47.241C47.071 15.686 47.001 15.612 47.001 15.443V4.82704C47.001 4.65704 47.071 4.58404 47.241 4.58404H49.302C49.667 4.58404 49.522 5.06804 49.715 5.06804C50.005 5.06804 50.585 4.58404 51.701 4.58404C54.175 4.58404 56.016 6.32804 56.016 8.85104V15.444C56.016 15.614 55.945 15.687 55.776 15.687H55.775ZM66.151 15.687H64.091C63.751 15.687 63.897 15.203 63.678 15.203C63.387 15.203 62.805 15.687 61.715 15.687C59.193 15.687 57.376 13.941 57.376 11.397V4.82704C57.376 4.65704 57.448 4.58404 57.619 4.58404H59.921C60.066 4.58404 60.164 4.65804 60.164 4.82704V11.397C60.164 12.391 60.892 13.142 61.884 13.142C62.879 13.142 63.63 12.367 63.63 11.396V4.82704C63.63 4.65704 63.702 4.58404 63.873 4.58404H66.151C66.297 4.58404 66.394 4.65804 66.394 4.82704V15.444C66.394 15.614 66.32 15.687 66.151 15.687V15.687ZM75.244 5.16604C76.138 5.82204 76.672 6.86204 76.672 7.15304C76.672 7.22704 76.625 7.29804 76.527 7.34904L74.54 8.31704C74.49 8.34304 74.442 8.34304 74.418 8.34304C74.321 8.34304 74.297 8.29304 74.225 8.19504C73.715 7.44404 73.448 6.81504 72.455 6.81504H71.752C70.879 6.81504 70.416 7.12904 70.416 7.73504C70.416 8.73004 71.752 8.51304 73.739 9.04504C75.702 9.57904 76.625 10.475 76.625 12.076C76.625 14.354 75 15.931 72.455 15.931H71.752C70.395 15.931 69.352 15.541 68.599 14.743C67.849 13.965 67.556 13.288 67.556 13.068C67.556 12.997 67.606 12.949 67.702 12.901L69.691 11.931C69.739 11.904 69.763 11.904 69.813 11.904C69.884 11.904 69.934 11.978 70.006 12.076C70.49 12.876 70.805 13.457 71.752 13.457H72.455C73.326 13.457 73.86 13.021 73.86 12.415C73.86 11.446 72.503 11.663 70.516 11.155C68.575 10.669 67.678 9.74804 67.678 8.10004C67.678 5.89404 69.352 4.34004 71.752 4.34004H72.455C73.593 4.34004 74.49 4.60804 75.244 5.16604V5.16604ZM89.001 12.892L86.891 11.85C86.841 11.826 86.819 11.826 86.769 11.826C86.647 11.826 86.549 11.996 86.404 12.286C85.991 13.064 85.554 13.453 84.851 13.453C83.833 13.453 83.105 12.675 83.105 11.704V8.69404C83.105 7.72404 83.833 6.94804 84.851 6.94804C85.555 6.94804 86.018 7.33704 86.431 8.11204C86.576 8.37904 86.624 8.52504 86.769 8.52504C86.793 8.52504 86.841 8.52504 86.891 8.50104L89 7.45604C89.098 7.40804 89.146 7.33604 89.146 7.26304C89.146 6.97204 88.564 5.90304 87.617 5.20004C86.866 4.64204 85.967 4.39804 84.85 4.39804C82.107 4.39804 80.314 6.12304 80.314 8.69404V11.704C80.314 14.278 82.107 16 84.85 16C86.21 16 87.254 15.611 87.958 14.884C88.783 14.011 89.146 13.354 89.146 13.088C89.146 13.014 89.098 12.942 89 12.892H89.001ZM98.645 15.516V8.67004C98.645 6.09904 96.849 4.39804 94.108 4.39804C92.796 4.39804 91.754 4.73904 91.026 5.44304C90.199 6.24404 89.86 7.02004 89.86 7.21504C89.86 7.26304 89.908 7.33704 90.006 7.38504L91.995 8.42704C92.045 8.45304 92.093 8.47704 92.143 8.47704C92.336 8.47704 92.433 8.11204 92.773 7.67604C93.137 7.21604 93.669 6.94804 94.108 6.94804C95.103 6.94804 95.758 7.57804 95.854 8.57504L95.88 8.86504V8.91304C95.88 9.05904 95.783 9.13304 95.637 9.13304H93.307C91.291 9.13304 89.884 10.466 89.884 12.383V12.506C89.884 14.373 91.291 15.756 93.307 15.756H94.23C95.103 15.756 95.66 15.296 95.928 15.296C96.145 15.296 95.976 15.756 96.341 15.756H98.404C98.574 15.756 98.644 15.686 98.644 15.516H98.645ZM95.88 11.46C95.854 11.73 95.854 11.849 95.854 11.849C95.539 12.748 94.981 13.209 94.23 13.209H93.307C92.917 13.209 92.651 12.917 92.651 12.505V12.14C92.651 11.777 92.941 11.46 93.307 11.46H95.88V11.46ZM106.354 7.43204V5.07804C106.354 4.83504 105.843 4.64204 104.994 4.64204C104.362 4.64204 103.78 4.88504 103.151 5.36904L103.005 5.44304C102.86 5.41904 102.786 5.34504 102.786 5.20004V4.86004C102.786 4.68804 102.712 4.64004 102.545 4.64004H100.481C100.31 4.64004 100.238 4.71504 100.238 4.88404V15.514C100.238 15.684 100.31 15.756 100.481 15.756H102.762C102.931 15.756 103.005 15.684 103.005 15.515V8.91304C103.005 7.96704 103.732 7.21504 104.679 7.21504C105.359 7.21504 105.867 7.69904 106.184 7.69904C106.28 7.69904 106.354 7.60404 106.354 7.43204V7.43204ZM115.926 15.516V0.711039C115.926 0.541039 115.828 0.468039 115.682 0.468039H113.376C113.207 0.468039 113.133 0.542039 113.133 0.711039V4.86104C113.133 5.03104 113.061 5.12804 112.963 5.12804C112.696 5.12804 112.066 4.64204 111.022 4.64204C108.691 4.64204 106.871 6.46204 106.871 8.91404V11.461C106.871 14.011 108.715 15.757 111.241 15.757C112.334 15.757 112.916 15.273 113.207 15.273C113.45 15.273 113.254 15.757 113.619 15.757H115.682C115.852 15.757 115.926 15.685 115.926 15.517V15.516ZM113.133 11.461C113.133 12.458 112.405 13.21 111.411 13.21C110.392 13.21 109.662 12.458 109.662 11.461V8.91404C109.662 7.94304 110.392 7.19204 111.411 7.19204C112.405 7.19204 113.133 7.94304 113.133 8.91404V11.461Z" fill="white"/>
<path fill-rule="evenodd" clip-rule="evenodd" d="M162.688 0H152.117L157.403 7.638" fill="#FEC20D"/>
<path fill-rule="evenodd" clip-rule="evenodd" d="M150.054 15.784L148.865 13.441H143.278L142.136 15.783H138.926L145.424 4.07898H146.69L153.245 15.783H150.054V15.784ZM146.057 7.60898L144.102 11.375H148.012" fill="white"/>
<path fill-rule="evenodd" clip-rule="evenodd" d="M160.382 15.784L157.365 11.965L154.802 15.784H151.559L155.923 9.78803L151.784 4.05603H154.923L157.402 7.63803L159.882 4.05603H163.002L158.779 9.78803L163.691 15.783" fill="white"/>
<path fill-rule="evenodd" clip-rule="evenodd" d="M174.369 10.758H165.997C166.048 11.72 166.381 12.458 166.997 12.974C167.581 13.471 168.364 13.719 169.344 13.719C170.589 13.719 171.538 13.392 172.192 12.739L173.247 14.832C172.286 15.611 170.85 16 168.938 16C167.11 16 165.68 15.463 164.649 14.388C163.637 13.332 163.131 11.887 163.131 10.051C163.131 8.31099 163.666 6.85299 164.734 5.67699C165.834 4.45099 167.242 3.83899 168.958 3.83899C170.604 3.83899 171.95 4.32299 172.993 5.29099C174.061 6.28999 174.596 7.60699 174.596 9.24099C174.596 9.57399 174.52 10.08 174.369 10.759V10.758ZM166.092 8.70299H171.852C171.663 6.98799 170.714 6.12999 169.005 6.12999C167.44 6.12999 166.469 6.98799 166.092 8.70299V8.70299ZM175.118 15.03L176.089 12.852C176.913 13.499 177.837 13.822 178.861 13.822C179.929 13.822 180.463 13.442 180.463 12.682C180.463 12.154 180.187 11.702 179.634 11.324C179.382 11.149 178.873 10.9 178.107 10.58C176.083 9.74299 175.071 8.57099 175.071 7.06299C175.071 5.98199 175.508 5.15499 176.381 4.58299C177.13 4.08699 178.069 3.83899 179.2 3.83899C180.42 3.83899 181.567 4.11199 182.641 4.65899L181.85 6.78899C181.253 6.27399 180.42 6.01599 179.351 6.01599C178.396 6.01599 177.918 6.39599 177.918 7.15699C177.918 7.55999 178.251 7.93999 178.918 8.29699C179.125 8.41699 179.621 8.63099 180.407 8.93899C182.343 9.69899 183.31 10.887 183.31 12.503C183.31 13.69 182.839 14.595 181.897 15.218C181.092 15.74 180.062 16 178.805 16C178.031 16 177.393 15.93 176.89 15.793C176.432 15.667 175.841 15.413 175.118 15.03ZM183.824 15.03L184.795 12.852C185.618 13.499 186.542 13.822 187.567 13.822C188.635 13.822 189.169 13.442 189.169 12.682C189.169 12.154 188.893 11.702 188.34 11.324C188.088 11.149 187.579 10.9 186.813 10.58C184.788 9.74299 183.777 8.57099 183.777 7.06299C183.777 5.98199 184.214 5.15499 185.087 4.58299C185.835 4.08699 186.775 3.83899 187.906 3.83899C189.126 3.83899 190.273 4.11199 191.347 4.65899L190.555 6.78899C189.958 6.27399 189.126 6.01599 188.057 6.01599C187.102 6.01599 186.623 6.39599 186.623 7.15699C186.623 7.55999 186.957 7.93999 187.623 8.29699C187.83 8.41699 188.327 8.63099 189.113 8.93899C191.049 9.69899 192.016 10.887 192.016 12.503C192.016 13.69 191.545 14.595 190.602 15.218C189.798 15.74 188.767 16 187.51 16C186.737 16 186.099 15.93 185.596 15.793C185.137 15.667 184.547 15.413 183.824 15.03V15.03Z" fill="white"/>
<path d="M275.858 13.562H278.235V4.70898H275.858V13.562ZM278.951 13.562H281.138L281.061 7.51198H281.088L284.203 13.562H287.157V4.70898H284.985L285.021 10.722H284.996L281.98 4.70898H278.953L278.951 13.561V13.562ZM290.911 4.70898H293.816L297.252 13.562H294.646L293.983 11.675H290.639L289.936 13.561H287.518L290.911 4.70898V4.70898ZM292.367 6.53698H292.342L291.182 9.99398H293.418L292.367 6.53698ZM297.612 13.562H299.797L299.721 7.51198H299.747L302.869 13.562H305.82V4.70898H303.648L303.67 10.722H303.644L300.631 4.70898H297.605L297.612 13.561V13.562ZM306.362 13.332C307.225 13.5862 308.12 13.7148 309.019 13.714C311 13.714 312.943 13.093 312.943 10.797C312.943 7.60098 308.726 8.56498 308.726 7.13198C308.726 6.35798 309.724 6.30698 310.322 6.30698C311.004 6.29797 311.68 6.43575 312.304 6.71098L312.459 4.88398C311.711 4.65569 310.933 4.54437 310.151 4.55398C308.361 4.55398 306.265 5.13698 306.265 7.26798C306.265 10.49 310.482 9.44798 310.482 11.1C310.482 11.81 309.77 11.96 309.012 11.96C308.159 11.968 307.318 11.7675 306.56 11.376L306.362 13.332V13.332ZM267.551 13.551H270.651V8.85098H275.14V6.64198H270.651V4.06598H278.216V1.87598H267.551V13.551ZM240.938 4.88198C240.303 4.61943 239.62 4.49108 238.933 4.50498C236.218 4.50498 234.219 6.31698 234.219 9.04498C234.219 11.858 236.097 13.657 238.921 13.657C239.445 13.657 240.278 13.621 240.957 13.342L240.881 12.112C240.434 12.382 239.578 12.542 238.938 12.542C237.087 12.542 235.58 11.161 235.58 9.08098C235.58 7.09098 236.947 5.61898 239.004 5.61898C239.65 5.61561 240.286 5.78698 240.843 6.11498L240.938 4.88198ZM241.764 13.505H243.105L244.015 11.274H248.383L249.289 13.504H250.682L246.914 4.65398H245.576L241.764 13.504V13.505ZM247.973 10.234H244.423L246.197 5.84398L247.973 10.234ZM251.638 13.504H252.905V9.57898H253.674C254.352 9.57898 254.77 9.57898 255.167 10.439L256.532 13.507H257.987L256.304 9.98098C256.022 9.44298 255.83 9.24598 255.434 9.09498V9.06898C256.47 8.89198 257.275 8.12598 257.275 7.04898C257.275 4.93098 255.574 4.65298 253.811 4.65298H251.632L251.638 13.506V13.504ZM252.905 5.77198H254.127C255.302 5.77198 255.917 6.27798 255.917 7.07698C255.917 7.92898 255.202 8.45898 253.986 8.45898H252.9L252.905 5.77198V5.77198ZM259.083 13.506H261.716C264.652 13.506 266.467 11.972 266.467 9.00598C266.467 6.27798 264.359 4.65598 261.716 4.65598H259.083V13.506ZM260.359 5.77198H261.852C263.691 5.77198 265.109 6.98398 265.109 9.05398C265.109 11.344 263.899 12.391 261.698 12.391H260.356L260.359 5.77098V5.77198Z" fill="white"/>
<path fill-rule="evenodd" clip-rule="evenodd" d="M221.59 4.395L221.586 0.007H224.57V4.387L228.989 0L231.104 2.099L226.664 6.506H231.088V9.463H226.676L231.112 13.866L228.981 15.98L224.553 11.585V16H221.582V11.585L217.146 15.988L215.048 13.905L219.531 9.455H215.017V6.505H219.48L215.036 2.095L217.142 0.004L221.582 4.41L221.59 4.395V4.395Z" fill="white"/>
<path fill-rule="evenodd" clip-rule="evenodd" d="M68.4 55.17C68.364 55.434 68.34 55.591 68.34 55.591H66.064L66.125 55.171H67.035H66.125L66.979 49.382C67.055 48.882 67.46 47.962 68.095 47.455C68.7811 46.8982 69.6384 46.5955 70.522 46.598C71.503 46.598 72.08 46.838 72.41 47.02C72.741 47.2 72.955 47.43 72.955 47.43C72.955 47.43 73.227 47.164 73.761 46.944C74.293 46.725 74.661 46.593 75.527 46.593C76.39 46.593 77.197 46.87 77.547 47.217C77.9 47.563 78.017 47.772 78.149 48.375C78.149 48.375 78.219 48.811 78.129 49.441C78.054 49.964 77.484 53.868 77.293 55.171L77.233 55.591H74.956L75.016 55.171H76.106H75.016C75.204 53.887 75.757 50.097 75.792 49.835C75.835 49.52 75.925 48.865 75.706 48.578C75.488 48.29 75.094 48.214 74.796 48.235C74.496 48.256 73.878 48.348 73.712 49.335C73.576 50.15 73.019 53.898 72.832 55.169L71.724 55.171H72.831C72.792 55.434 72.767 55.591 72.767 55.591H70.501L70.563 55.169C70.757 53.849 71.339 49.886 71.371 49.639C71.408 49.34 71.461 48.636 71.061 48.38C70.661 48.124 69.941 48.182 69.647 48.589C69.354 48.993 69.29 49.191 69.189 49.81C69.104 50.32 68.581 53.926 68.401 55.17H68.4ZM78.98 55.17C78.6991 54.9432 78.4766 54.6524 78.331 54.322C77.757 53.021 78.098 51.368 79.698 50.556C81.298 49.745 83.709 49.787 83.709 49.787C83.709 49.787 83.889 49.062 83.495 48.711C83.055 48.318 82.599 48.444 81.607 48.605C80.615 48.764 79.505 49.239 79.505 49.239L79.762 47.429C79.762 47.429 80.433 46.949 82.12 46.693C83.805 46.439 84.402 46.757 85.148 47.313C85.896 47.867 85.896 48.827 85.81 49.435C85.725 50.044 85.074 54.46 85.074 54.46L84.498 54.909C84.368 55.005 84.229 55.091 84.082 55.171H84.081C83.419 55.531 82.585 55.74 81.618 55.827C80.753 55.904 79.707 55.761 78.98 55.171V55.17ZM85.799 55.17L85.523 54.493C85.523 54.493 88.175 50.855 88.226 50.773C88.281 50.694 88.296 50.498 88.223 50.358C88.147 50.22 86.536 47.468 86.455 47.312C86.375 47.158 86.275 46.854 86.42 46.244C86.563 45.638 86.941 45.456 87.11 45.429C87.282 45.403 87.448 45.466 87.645 45.77C87.843 46.075 89.459 48.497 89.528 48.603C89.598 48.711 89.71 48.743 89.802 48.613C89.892 48.486 93.177 43.957 93.337 43.739C93.498 43.519 93.903 43.083 94.292 43.023C94.682 42.965 94.975 43.013 95.247 43.216C95.519 43.419 95.754 43.84 95.707 44.276C95.657 44.713 95.418 45.093 95.033 45.58C94.649 46.064 91.188 50.279 91.097 50.38C91.006 50.48 91.002 50.641 91.023 50.774C91.043 50.908 91.262 51.194 91.342 51.313L93.502 54.523L94.612 46.863H96.767L95.555 55.171H94.98H95.555L95.493 55.597H94.233L95.349 57.255L93.152 59L90.954 55.17H90.953C90.208 53.87 89.556 52.733 89.535 52.694C89.48 52.604 89.4 52.476 89.224 52.701C89.117 52.837 88.05 54.158 87.231 55.171H85.799L86.279 56.345L87.231 55.171H85.799V55.17ZM96.382 55.17L97.236 49.382C97.312 48.882 97.716 47.962 98.351 47.455C99.0374 46.898 99.8951 46.5952 100.779 46.598C101.76 46.598 102.336 46.837 102.667 47.018C102.998 47.201 103.211 47.428 103.211 47.428C103.211 47.428 103.484 47.164 104.018 46.944C104.55 46.725 104.917 46.593 105.782 46.593C106.647 46.593 107.453 46.87 107.805 47.217C108.156 47.563 108.275 47.77 108.406 48.373C108.406 48.373 108.476 48.811 108.386 49.441L107.552 55.171H107.55L107.49 55.591H105.213C105.213 55.591 105.234 55.434 105.273 55.171H106.031H105.273C105.46 53.887 106.014 50.097 106.049 49.835C106.091 49.52 106.183 48.865 105.964 48.578C105.745 48.288 105.351 48.214 105.052 48.235C104.753 48.256 104.134 48.348 103.968 49.335C103.832 50.15 103.275 53.898 103.088 55.169L102.002 55.171H103.088C103.049 55.434 103.024 55.591 103.024 55.591H100.758C100.758 55.591 100.782 55.434 100.819 55.171V55.169C101.016 53.847 101.596 49.886 101.627 49.637C101.664 49.34 101.718 48.637 101.318 48.38C100.917 48.124 100.197 48.182 99.904 48.587C99.61 48.992 99.546 49.19 99.446 49.808C99.363 50.319 98.838 53.926 98.659 55.171L98.597 55.591H96.318C96.318 55.591 96.343 55.434 96.382 55.171V55.17ZM109.348 55.17C109.04 54.8863 108.833 54.5094 108.759 54.097C108.653 53.404 108.727 52.743 108.876 51.804C109.026 50.866 109.618 46.876 109.618 46.876H111.88C111.88 46.876 111.042 52.593 110.978 53.021C110.914 53.447 110.957 54.119 111.351 54.311C111.747 54.502 112.387 54.471 112.652 54.237C112.921 54 113.165 53.767 113.305 53.021C113.443 52.273 114.233 46.863 114.233 46.863H116.462C116.462 46.863 115.704 52.135 115.619 52.775C115.534 53.415 115.225 54.492 114.542 55.036C114.482 55.084 114.424 55.128 114.365 55.171H114.364C113.725 55.627 112.969 55.858 111.34 55.858C110.395 55.858 109.755 55.558 109.348 55.171H112.435H109.348V55.17ZM116.098 55.17L116.954 49.382C117.028 48.88 117.433 47.962 118.067 47.455C118.753 46.8982 119.611 46.5955 120.495 46.598C121.476 46.598 122.052 46.837 122.383 47.018C122.714 47.201 122.928 47.428 122.928 47.428C122.928 47.428 123.2 47.164 123.734 46.944C124.266 46.725 124.634 46.593 125.498 46.593C126.363 46.593 127.169 46.868 127.521 47.215C127.872 47.563 127.991 47.77 128.123 48.373C128.123 48.373 128.192 48.811 128.102 49.441C128.026 49.964 127.455 53.869 127.268 55.171H127.266L127.206 55.591H124.929C124.929 55.591 124.95 55.434 124.989 55.171C125.176 53.887 125.73 50.097 125.765 49.835C125.807 49.52 125.899 48.865 125.68 48.576C125.461 48.288 125.067 48.214 124.768 48.235C124.469 48.256 123.85 48.346 123.684 49.333C123.36 51.4175 123.045 53.5036 122.74 55.591H120.474L120.535 55.171H121.639H120.535C120.728 53.855 121.312 49.886 121.343 49.637C121.379 49.338 121.434 48.637 121.034 48.38C120.633 48.124 119.913 48.182 119.62 48.587C119.326 48.992 119.263 49.19 119.162 49.808C119.079 50.319 118.554 53.926 118.373 55.171L118.313 55.591H116.036C116.036 55.591 116.057 55.434 116.098 55.171V55.17ZM88.829 44.838C89.024 43.918 89.711 43.174 90.367 43.174C91.025 43.174 91.4 43.919 91.207 44.838C91.013 45.758 90.325 46.502 89.669 46.502C89.013 46.502 88.637 45.757 88.829 44.838ZM83.506 51.272C83.506 51.272 83.004 51.303 82.641 51.335C82.279 51.369 81.724 51.42 81.01 51.687C80.295 51.954 80.018 52.509 80.018 53.085C80.018 53.619 80.317 54.217 81.275 54.281C82.237 54.344 83.133 53.725 83.133 53.725L83.506 51.272V51.272Z" fill="white"/>
<path d="M175.317 55.958H176.292V54.981H175.317V55.958ZM169.654 51.818C169.655 51.934 169.641 52.07 169.609 52.224C169.438 53.0811 169.013 53.8668 168.389 54.479C168.091 54.772 167.603 55.075 167.304 55.075C167.227 55.075 167.162 55.064 167.095 54.922C167.003 54.728 166.985 54.309 167.21 53.712C167.424 53.139 167.809 52.555 168.294 52.065C168.701 51.654 169.161 51.467 169.416 51.467C169.526 51.467 169.65 51.467 169.654 51.817V51.818V51.818ZM162.611 51.12L162.584 51.271C162.435 51.1958 162.319 51.0673 162.26 50.911C162.209 50.774 162.23 50.666 162.324 50.581C162.373 50.5344 162.437 50.5062 162.504 50.501C162.514 50.501 162.521 50.503 162.525 50.505C162.626 50.603 162.672 50.736 162.611 51.12V51.12ZM159.649 51.78C159.633 51.999 159.567 52.227 159.529 52.344C159.198 53.372 158.946 53.94 158.066 54.708C157.791 54.948 157.524 55.081 157.316 55.081C157.255 55.0827 157.195 55.0684 157.142 55.0396C157.088 55.0109 157.043 54.9686 157.011 54.917C156.886 54.734 156.811 54.337 157.011 53.821C157.296 53.091 157.991 52.251 158.664 51.826C158.804 51.737 158.977 51.653 159.163 51.581C159.37 51.501 159.495 51.483 159.562 51.483C159.601 51.483 159.622 51.49 159.622 51.488C159.633 51.5 159.666 51.554 159.649 51.779V51.78ZM175.693 50.014C176.166 49.058 176.438 47.542 176.111 46.596C175.882 45.934 175.361 45.572 174.702 45.595C173.443 45.635 172.956 47.212 172.722 47.969C172.141 49.852 171.794 51.904 171.675 54.165L171.561 54.25C171.343 54.413 170.845 54.787 170.645 54.8C170.623 54.762 170.576 54.653 170.555 54.396C170.53 54.099 170.559 53.329 170.582 52.71C170.597 52.33 170.609 52.002 170.608 51.81V51.805C170.598 51.019 170.131 50.512 169.416 50.512C168.844 50.512 168.154 50.85 167.616 51.393C167.038 51.977 166.577 52.681 166.317 53.375C166.178 53.7264 166.098 54.0979 166.078 54.475C165.999 54.5379 165.918 54.5986 165.835 54.657C165.143 55.121 164.945 54.961 164.881 54.907C164.567 54.654 164.868 53.879 165.134 53.197C165.383 52.559 165.617 51.957 165.506 51.454C165.49 51.3806 165.457 51.312 165.409 51.2539C165.361 51.1957 165.301 51.1497 165.232 51.1194C165.163 51.0892 165.088 51.0757 165.013 51.08C164.938 51.0842 164.865 51.1062 164.8 51.144C164.592 51.264 163.92 51.414 163.525 51.432L163.554 51.271C163.599 50.987 163.705 50.323 163.192 49.821C162.848 49.487 162.294 49.457 161.844 49.75C161.346 50.073 161.154 50.674 161.365 51.243C161.494 51.592 161.764 51.981 162.323 52.203C161.939 53.311 161.272 54.58 160.644 55.056C160.56 54.756 160.477 54.009 160.587 52.141C160.595 51.997 160.601 51.892 160.602 51.836C160.622 51.556 160.612 51.153 160.324 50.841C160.192 50.699 159.954 50.529 159.562 50.529C159.342 50.529 159.098 50.582 158.819 50.691C158.588 50.7787 158.365 50.8882 158.155 51.018C157.301 51.558 156.483 52.545 156.122 53.475C155.838 54.207 155.876 54.948 156.223 55.456C156.476 55.824 156.874 56.036 157.316 56.036C157.762 56.036 158.238 55.825 158.694 55.426C159.082 55.087 159.372 54.776 159.604 54.45C159.665 55.325 159.843 55.79 160.161 55.995C160.274 56.0689 160.407 56.1082 160.542 56.108C160.666 56.108 160.792 56.076 160.915 56.012C161.941 55.475 162.817 53.745 163.267 52.385C163.342 52.388 163.42 52.388 163.5 52.387C163.743 52.382 164.111 52.334 164.466 52.253C164.401 52.449 164.319 52.66 164.245 52.85C163.879 53.788 163.425 54.957 164.279 55.65C164.807 56.076 165.492 56.019 166.316 55.481C166.538 55.836 166.883 56.029 167.304 56.029C168.147 56.029 168.967 55.249 169.058 55.16C169.259 54.963 169.442 54.75 169.608 54.526C169.632 54.799 169.717 55.438 170.245 55.676C170.369 55.731 170.496 55.756 170.623 55.756C170.961 55.756 171.307 55.584 171.632 55.372C171.615 56.5824 171.652 57.7929 171.743 59L172.663 58.424C172.583 57.177 172.563 55.9269 172.605 54.678C173.312 54.196 173.936 53.89 174.473 53.756L174.879 52.731C174.224 52.768 173.495 53.021 172.674 53.502C172.819 51.601 173.137 49.859 173.634 48.252C173.789 47.747 174.154 46.567 174.735 46.549C174.94 46.541 175.102 46.599 175.209 46.909C175.427 47.537 175.231 48.597 174.965 49.306L175.693 50.014V50.014ZM158.573 48.976C157.32 49.94 155.859 50.279 154.6 49.913C155.133 47.428 156.055 45.023 157.534 44.203C157.762 44.0751 158.017 44.002 158.279 43.9895C158.541 43.977 158.801 44.0255 159.041 44.131C159.515 44.338 159.867 44.746 159.984 45.221C160.287 46.461 159.654 48.144 158.573 48.976ZM160.942 44.988C160.842 44.5991 160.655 44.2382 160.393 43.9331C160.132 43.628 159.805 43.3868 159.436 43.228C159.058 43.0608 158.646 42.984 158.233 43.0036C157.82 43.0232 157.417 43.1387 157.056 43.341C155.235 44.351 154.23 46.997 153.675 49.49C152.868 48.968 152.3 48.115 152.022 47.02L151.149 47.567C151.56 48.891 152.372 49.925 153.47 50.512C153.235 51.8329 153.083 53.1671 153.014 54.507L153.011 54.569C152.966 55.3892 152.958 56.2111 152.986 57.032L153.957 56.423C153.947 55.636 153.98 54.953 153.996 54.617L153.999 54.553C154.048 53.521 154.177 52.219 154.411 50.883C155.951 51.299 157.696 50.895 159.175 49.758C160.582 48.674 161.342 46.624 160.942 44.988V44.988Z" fill="white"/>
<path d="M214.049 49.9719C214.159 49.9719 214.224 50.0799 214.202 50.1769L211.914 58.6639C211.902 58.6983 211.88 58.7283 211.851 58.7498C211.822 58.7712 211.786 58.7832 211.75 58.7839H207.962C207.924 58.783 207.888 58.7698 207.858 58.7463C207.829 58.7229 207.808 58.6904 207.798 58.6539L206.813 54.7239C206.78 54.6039 206.725 54.6039 206.692 54.7239L205.74 58.6539C205.718 58.7179 205.663 58.7839 205.576 58.7839H201.722C201.686 58.783 201.651 58.771 201.621 58.7496C201.592 58.7281 201.57 58.6982 201.558 58.6639L199.292 50.1559C199.287 50.1318 199.287 50.1068 199.293 50.0829C199.298 50.0589 199.31 50.0366 199.326 50.0177C199.342 49.9988 199.362 49.9839 199.384 49.974C199.407 49.9642 199.431 49.9597 199.456 49.9609H203.222C203.259 49.9598 203.295 49.9725 203.323 49.9965C203.352 50.0205 203.37 50.0542 203.375 50.0909L204.163 54.2689C204.185 54.3769 204.273 54.3769 204.295 54.2689L205.138 50.0909C205.16 50.0149 205.214 49.9609 205.302 49.9609H208.258C208.335 49.9609 208.4 50.0149 208.411 50.0909L209.21 54.2809C209.232 54.3879 209.309 54.3879 209.331 54.2809L210.185 50.0909C210.196 50.0259 210.272 49.9609 210.338 49.9609L214.049 49.9709V49.9719ZM239.524 50.1339C239.524 50.1124 239.528 50.091 239.536 50.0711C239.544 50.0512 239.556 50.0331 239.572 50.018C239.587 50.0029 239.605 49.991 239.625 49.9831C239.645 49.9752 239.666 49.9714 239.688 49.9719H242.918C242.995 49.9719 243.082 50.0259 243.082 50.1339V55.6869C243.082 55.7309 243.126 55.7629 243.159 55.7629H248.446C248.468 55.7622 248.489 55.7659 248.509 55.7739C248.53 55.7818 248.548 55.7937 248.563 55.809C248.579 55.8242 248.591 55.8425 248.599 55.8626C248.607 55.8827 248.611 55.9042 248.611 55.9259V58.6319C248.611 58.7079 248.545 58.7829 248.446 58.7829H239.688C239.645 58.7819 239.604 58.7646 239.574 58.7345C239.543 58.7043 239.526 58.6637 239.524 58.6209V50.1339V50.1339ZM260.292 54.3879C260.292 52.6129 259.974 50.9999 258.387 50.3399C257.325 49.8959 255.508 49.8419 254.577 49.8629C251.468 49.9169 249.651 50.0909 249.651 50.0909C249.574 50.1009 249.508 50.1559 249.508 50.2529V58.5229C249.508 58.6209 249.596 58.6749 249.64 58.6749C251.019 58.8269 252.815 58.9249 254.588 58.9249C255.519 58.9249 257.467 58.8049 258.398 58.4259C259.985 57.7979 260.292 56.1639 260.292 54.3879V54.3879ZM253.034 55.7959V53.0359C253.034 52.9809 253.077 52.9589 253.11 52.9489C253.537 52.9159 254.15 52.8949 254.698 52.8949C256.416 52.8949 256.537 53.2299 256.537 54.4319C256.537 55.6329 256.405 55.9689 254.698 55.9689C254.117 55.9689 253.165 55.9149 253.165 55.9149C253.044 55.9149 253.034 55.8709 253.034 55.7949V55.7959ZM222.271 54.4429C222.271 53.0889 221.953 52.6459 220.344 52.6459C218.724 52.6459 218.406 53.0889 218.406 54.4429C218.406 55.7959 218.735 56.2399 220.344 56.2399C221.953 56.2289 222.271 55.7849 222.271 54.4429ZM226.102 54.3769C226.102 56.1529 225.807 57.8849 224.198 58.5129C223.442 58.8049 222.129 58.9999 220.322 58.9999C218.516 58.9999 217.191 58.8159 216.436 58.5129C214.837 57.8849 214.531 56.1429 214.531 54.3769C214.531 52.6019 214.826 50.8809 216.436 50.2529C217.191 49.9609 218.516 49.7659 220.322 49.7659C222.129 49.7659 223.442 49.9499 224.198 50.2529C225.807 50.8809 226.102 52.6029 226.102 54.3769ZM238.55 58.5129C237.597 57.5686 236.588 56.683 235.528 55.8609L235.386 55.7519C235.452 55.7419 235.506 55.7309 235.561 55.7199C237.116 55.4379 237.959 54.0099 237.959 52.8729C237.959 51.6389 237.652 50.5019 236.098 50.0469C234.707 49.6469 227.383 49.8739 227.383 49.8739C227.307 49.8739 227.241 49.9389 227.23 50.0259V58.6099C227.23 58.6859 227.296 58.7729 227.394 58.7729H230.635C230.675 58.7721 230.714 58.7559 230.742 58.7276C230.771 58.6993 230.787 58.6611 230.788 58.6209V55.8499C230.788 55.8499 230.788 55.8059 230.832 55.7849C230.865 55.7629 230.898 55.7739 230.93 55.7949C230.941 55.8059 233.197 57.7119 234.105 58.7399C234.118 58.7569 234.134 58.7706 234.154 58.78C234.173 58.7894 234.194 58.7941 234.215 58.7939H238.429C238.495 58.7939 238.539 58.7619 238.572 58.7079C238.616 58.6539 238.605 58.5669 238.55 58.5129V58.5129ZM230.799 54.0629V52.4729C230.799 52.4729 230.799 52.4399 230.821 52.4179C230.836 52.4046 230.856 52.3971 230.876 52.3969C231.314 52.3969 231.762 52.3749 232.211 52.3749C232.616 52.3749 233.054 52.3849 233.448 52.3969C233.996 52.4069 234.248 52.6569 234.248 53.1759C234.248 53.8359 233.985 54.1179 233.415 54.1389C233.01 54.1499 232.605 54.1609 232.2 54.1609C231.751 54.1609 231.303 54.1609 230.865 54.1509C230.854 54.1509 230.832 54.1509 230.81 54.1289C230.799 54.0959 230.799 54.0639 230.799 54.0639V54.0629ZM260.193 43.1299H259.241V43.8879H260.193V43.1299ZM240.531 45.8249V47.8819H239.469V45.8249L238.528 43.1409H239.667L240.006 44.4609L240.356 43.1409H241.495L240.531 45.8249ZM242.644 47.8709L242.6 47.6869C242.436 47.8709 242.25 47.9579 241.889 47.9579C241.495 47.9679 241.21 47.6119 241.221 47.1779L241.232 46.5719C241.254 45.5769 242.611 45.8799 242.611 45.1429C242.611 44.9919 242.6 44.8619 242.425 44.8619C242.25 44.8619 242.206 44.9919 242.206 45.1429V45.4469H241.221V45.1429C241.221 44.5049 241.779 44.2019 242.414 44.2019C243.224 44.2019 243.597 44.6459 243.597 45.1429V47.8929L242.644 47.8709V47.8709ZM242.589 46.0639C242.36 46.2149 242.195 46.2799 242.195 46.5839V47.0269C242.195 47.2439 242.25 47.3189 242.392 47.3189C242.535 47.3189 242.589 47.2329 242.589 47.0269V46.0639ZM246.443 46.9079C246.443 47.4819 246.345 47.9579 245.699 47.9579C245.337 47.9579 245.151 47.8499 244.998 47.6329V48.7369H244.046V44.2769H244.998L244.987 44.6449C245.173 44.3099 245.37 44.2019 245.742 44.2019C246.257 44.2019 246.432 44.6889 246.432 45.1539L246.443 46.9079V46.9079ZM245.436 45.2299C245.436 45.0679 245.348 44.9809 245.217 44.9809C245.086 44.9809 244.998 45.0779 244.998 45.2509V46.9509C244.998 47.1139 245.086 47.2009 245.217 47.2009C245.348 47.2009 245.436 47.1139 245.436 46.9409V45.2299V45.2299ZM246.903 47.8709V44.2769H247.855V47.8709H246.903ZM250.165 47.8709L249.541 46.2039L249.399 46.4639V47.8609H248.337V43.1189H249.41V44.6019L250.089 43.1299H251.151L250.165 45.1219L251.227 47.8719H250.165V47.8709ZM253.318 45.2629C253.077 45.1759 252.442 45.1649 252.442 45.7389V47.8719H251.49V44.2769H252.377L252.366 44.6569C252.694 44.1909 253.044 44.1799 253.307 44.1799L253.318 45.2629V45.2629ZM255.978 46.9729C255.978 47.6869 255.475 47.9689 254.796 47.9689C254.172 47.9689 253.614 47.6659 253.614 46.9619V45.2839C253.614 44.6019 254.03 44.2119 254.796 44.2119C255.42 44.2119 255.978 44.4619 255.978 45.2839V46.2259H254.588V47.0919C254.588 47.2439 254.654 47.3189 254.796 47.3189C254.938 47.3189 255.004 47.2329 255.004 47.0919V46.5619H255.989L255.978 46.9719V46.9729ZM254.982 45.0779C254.982 44.9379 254.917 44.8509 254.785 44.8509C254.643 44.8509 254.577 44.9379 254.577 45.0779V45.5659H254.993L254.982 45.0779ZM257.85 47.8709V47.5029C257.763 47.8169 257.467 47.9469 257.106 47.9469C256.526 47.9469 256.405 47.4599 256.405 47.0049V45.2629C256.405 44.6889 256.548 44.1909 257.128 44.1909C257.467 44.1909 257.73 44.3419 257.84 44.5159V43.1299H258.792V47.8709H257.85V47.8709ZM257.85 45.1979C257.85 45.0349 257.763 44.9479 257.632 44.9479C257.5 44.9479 257.413 45.0349 257.413 45.1979L257.424 46.9079C257.424 47.0699 257.511 47.1569 257.642 47.1569C257.774 47.1569 257.861 47.0599 257.861 46.8969L257.85 45.1969V45.1979ZM259.241 47.8819V44.2879H260.193V47.8819H259.241Z" fill="white"/>
<path d="M238.156 44.8399C237.543 43.0969 235.791 42.9999 235.605 42.9999C234.817 42.9899 233.952 43.2489 233.295 43.8879C233.032 44.1259 232.835 44.3969 232.638 44.6879C232.441 44.3969 232.244 44.1149 231.981 43.8879C231.674 43.5946 231.311 43.365 230.915 43.2126C230.518 43.0602 230.096 42.9879 229.671 42.9999C229.496 42.9999 227.734 43.0969 227.121 44.8399C226.902 45.5086 226.957 46.2369 227.274 46.8649C227.591 47.5469 228.369 48.1099 229.179 48.0549C229.77 48.0449 230.416 47.6649 230.657 47.0699C230.854 46.5299 230.799 45.9659 230.339 45.4999C230.35 45.6199 230.361 45.7819 230.241 45.9339C230.055 46.1939 229.759 46.2479 229.452 46.1389C229.179 46.0199 229.08 45.8249 229.113 45.5759C229.135 45.3599 229.31 45.1979 229.485 45.1109C229.847 44.9589 230.175 45.0349 230.492 45.3379C231.018 45.9229 231.084 46.7999 231.335 47.4709C231.511 48.0229 231.795 48.4989 232.408 48.6399C232.485 48.6619 232.562 48.6619 232.638 48.6619C232.715 48.6619 232.791 48.6509 232.868 48.6399C233.481 48.4999 233.766 48.0229 233.941 47.4699C234.193 46.7999 234.247 45.9229 234.773 45.3379C235.09 45.0349 235.419 44.9589 235.78 45.1109C235.966 45.1979 236.141 45.3599 236.152 45.5759C236.174 45.8259 236.076 46.0199 235.813 46.1389C235.506 46.2479 235.211 46.1829 235.025 45.9339C234.904 45.7819 234.915 45.6199 234.926 45.5009C234.466 45.9659 234.401 46.5289 234.609 47.0709C234.85 47.6659 235.496 48.0449 236.087 48.0559C236.897 48.1099 237.674 47.5579 238.003 46.8649C238.331 46.2799 238.375 45.4679 238.156 44.8399V44.8399ZM236.919 46.9189C236.546 47.2439 236.054 47.3409 235.649 47.1569C235.536 47.1066 235.435 47.032 235.354 46.9386C235.272 46.8451 235.212 46.735 235.178 46.6159C235.517 46.9509 236.13 47.1139 236.689 46.5399C236.689 46.5399 237.214 46.0639 236.919 45.1539C236.776 44.7099 236.218 44.3309 235.758 44.2879C235.069 44.1799 234.423 44.4079 233.974 45.0349C233.448 45.8469 233.372 46.7449 232.989 47.6449C232.963 47.7116 232.915 47.7677 232.854 47.8047C232.792 47.8418 232.72 47.8576 232.649 47.8499C232.578 47.8562 232.507 47.8396 232.446 47.8025C232.385 47.7655 232.337 47.7099 232.31 47.6439C231.927 46.7459 231.861 45.8469 231.324 45.0349C230.876 44.4069 230.23 44.1799 229.54 44.2879C229.08 44.3319 228.522 44.7099 228.38 45.1539C228.084 46.0639 228.609 46.5399 228.609 46.5399C229.168 47.1239 229.781 46.9509 230.12 46.6159C230.066 46.8319 229.89 47.0379 229.649 47.1569C229.244 47.3409 228.752 47.2439 228.38 46.9189C227.832 46.3779 227.745 45.6849 227.964 45.0459C228.226 44.2659 229.025 43.8879 229.649 43.8339C230.394 43.7689 231.423 44.2239 231.839 44.9919C231.938 45.1649 232.135 45.6309 232.135 45.6309H233.186C233.186 45.6309 233.383 45.1649 233.481 44.9909C233.897 44.2229 234.926 43.7689 235.671 43.8339C236.306 43.8879 237.094 44.2669 237.357 45.0459C237.554 45.6959 237.477 46.3879 236.919 46.9189Z" fill="#A7A9AC"/>
</svg>
