<?xml version="1.0" encoding="UTF-8"?>
<svg width="37px" height="38px" viewBox="0 0 37 38" version="1.1" xmlns="http://www.w3.org/2000/svg" xmlns:xlink="http://www.w3.org/1999/xlink">
    <!-- Generator: Sketch 52.4 (67378) - http://www.bohemiancoding.com/sketch -->
    <title>bank-transfer-logo</title>
    <desc>Created with Sketch.</desc>
    <g id="Page-1" stroke="none" stroke-width="1" fill="none" fill-rule="evenodd">
        <g id="Apple-TV-Copy-43" transform="translate(-775.000000, -636.000000)" fill="#D0D0D0">
            <g id="bank-transfer-logo" transform="translate(775.000000, 636.000000)">
                <path d="M6.50302297,26.6125047 C6.90689238,26.4040933 7.6904474,26.0009984 7.6904474,24.5645826 C7.6904474,23.5337576 7.0834341,22 4.70737606,22 L0,22 L0,32 L4.10278114,32 C6.08706167,32 6.61305925,31.6518158 7.16565901,31.0914764 C7.67593712,30.5798078 8,29.8247847 8,29.0348184 C8,28.0451766 7.6904474,27.0705104 6.50302297,26.6125047 Z M1.94437727,23.7309372 L4.26602177,23.7309372 C5.18258767,23.7309372 5.7496977,23.9805316 5.7496977,24.8016972 C5.7496977,25.5979034 5.11729141,25.9173843 4.31801693,25.9173843 L1.94437727,25.9173843 L1.94437727,23.7309372 Z M4.42442563,30.2728067 L1.94437727,30.2728067 L1.94437727,27.5984026 L4.52116082,27.5984026 C5.25151149,27.5984026 5.97823458,27.936603 5.97823458,28.8101835 C5.9758162,29.8247847 5.40870617,30.2728067 4.42442563,30.2728067 Z" id="Shape" fill-rule="nonzero"></path>
                <polygon id="Path" points="1 33 1 33.8867235 2.48591971 33.8867235 2.48591971 38 3.51048532 38 3.51048532 33.8867235 5 33.8867235 5 33"></polygon>
                <polygon id="Path" points="33.0942837 26.0968668 36.7865914 22 34.3431193 22 30.8901905 26.0656597 30.8901905 22 29 22 29 32 30.8901905 32 30.8901905 28.6159031 31.7720536 27.6122831 34.5678193 32 37 32"></polygon>
                <path d="M14.659306,22 L12.376183,22 L9,32 L11.0843849,32 L11.7432965,29.9405891 L15.2413249,29.9405891 L15.8493691,31.9987519 L18,31.9987519 L14.659306,22 Z M12.2708991,28.210684 L13.4858044,24.2566151 L13.5130126,24.2566151 L14.6865142,28.210684 L12.2708991,28.210684 Z" id="Shape" fill-rule="nonzero"></path>
                <path d="M23.6311561,3.2554091 C23.0494509,2.56718892 22.4086482,1.92539169 21.6554444,1.36947691 C21.2823188,1.08861809 20.8837001,0.829810163 20.4468419,0.597695432 C20.0065073,0.370222996 19.5557438,0.150874575 19.0169133,0 C19.0261835,0.560557075 19.1235206,1.05380088 19.2382394,1.53659952 C19.3471642,2.00547128 19.4943287,2.44532869 19.6658274,2.8677775 C19.255621,2.98847716 18.7573477,3.15792092 18.1965005,3.37610876 C17.8338039,3.53858907 17.436344,3.68482135 17.0354078,3.90184863 C16.6286777,4.096825 16.2161537,4.33358203 15.7978359,4.59819282 C15.3725654,4.83843157 14.9762643,5.17964022 14.560264,5.47442593 C14.1813445,5.83536434 13.7653442,6.14755865 13.4281406,6.55724115 C13.0793493,6.94951505 12.7386694,7.34178894 12.4756274,7.78744922 C12.3423683,8.0044765 12.1882512,8.20525574 12.0770088,8.42692531 C11.9704015,8.6520766 11.8684292,8.87606731 11.7687746,9.09425516 C11.5428134,9.51670397 11.4396824,9.97164884 11.3214874,10.3859736 C11.1812756,10.7968167 11.1314482,11.1995358 11.0932087,11.5709193 C11.0619217,11.9411423 10.9842838,12.2684241 11.0028242,12.5701733 C11.0120944,12.8672801 11.019047,13.1249275 11.0259997,13.338473 C11.0387462,13.7597613 11.0422225,14 11.0422225,14 C11.0422225,14 11.0874148,13.7620824 11.1638939,13.3477576 C11.2021335,13.1423361 11.2496433,12.8951339 11.3041057,12.6096328 C11.3469804,12.3252922 11.4941449,12.0235431 11.5961171,11.6904584 C11.7050419,11.3573738 11.8313484,11.0022382 12.039928,10.6610296 C12.2299671,10.3140181 12.4026246,9.93915278 12.6830482,9.61535273 C12.8093547,9.4493907 12.9391375,9.2776258 13.0677616,9.10702147 C13.2033383,8.94105944 13.3771545,8.79830888 13.5266365,8.64279201 C13.8209654,8.32131311 14.1801857,8.06134461 14.5359297,7.80369726 C14.8754508,7.53328359 15.2891336,7.35107353 15.6471951,7.12940396 C16.055084,6.96576308 16.4143043,6.76150211 16.8152405,6.6431236 C17.1976363,6.50385476 17.5742382,6.38663682 17.9427287,6.30307552 C18.3007902,6.19862389 18.6611693,6.15220095 18.9751974,6.08488767 C19.1768243,6.05587333 19.3622283,6.03150128 19.5406797,6.00945039 C19.5198217,6.06283677 19.497805,6.11390201 19.4792646,6.16844898 C19.2961781,6.67097737 19.1536488,7.19903838 19.0539941,7.75495316 C19.0088019,8.03697256 18.9717211,8.32247368 18.9427517,8.61377767 C18.9195762,8.90972395 18.9149411,9.21611539 18.935799,9.53875487 C19.2382394,9.4226975 19.5128691,9.29155268 19.7735935,9.14880212 C20.0250477,9.00140927 20.2718668,8.84821355 20.5070982,8.69037553 C20.9740846,8.36889663 21.39472,8.01956396 21.7747982,7.64585924 C22.5442249,6.90077095 23.1803925,6.06863964 23.7145879,5.17383735 L23.7829556,5.06010114 C24.110889,4.50418635 24.0726494,3.77650667 23.6311561,3.2554091 Z" id="Path"></path>
                <path d="M8.78696158,36.872776 C8.78696158,35.9393127 8.57275902,35.7857665 8.18044237,35.6054107 C8.65308498,35.4384597 8.91967404,34.9668535 8.91967404,34.4123812 C8.91967404,33.9809895 8.68800931,33 7.41676368,33 L5,33 L5,38 L5.98020955,38 L5.98020955,36.0441141 L7.0104773,36.0441141 C7.74970896,36.0441141 7.79045402,36.3097733 7.79045402,36.9897636 C7.79045402,37.5040214 7.82887078,37.7648062 7.89522701,37.9987814 L9,37.9987814 L9,37.868389 C8.78696158,37.7855228 8.78696158,37.6027297 8.78696158,36.872776 Z M7.14668219,35.2044845 L5.9790454,35.2044845 L5.9790454,33.8640019 L7.22235157,33.8640019 C7.80675204,33.8640019 7.92083818,34.2515233 7.92083818,34.5184012 C7.91967404,35.0107239 7.66821886,35.2044845 7.14668219,35.2044845 Z" id="Shape" fill-rule="nonzero"></path>
                <polygon id="Path" points="27 33.8865075 27 33 24 33 24 38 24.8815068 38 24.8815068 35.8981978 26.7369863 35.8981978 26.7369863 35.0141257 24.8815068 35.0141257 24.8815068 33.8865075"></polygon>
                <polygon id="Path" points="29.0786517 37.1128443 29.0786517 35.8211065 31.64687 35.8211065 31.64687 34.936388 29.0786517 34.936388 29.0786517 33.8859371 31.8767255 33.8859371 31.8767255 33 28 33 28 38 32 38 32 37.1128443"></polygon>
                <path d="M21.7252226,35.1691347 L20.5406528,34.8845442 C20.3364985,34.8371124 20.0231454,34.7572883 20.0231454,34.3870893 C20.0231454,33.9578899 20.4872404,33.8202221 20.8718101,33.8202221 C21.7620178,33.8202221 21.8439169,34.3211476 21.8712166,34.5328552 L22.8445104,34.5328552 C22.8373887,33.9509486 22.4385757,33 20.9454006,33 C19.3643917,33 19.0735905,33.9312818 19.0735905,34.4599722 C19.0735905,35.5057844 19.8320475,35.680472 20.620178,35.8563165 L21.1412463,35.9766312 C21.6551929,36.0981027 22.0231454,36.19528 22.0231454,36.5677927 C22.0231454,37.0640907 21.4854599,37.1797779 21.0071217,37.1797779 C20.1169139,37.1797779 19.9804154,36.6776955 19.9732938,36.4127719 L19,36.4127719 C19,37.0039334 19.3026706,38 21.0807122,38 C21.505638,38 23,37.8704304 23,36.4463211 C22.9988131,35.5937066 22.388724,35.3264692 21.7252226,35.1691347 Z" id="Path"></path>
                <path d="M36.7868375,36.872776 C36.7868375,35.9393127 36.5701805,35.7857665 36.1799651,35.6054107 C36.6505533,35.4384597 36.9219569,34.9668535 36.9219569,34.4123812 C36.9219569,33.9809895 36.6878276,33 35.4158416,33 L33,33 L33,38 L33.9807804,38 L33.9807804,36.0441141 L35.0116482,36.0441141 C35.7489808,36.0441141 35.7920792,36.3097733 35.7920792,36.9897636 C35.7920792,37.5040214 35.8305183,37.7648062 35.898078,37.9987814 L37,37.9987814 L37,37.868389 C36.7868375,37.7855228 36.7868375,37.6027297 36.7868375,36.872776 Z M35.1490973,35.2044845 L33.9796156,35.2044845 L33.9796156,33.8640019 L35.2213162,33.8640019 C35.8083867,33.8640019 35.9225393,34.2515233 35.9225393,34.5184012 C35.9225393,35.0107239 35.6697729,35.2044845 35.1490973,35.2044845 Z" id="Shape" fill-rule="nonzero"></path>
                <polygon id="Path" points="25.085491 22 25.085491 28.9611881 25.0597518 28.9611881 21.1608702 22 19 22 19 31.998752 20.914509 31.998752 20.9169603 24.8703357 20.9426996 24.8703357 24.9506665 32 27 32 27 22"></polygon>
                <path d="M12.1469608,33 L10.8761221,33 L9,38 L10.1592716,38 L10.5247499,36.9678284 L12.4662734,36.9678284 L12.8048217,38 L14,38 L12.1469608,33 Z M10.8196974,36.1050451 L11.4955117,34.1284426 L11.5057707,34.1284426 L12.1623493,36.1050451 L10.8196974,36.1050451 Z" id="Shape" fill-rule="nonzero"></path>
                <polygon id="Path" points="18.0421525 33 18.0409567 36.4803802 18.0289985 36.4803802 16.0786248 33 15 33 15 38 15.9554559 38 15.9554559 34.4330977 15.9710015 34.4330977 17.9727952 38 19 38 19 33"></polygon>
                <path d="M25.9478875,6.69499959 C25.9254362,6.25205971 25.9065298,6 25.9065298,6 C25.9065298,6 25.872262,6.25083612 25.8001815,6.69010523 C25.7659137,6.90668081 25.7269193,7.16975283 25.680835,7.47197977 C25.6453856,7.77298311 25.5047695,8.0947875 25.4102377,8.44962884 C25.3121609,8.80447019 25.1951777,9.18133616 24.9919343,9.54841341 C24.8099605,9.92038502 24.6457114,10.3192756 24.3692058,10.6704462 C24.2463144,10.8503141 24.1198781,11.0338527 23.9946234,11.2198385 C23.8587339,11.3972592 23.6885766,11.5538788 23.536144,11.7227343 C23.2478219,12.0690105 22.8897826,12.3565544 22.5341066,12.6379803 C22.1997002,12.9340892 21.7813969,13.1372053 21.4221759,13.3831471 C21.0133257,13.5679093 20.6529231,13.7954972 20.2476178,13.9313158 C19.8635823,14.0916062 19.48191,14.2262012 19.1085092,14.325312 C18.7481066,14.4476711 18.3841591,14.507627 18.0651141,14.5871605 C17.860689,14.6250918 17.6704437,14.6569051 17.4908332,14.6850477 C17.5073763,14.627539 17.5298276,14.573701 17.548734,14.5161922 C17.7188913,13.9790358 17.8488725,13.4186312 17.9339512,12.830084 C17.9705823,12.5315279 17.9977602,12.2293009 18.0190298,11.920956 C18.0343913,11.6089404 18.0296647,11.2846888 18.0001235,10.9469777 C17.6952583,11.0766784 17.4187527,11.2247328 17.1576085,11.3837997 C16.9035542,11.5465372 16.6613164,11.7153928 16.4238051,11.8891427 C15.9605991,12.2427604 15.5422958,12.6232972 15.1665317,13.0307529 C14.4055505,13.8395465 13.782822,14.7364385 13.2652602,15.6969573 L13.1979063,15.8168692 C12.880043,16.4139816 12.9414887,17.1787258 13.4082396,17.7146586 C14.0226965,18.4206705 14.6962359,19.0777388 15.4784868,19.639367 C15.8660673,19.9244637 16.2808257,20.1838649 16.7357602,20.4139 C17.1883313,20.6414879 17.6539006,20.8592871 18.2104568,21 C18.1809156,20.4114528 18.0651141,19.8950975 17.9386778,19.3897545 C17.8122415,18.8990945 17.6503557,18.4390244 17.461292,17.9997553 C17.8772321,17.8590423 18.3770692,17.665715 18.9430785,17.4185496 C19.3070261,17.2374582 19.7076047,17.0686027 20.1105467,16.8275553 C20.5170336,16.6109797 20.9329736,16.3479077 21.3453688,16.0554695 C21.770762,15.7887266 22.1654324,15.416755 22.5825542,15.0925035 C22.9571366,14.702178 23.371895,14.3571254 23.703938,13.9166327 C24.0477976,13.4920467 24.3810223,13.0699078 24.6362583,12.5914838 C24.7662395,12.357778 24.9139455,12.1412024 25.0226571,11.9038258 C25.1219156,11.6627784 25.221174,11.4241782 25.3157058,11.1904723 C25.533129,10.7377437 25.6252976,10.2544253 25.7340092,9.81515621 C25.8616272,9.37955788 25.9041665,8.95252468 25.9301628,8.56097561 C25.9549774,8.17065013 26.019968,7.82192675 25.9939717,7.50501672 C25.9738837,7.19300106 25.9597039,6.92014031 25.9478875,6.69499959 Z" id="Path"></path>
            </g>
        </g>
    </g>
</svg>