<svg width="522" height="16" viewBox="0 0 522 16" fill="none" xmlns="http://www.w3.org/2000/svg">
    <path fill-rule="evenodd" clip-rule="evenodd" d="M14.624 5.865H9.422V.665c0-.398-.27-.665-.668-.665H6.502c-.42 0-.668.25-.668.665v5.188l-.002.012H.668c-.42 0-.668.25-.668.67V8.79c0 .417.248.665.668.665h5.15l.014.002c0 .008.002.015.002.015v5.15c0 .42.248.667.668.667h2.252c.417 0 .668-.248.668-.668V9.455h5.202c.417 0 .665-.248.665-.665V6.535c0-.403-.267-.67-.665-.67z" fill="#FFD520"/>
    <path fill-rule="evenodd" clip-rule="evenodd" d="M23.995 11.397c0 .994-.727 1.746-1.72 1.746a1.723 1.723 0 0 1-1.746-1.746V8.852c0-.969.728-1.722 1.746-1.722.993 0 1.72.753 1.72 1.722v2.545zm2.788 0V8.852c0-2.45-1.817-4.267-4.145-4.267-1.042 0-1.648.484-1.94.484-.097 0-.169-.096-.169-.267V.658c0-.171-.095-.243-.243-.243h-2.278c-.17 0-.243.072-.243.243v14.786c0 .17.074.244.243.244h2.061c.339 0 .193-.485.413-.485.29 0 .846.485 1.939.485 2.521 0 4.362-1.746 4.362-4.291zM33.91 11.64c0 .968-.75 1.743-1.72 1.743-1.018 0-1.745-.775-1.745-1.743V8.632c0-.969.727-1.744 1.746-1.744.968 0 1.72.775 1.72 1.744v3.008zm2.789 0V8.632c0-2.57-1.794-4.291-4.508-4.291-2.74 0-4.534 1.722-4.534 4.29v3.009c0 2.568 1.793 4.29 4.534 4.29 2.714 0 4.508-1.722 4.508-4.29zM46.712 15.687h-2.304c-.17 0-.241-.074-.241-.243V8.85c0-.968-.728-1.722-1.722-1.722-1.019 0-1.744.754-1.744 1.722v6.593c0 .17-.074.243-.243.243h-2.28c-.17 0-.241-.074-.241-.243V4.827c0-.17.071-.243.24-.243h2.061c.365 0 .22.484.413.484.291 0 .87-.484 1.987-.484 2.473 0 4.315 1.744 4.315 4.267v6.593c0 .17-.072.243-.241.243zM57.088 15.687h-2.061c-.339 0-.193-.484-.413-.484-.29 0-.873.484-1.963.484-2.521 0-4.339-1.746-4.339-4.29v-6.57c0-.17.072-.243.244-.243h2.302c.145 0 .243.074.243.243v6.57c0 .994.727 1.745 1.72 1.745.994 0 1.745-.775 1.745-1.746V4.827c0-.17.072-.243.244-.243h2.278c.145 0 .243.074.243.243v10.617c0 .17-.074.243-.243.243zM66.18 5.166c.895.656 1.429 1.696 1.429 1.987 0 .074-.048.145-.145.196l-1.987.968c-.05.026-.098.026-.122.026-.098 0-.122-.05-.193-.148-.51-.751-.778-1.38-1.77-1.38h-.704c-.873 0-1.336.314-1.336.92 0 .995 1.336.778 3.323 1.31 1.963.534 2.886 1.43 2.886 3.031 0 2.278-1.624 3.855-4.17 3.855h-.703c-1.357 0-2.4-.39-3.153-1.188-.749-.778-1.042-1.455-1.042-1.675 0-.071.05-.119.145-.167l1.99-.97c.047-.027.071-.027.121-.027.072 0 .122.074.193.172.484.8.8 1.381 1.746 1.381h.704c.87 0 1.405-.436 1.405-1.042 0-.969-1.357-.752-3.344-1.26-1.942-.486-2.839-1.407-2.839-3.055 0-2.206 1.675-3.76 4.074-3.76h.704c1.138 0 2.035.268 2.788.826zM79.938 12.892l-2.11-1.042c-.051-.024-.072-.024-.123-.024-.121 0-.219.17-.364.46-.413.778-.85 1.167-1.553 1.167-1.019 0-1.746-.778-1.746-1.749v-3.01c0-.97.727-1.746 1.746-1.746.703 0 1.166.389 1.579 1.164.145.267.193.413.338.413.024 0 .072 0 .122-.024l2.111-1.045c.098-.048.145-.12.145-.193 0-.291-.582-1.36-1.528-2.063-.752-.559-1.65-.802-2.767-.802-2.743 0-4.537 1.725-4.537 4.296v3.01c0 2.574 1.794 4.296 4.537 4.296 1.36 0 2.404-.389 3.108-1.116.825-.873 1.188-1.53 1.188-1.796 0-.074-.048-.146-.146-.196zM89.581 15.516V8.67c0-2.571-1.796-4.272-4.536-4.272-1.312 0-2.355.341-3.082 1.045-.828.801-1.166 1.577-1.166 1.772 0 .048.047.122.145.17l1.99 1.042c.05.026.097.05.147.05.194 0 .291-.365.63-.802.365-.46.897-.727 1.336-.727.994 0 1.65.63 1.746 1.627l.026.29v.048c0 .146-.098.22-.243.22h-2.33c-2.016 0-3.424 1.333-3.424 3.25v.123c0 1.867 1.408 3.25 3.423 3.25h.923c.873 0 1.431-.46 1.699-.46.217 0 .047.46.412.46h2.064c.169 0 .24-.071.24-.24zm-2.764-4.055c-.026.27-.026.389-.026.389-.315.899-.873 1.36-1.625 1.36h-.923c-.388 0-.656-.292-.656-.705v-.364c0-.363.291-.68.656-.68h2.574zM97.29 7.432V5.078c0-.243-.51-.436-1.36-.436-.631 0-1.213.243-1.843.727l-.145.074c-.146-.024-.22-.098-.22-.243V4.86c0-.172-.074-.22-.24-.22h-2.064c-.172 0-.243.075-.243.244v10.63c0 .17.071.242.243.242h2.28c.17 0 .244-.072.244-.241V8.914c0-.947.727-1.699 1.674-1.699.68 0 1.188.484 1.505.484.096 0 .17-.095.17-.267zM106.862 15.516V.711c0-.17-.098-.243-.243-.243h-2.307c-.169 0-.243.074-.243.243v4.15c0 .17-.071.267-.169.267-.267 0-.897-.486-1.942-.486-2.33 0-4.15 1.82-4.15 4.272v2.547c0 2.55 1.844 4.296 4.37 4.296 1.092 0 1.674-.484 1.965-.484.243 0 .048.484.413.484h2.063c.169 0 .243-.072.243-.24zm-2.793-4.055c0 .997-.727 1.749-1.722 1.749-1.018 0-1.748-.752-1.748-1.749V8.914c0-.971.73-1.722 1.748-1.722.995 0 1.722.751 1.722 1.722v2.547z" fill="#fff"/>
    <g clip-path="url(#31ocli2b1a)" fill-rule="evenodd" clip-rule="evenodd">
        <path d="M153.625 0h-10.572l5.286 7.638" fill="#FEC20D"/>
        <path d="m140.99 15.784-1.189-2.343h-5.587l-1.141 2.342h-3.211l6.499-11.704h1.265l6.555 11.704h-3.191zm-3.997-8.175-1.955 3.766h3.911" fill="#fff"/>
        <path d="m151.318 15.783-3.017-3.817-2.562 3.817h-3.243l4.363-5.995-4.139-5.732h3.14l2.479 3.582 2.479-3.582h3.121l-4.224 5.732 4.912 5.995" fill="#fff"/>
        <path d="M165.305 10.759h-8.372c.051.961.384 1.7 1 2.215.584.497 1.368.745 2.348.745 1.244 0 2.193-.326 2.847-.98l1.056 2.093c-.962.779-2.398 1.168-4.309 1.168-1.829 0-3.259-.537-4.289-1.612-1.012-1.056-1.518-2.501-1.518-4.337 0-1.74.534-3.198 1.602-4.374 1.101-1.225 2.508-1.838 4.224-1.838 1.647 0 2.992.484 4.035 1.452 1.069.999 1.603 2.316 1.603 3.95 0 .333-.075.839-.227 1.518zm-8.277-2.056h5.761c-.189-1.715-1.138-2.573-2.848-2.573-1.565 0-2.536.858-2.913 2.573zM166.054 15.03l.972-2.178c.823.647 1.747.97 2.771.97 1.069 0 1.602-.38 1.602-1.14 0-.528-.276-.98-.829-1.358-.251-.175-.76-.424-1.527-.744-2.024-.837-3.036-2.009-3.036-3.517 0-1.081.437-1.908 1.311-2.48.748-.496 1.687-.744 2.818-.744 1.22 0 2.367.273 3.442.82l-.792 2.13c-.597-.515-1.43-.773-2.499-.773-.955 0-1.433.38-1.433 1.141 0 .403.334.783 1 1.14.207.12.704.334 1.489.642 1.936.76 2.904 1.948 2.904 3.564 0 1.187-.471 2.093-1.414 2.715-.804.522-1.835.782-3.092.782-.773 0-1.411-.07-1.915-.207-.458-.125-1.049-.38-1.772-.763zM174.76 15.03l.971-2.178c.824.647 1.748.97 2.772.97 1.068 0 1.602-.38 1.602-1.14 0-.528-.276-.98-.829-1.358-.251-.175-.76-.424-1.527-.744-2.024-.837-3.036-2.009-3.036-3.517 0-1.081.437-1.908 1.31-2.48.748-.496 1.688-.744 2.819-.744 1.22 0 2.367.273 3.442.82l-.792 2.13c-.598-.515-1.43-.773-2.499-.773-.955 0-1.433.38-1.433 1.141 0 .403.334.783 1 1.14.207.12.703.334 1.489.642 1.936.76 2.904 1.948 2.904 3.564 0 1.187-.471 2.093-1.414 2.715-.804.522-1.835.782-3.093.782-.772 0-1.41-.07-1.914-.207-.458-.125-1.049-.38-1.772-.763z" fill="#fff"/>
    </g>
    <g clip-path="url(#dpc4pxm1fb)" fill="#fff">
        <path d="M266.795 13.562h2.376V4.709h-2.376v8.853zm3.093 0h2.187l-.078-6.05h.027l3.116 6.05h2.953V4.709h-2.172l.037 6.012h-.026l-3.016-6.012h-3.027l-.001 8.852zm11.96-8.853h2.904l3.437 8.853h-2.606l-.664-1.887h-3.343l-.703 1.886h-2.419l3.394-8.852zm1.456 1.828h-.026l-1.159 3.457h2.236l-1.051-3.457zm5.245 7.025h2.185l-.076-6.05h.026l3.122 6.05h2.951V4.709h-2.172l.022 6.012h-.026l-3.014-6.012h-3.025l.007 8.852zm8.749-.23a9.387 9.387 0 0 0 2.658.382c1.98 0 3.924-.621 3.924-2.917 0-3.196-4.217-2.233-4.217-3.665 0-.774.997-.826 1.596-.826a4.763 4.763 0 0 1 1.982.405l.154-1.827a7.579 7.579 0 0 0-2.307-.33c-1.79 0-3.886.583-3.886 2.714 0 3.222 4.217 2.18 4.217 3.832 0 .71-.713.86-1.47.86a5.238 5.238 0 0 1-2.453-.584l-.198 1.956zm-38.81.219h3.1v-4.7h4.489v-2.21h-4.489V4.067h7.564v-2.19h-10.664v11.675zm-26.614-8.669a4.977 4.977 0 0 0-2.004-.377c-2.715 0-4.715 1.812-4.715 4.54 0 2.813 1.879 4.612 4.702 4.612.524 0 1.358-.036 2.036-.315l-.076-1.23c-.446.27-1.303.43-1.942.43-1.851 0-3.358-1.381-3.358-3.462 0-1.99 1.367-3.46 3.423-3.46a3.586 3.586 0 0 1 1.839.495l.095-1.233zm.827 8.623h1.341l.909-2.231h4.368l.907 2.23h1.393l-3.768-8.85h-1.339l-3.811 8.85zm6.208-3.271h-3.549l1.774-4.39 1.775 4.39zm3.665 3.27h1.268V9.579h.768c.679 0 1.097 0 1.493.86l1.366 3.068h1.455l-1.683-3.526c-.283-.538-.474-.735-.87-.886v-.026c1.035-.177 1.84-.943 1.84-2.02 0-2.118-1.7-2.396-3.464-2.396h-2.178l.005 8.853zm1.268-7.732h1.222c1.175 0 1.79.506 1.79 1.305 0 .852-.715 1.382-1.932 1.382h-1.085l.005-2.687zm6.177 7.734h2.633c2.936 0 4.751-1.534 4.751-4.501 0-2.727-2.108-4.349-4.751-4.349h-2.633v8.85zm1.276-7.734h1.493c1.839 0 3.258 1.212 3.258 3.282 0 2.29-1.211 3.337-3.411 3.337h-1.343l.003-6.62z"/>
        <path fill-rule="evenodd" clip-rule="evenodd" d="m212.527 4.395-.004-4.388h2.983v4.38L219.926 0l2.114 2.099-4.44 4.407h4.424v2.957h-4.411l4.435 4.403-2.131 2.114-4.427-4.395V16h-2.971v-4.415l-4.436 4.403-2.099-2.083 4.484-4.45h-4.515v-2.95h4.463l-4.444-4.41 2.107-2.091 4.44 4.406.008-.015z"/>
    </g>
    <path fill-rule="evenodd" clip-rule="evenodd" d="m329.21 12.17-.06.421h-2.277l.062-.42h.911-.911l.854-5.789c.076-.5.481-1.42 1.116-1.927a3.832 3.832 0 0 1 2.427-.857c.981 0 1.557.24 1.888.422.331.18.545.41.545.41s.272-.266.806-.486c.532-.219.9-.351 1.766-.351.863 0 1.669.277 2.019.624.354.346.47.555.603 1.158 0 0 .071.436-.02 1.066a8900.634 8900.634 0 0 1-.896 6.15h-2.277l.06-.42h1.089-1.089c.187-1.284.741-5.074.776-5.336.043-.315.133-.97-.086-1.257-.218-.288-.612-.364-.911-.343-.299.021-.918.113-1.084 1.1-.136.815-.693 4.563-.88 5.834l-1.107.002h1.107c-.039.263-.064.42-.064.42h-2.266l.062-.422c.194-1.32.776-5.283.808-5.53.037-.299.09-1.003-.31-1.259-.401-.256-1.121-.198-1.414.209-.294.404-.357.602-.458 1.221-.085.51-.608 4.116-.789 5.36zm10.58 0a2.253 2.253 0 0 1-.649-.848c-.575-1.301-.233-2.954 1.367-3.766 1.6-.811 4.011-.769 4.011-.769s.18-.725-.214-1.076c-.44-.393-.896-.267-1.888-.106-.992.159-2.102.634-2.102.634l.256-1.81s.672-.48 2.359-.736c1.684-.254 2.282.064 3.028.62.748.554.748 1.514.661 2.122-.085.609-.735 5.025-.735 5.025l-.577.449a3.472 3.472 0 0 1-.415.262h-.002c-.661.36-1.495.569-2.462.655-.865.078-1.912-.065-2.638-.655zm6.819 0-.276-.677s2.652-3.638 2.703-3.72c.055-.079.069-.275-.003-.415-.076-.138-1.687-2.89-1.768-3.046-.08-.154-.181-.458-.036-1.068.143-.606.522-.788.691-.815.172-.026.338.037.534.342.198.304 1.814 2.726 1.883 2.832.071.108.182.14.274.01.09-.127 3.375-4.656 3.536-4.874.161-.22.566-.656.955-.716.389-.058.682-.01.955.193.272.203.507.624.459 1.06-.049.437-.288.817-.673 1.304-.384.484-3.846 4.699-3.936 4.8-.092.1-.095.261-.074.394.019.134.239.42.318.539.08.117 2.161 3.21 2.161 3.21l1.11-7.66h2.155l-1.213 8.308h-.574.574l-.062.426h-1.258l1.115 1.658L353.962 16l-2.198-3.83h-.002l-1.418-2.476c-.054-.09-.134-.218-.311.007-.106.136-1.174 1.457-1.992 2.47h-1.432l.481 1.174.951-1.174h-1.432zm10.583 0 .853-5.788c.077-.5.481-1.42 1.116-1.927a3.834 3.834 0 0 1 2.427-.857c.982 0 1.558.239 1.889.42.33.183.544.41.544.41s.272-.264.806-.484c.532-.219.9-.351 1.765-.351.864 0 1.67.277 2.022.624.352.346.471.553.601 1.156 0 0 .071.438-.019 1.068l-.835 5.73h-.001l-.06.42h-2.278l.061-.42h.758-.758c.187-1.284.74-5.074.776-5.336.042-.315.134-.97-.085-1.257-.219-.29-.614-.364-.912-.343-.299.021-.918.113-1.084 1.1a692.69 692.69 0 0 0-.881 5.834l-1.085.002h1.085l-.063.42h-2.267s.025-.157.062-.42v-.002c.196-1.322.776-5.283.808-5.532.037-.297.09-1-.309-1.257-.402-.256-1.121-.198-1.415.207-.293.405-.357.603-.458 1.221-.083.511-.608 4.118-.786 5.363l-.062.42h-2.279s.025-.157.064-.42zm12.966 0a1.91 1.91 0 0 1-.589-1.072c-.106-.694-.032-1.355.117-2.294.15-.938.742-4.929.742-4.929h2.261l-.901 6.146c-.064.426-.022 1.098.373 1.29.396.191 1.036.16 1.301-.074.269-.237.513-.47.652-1.216.138-.748.928-6.158.928-6.158h2.23s-.759 5.272-.843 5.912c-.085.64-.395 1.717-1.077 2.261a5.46 5.46 0 0 1-.177.135h-.002c-.638.456-1.395.687-3.023.687-.946 0-1.586-.3-1.992-.687h3.086-3.086zm6.75 0 .855-5.788c.075-.502.479-1.42 1.114-1.927a3.835 3.835 0 0 1 2.428-.857c.981 0 1.557.239 1.888.42.33.183.544.41.544.41s.272-.264.806-.484c.533-.219.9-.351 1.765-.351.864 0 1.67.275 2.022.622.352.348.471.555.603 1.158 0 0 .069.438-.021 1.068-.076.523-.647 4.428-.835 5.73h-.001l-.06.42h-2.277s.021-.157.06-.42c.187-1.284.74-5.074.776-5.336.042-.315.134-.97-.085-1.259-.219-.288-.614-.362-.912-.341-.299.021-.918.111-1.084 1.098-.136.817-.695 4.57-.882 5.838l-.062.42h-2.267l.062-.42h1.103-1.103c.193-1.316.776-5.285.808-5.534.035-.299.09-1-.309-1.257-.402-.256-1.121-.198-1.415.207-.293.405-.357.603-.458 1.221a905.222 905.222 0 0 0-.848 5.783h-2.277s.021-.157.062-.42zM349.639 1.838c.194-.92.882-1.664 1.538-1.664.658 0 1.033.745.84 1.664-.195.92-.882 1.664-1.538 1.664s-1.033-.745-.84-1.664zm-5.323 6.434s-.502.031-.865.063c-.362.034-.917.085-1.632.352-.714.267-.991.822-.991 1.399 0 .533.298 1.131 1.257 1.195.961.063 1.858-.555 1.858-.555l.373-2.454z" fill="#fff"/>
    <g clip-path="url(#ywluxfdc6c)">
        <path d="M436.126 12.958h.975v-.977h-.975v.977zm-5.662-4.14c.001.116-.014.252-.045.406a4.364 4.364 0 0 1-1.22 2.255c-.299.293-.787.596-1.086.596-.077 0-.141-.011-.209-.153-.092-.194-.11-.613.115-1.21.215-.573.6-1.157 1.084-1.647.408-.411.868-.598 1.123-.598.109 0 .233 0 .238.35v.001zm-7.043-.698c-.008.048-.017.1-.028.151a.672.672 0 0 1-.324-.36c-.051-.137-.03-.245.064-.33a.296.296 0 0 1 .181-.08c.009 0 .016.002.021.004.101.098.147.231.086.615zm-2.963.66c-.016.219-.081.447-.119.564-.331 1.028-.584 1.596-1.464 2.364-.275.24-.541.373-.749.373h-.001a.346.346 0 0 1-.304-.164c-.125-.183-.2-.58 0-1.096.284-.73.979-1.57 1.652-1.995.141-.089.313-.173.499-.245a1.16 1.16 0 0 1 .4-.098c.038 0 .059.007.06.005.01.012.044.067.026.291zm16.045-1.766c.472-.956.745-2.472.418-3.418-.23-.662-.751-1.024-1.409-1-1.26.038-1.747 1.616-1.98 2.373-.582 1.883-.928 3.935-1.047 6.196a6.696 6.696 0 0 0-.115.085c-.218.164-.716.537-.916.55-.022-.038-.069-.147-.09-.404-.024-.297.004-1.067.028-1.686.014-.38.026-.708.026-.9v-.005c-.01-.786-.478-1.293-1.192-1.293-.572 0-1.262.338-1.801.881-.577.584-1.039 1.288-1.299 1.982a3.497 3.497 0 0 0-.238 1.1 5.38 5.38 0 0 1-.244.182c-.692.464-.889.304-.954.251-.314-.254-.012-1.028.253-1.711.249-.638.484-1.24.372-1.743a.475.475 0 0 0-.705-.31c-.208.12-.881.271-1.276.287.011-.055.021-.109.029-.16.045-.284.151-.948-.362-1.45-.344-.334-.898-.364-1.347-.071-.498.323-.691.924-.48 1.494.129.348.399.737.958.96-.383 1.107-1.05 2.376-1.679 2.852-.084-.3-.166-1.047-.057-2.915.008-.144.014-.249.015-.305.02-.28.01-.683-.278-.995-.131-.142-.37-.312-.761-.312-.22 0-.464.053-.744.162a3.928 3.928 0 0 0-.664.327c-.854.54-1.671 1.527-2.033 2.457-.284.732-.246 1.473.102 1.981.252.368.65.58 1.092.58h.001c.445 0 .922-.211 1.377-.61.389-.339.679-.65.911-.976.061.875.238 1.34.556 1.545a.7.7 0 0 0 .381.113.8.8 0 0 0 .373-.096c1.026-.537 1.902-2.267 2.352-3.627.075.003.153.003.233.002.244-.005.612-.053.966-.134-.064.196-.146.407-.221.597-.365.939-.82 2.107.035 2.8.527.426 1.212.369 2.036-.169.223.355.567.548.988.548.844 0 1.663-.78 1.754-.869.201-.197.384-.41.55-.635.025.274.11.913.638 1.151.124.056.25.08.378.08.338 0 .684-.172 1.009-.384a40.851 40.851 0 0 0 .111 3.628l.92-.576a37.723 37.723 0 0 1-.058-3.746c.706-.482 1.33-.789 1.868-.922l.406-1.025c-.656.037-1.384.29-2.205.771.145-1.901.463-3.643.959-5.25.156-.505.52-1.685 1.102-1.703.205-.007.366.05.474.36.218.628.022 1.688-.244 2.397l.728.708zm-17.12-1.038c-1.253.964-2.715 1.303-3.973.937.533-2.485 1.454-4.89 2.934-5.71a1.687 1.687 0 0 1 1.506-.072c.474.207.827.615.943 1.09.304 1.24-.329 2.923-1.41 3.755zm2.368-3.988a2.627 2.627 0 0 0-1.506-1.76 2.664 2.664 0 0 0-2.38.113c-1.82 1.01-2.826 3.656-3.38 6.149-.807-.522-1.376-1.375-1.654-2.47l-.873.547c.412 1.324 1.223 2.358 2.322 2.945a32.155 32.155 0 0 0-.456 3.995l-.003.062a27.663 27.663 0 0 0-.025 2.463l.971-.609c-.01-.787.022-1.47.039-1.806l.003-.064c.049-1.032.177-2.334.411-3.67 1.54.416 3.286.012 4.764-1.125 1.408-1.084 2.168-3.134 1.767-4.77z" fill="#fff"/>
    </g>
    <g clip-path="url(#4oor4akaod)">
        <path d="M474.859 6.972c.109 0 .175.108.153.205l-2.288 8.487a.178.178 0 0 1-.164.12h-3.788a.175.175 0 0 1-.165-.13l-.985-3.93c-.033-.12-.087-.12-.12 0l-.953 3.93c-.022.065-.076.13-.164.13h-3.853a.178.178 0 0 1-.165-.12l-2.266-8.508a.16.16 0 0 1 .164-.195h3.766c.066 0 .143.043.154.13l.788 4.178c.022.108.109.108.131 0l.843-4.178c.022-.076.077-.13.164-.13h2.956c.077 0 .143.054.154.13l.799 4.189c.022.108.098.108.12 0l.854-4.19c.011-.064.088-.13.153-.13l3.712.012zM500.334 7.134a.16.16 0 0 1 .164-.162h3.229c.077 0 .165.054.165.162v5.553c0 .044.043.076.076.076h5.288a.16.16 0 0 1 .164.162v2.707a.159.159 0 0 1-.164.152h-8.758a.167.167 0 0 1-.164-.163V7.134zM521.101 11.388c0-1.775-.317-3.388-1.905-4.048-1.062-.444-2.879-.498-3.809-.477-3.11.054-4.927.228-4.927.228-.076.01-.142.065-.142.162v8.27c0 .098.087.152.131.152 1.38.152 3.175.25 4.949.25.93 0 2.879-.12 3.809-.499 1.588-.628 1.894-2.262 1.894-4.038zm-7.258 1.408v-2.76c0-.055.044-.077.077-.088a22.93 22.93 0 0 1 1.587-.054c1.719 0 1.839.336 1.839 1.538 0 1.201-.131 1.537-1.839 1.537-.58 0-1.533-.054-1.533-.054-.12 0-.131-.044-.131-.12zM483.08 11.443c0-1.354-.317-1.798-1.927-1.798-1.62 0-1.937.444-1.937 1.798 0 1.353.328 1.796 1.937 1.796 1.61-.01 1.927-.454 1.927-1.796zm3.832-.066c0 1.776-.296 3.508-1.905 4.136-.755.292-2.069.487-3.875.487-1.807 0-3.131-.184-3.887-.487-1.598-.628-1.905-2.37-1.905-4.136 0-1.775.296-3.496 1.905-4.124.756-.292 2.08-.487 3.887-.487 1.806 0 3.12.184 3.875.487 1.609.628 1.905 2.35 1.905 4.124zM499.359 15.513a33.163 33.163 0 0 0-3.021-2.652l-.143-.109c.066-.01.121-.021.176-.032 1.554-.282 2.397-1.71 2.397-2.847 0-1.234-.306-2.371-1.861-2.826-1.39-.4-8.714-.173-8.714-.173-.077 0-.143.065-.154.152v8.584c0 .076.066.163.165.163h3.24a.155.155 0 0 0 .153-.152V12.85s0-.044.044-.065c.033-.022.066-.011.099.01.011.011 2.266 1.917 3.175 2.945a.133.133 0 0 0 .109.054h4.215c.066 0 .109-.032.142-.086.044-.055.033-.141-.022-.195zm-7.751-4.45v-1.59s0-.033.022-.055a.085.085 0 0 1 .055-.022c.438 0 .887-.021 1.336-.021.405 0 .843.01 1.237.021.547.011.799.26.799.78 0 .66-.263.942-.832.963-.405.011-.81.022-1.215.022-.449 0-.898 0-1.336-.01-.011 0-.033 0-.055-.022-.011-.033-.011-.066-.011-.066zM521.003.13h-.953v.758h.953V.13zM501.341 2.825v2.057h-1.062V2.825l-.942-2.684h1.139l.339 1.32.351-1.32h1.138l-.963 2.684zM503.454 4.871l-.044-.184c-.164.184-.35.271-.712.271-.394.01-.678-.346-.667-.78l.01-.606c.022-.996 1.38-.693 1.38-1.429 0-.151-.011-.281-.186-.281s-.219.13-.219.281v.303h-.985v-.303c0-.638.558-.941 1.193-.941.81 0 1.182.443 1.182.941v2.75l-.952-.022zm-.055-1.807c-.23.151-.394.216-.394.52v.443c0 .216.055.292.197.292.142 0 .197-.086.197-.292v-.963zM507.253 3.908c0 .574-.099 1.05-.745 1.05-.361 0-.547-.108-.701-.325v1.104h-.952v-4.46h.952l-.011.368c.187-.335.384-.443.756-.443.514 0 .69.487.69.952l.011 1.754zm-1.008-1.678c0-.162-.087-.249-.219-.249-.131 0-.219.097-.219.27v1.7c0 .163.088.25.219.25.132 0 .219-.087.219-.26V2.23zM507.712 4.871V1.277h.953v3.594h-.953zM510.975 4.871l-.624-1.667-.143.26v1.397h-1.062V.119h1.073v1.483l.679-1.472h1.062l-.985 1.992 1.062 2.75h-1.062zM514.128 2.262c-.241-.086-.876-.097-.876.477V4.87h-.953V1.277h.887l-.011.38c.329-.466.679-.477.942-.477l.011 1.082zM516.788 3.973c0 .714-.504.996-1.182.996-.624 0-1.183-.303-1.183-1.007V2.284c0-.682.416-1.072 1.183-1.072.624 0 1.182.25 1.182 1.072v.942h-1.39v.866c0 .152.065.227.208.227.142 0 .208-.086.208-.227v-.53h.985l-.011.41zm-.996-1.895c0-.14-.066-.227-.197-.227-.143 0-.208.087-.208.227v.488h.416l-.011-.488zM518.66 4.871v-.368c-.088.314-.383.444-.745.444-.58 0-.7-.487-.7-.942V2.262c0-.573.142-1.071.722-1.071.34 0 .602.151.712.325V.13h.952V4.87h-.941zm0-2.673c0-.163-.088-.25-.219-.25s-.219.087-.219.25l.011 1.71c0 .162.088.249.219.249s.219-.097.219-.26l-.011-1.7zM520.05 4.882V1.288h.953v3.594h-.953z" fill="#fff"/>
        <path d="M498.965 1.84C498.352.097 496.6 0 496.414 0c-.788-.01-1.653.249-2.31.888-.262.238-.459.508-.656.8-.197-.292-.395-.573-.657-.8a3.215 3.215 0 0 0-2.31-.888c-.175 0-1.938.097-2.551 1.84a2.66 2.66 0 0 0 .153 2.025c.318.682 1.095 1.245 1.905 1.19.591-.01 1.237-.39 1.478-.985.197-.54.142-1.104-.317-1.57.011.12.021.282-.099.434-.186.26-.482.314-.788.205-.274-.119-.372-.314-.34-.563.022-.216.198-.378.373-.465.361-.152.689-.076 1.007.227.525.585.591 1.462.843 2.133.175.552.46 1.028 1.073 1.169.076.022.153.022.23.022.076 0 .153-.011.229-.022.614-.14.898-.617 1.073-1.17.252-.67.307-1.547.832-2.132.318-.303.646-.379 1.008-.227.186.087.361.249.372.465.022.25-.077.444-.34.563-.306.109-.602.044-.788-.205-.12-.152-.109-.314-.098-.433-.46.465-.526 1.028-.318 1.57.241.595.887.974 1.478.984.81.055 1.587-.498 1.916-1.19.328-.585.372-1.397.153-2.025zm-1.237 2.079c-.372.325-.865.422-1.27.238a.85.85 0 0 1-.471-.541c.34.335.953.498 1.511-.076 0 0 .526-.476.23-1.386-.142-.444-.701-.822-1.16-.866-.69-.108-1.336.12-1.785.747-.525.812-.602 1.71-.985 2.61a.327.327 0 0 1-.339.205.336.336 0 0 1-.34-.206c-.383-.898-.449-1.797-.985-2.609-.449-.628-1.095-.855-1.785-.747-.459.044-1.018.422-1.16.866-.296.91.23 1.386.23 1.386.558.584 1.171.411 1.511.076-.055.216-.23.422-.471.541-.405.184-.898.087-1.27-.238-.547-.541-.635-1.234-.416-1.873.263-.78 1.062-1.158 1.686-1.212.744-.065 1.773.39 2.189 1.158.099.173.296.639.296.639H493.995s.197-.466.296-.64c.416-.768 1.445-1.222 2.189-1.157.635.054 1.423.433 1.686 1.212.197.65.12 1.342-.438 1.873z" fill="#A7A9AC"/>
    </g>
    <defs>
        <clipPath id="31ocli2b1a">
            <path fill="#fff" transform="translate(129.862)" d="M0 0h53.091v16H0z"/>
        </clipPath>
        <clipPath id="dpc4pxm1fb">
            <path fill="#fff" transform="translate(205.953)" d="M0 0h97.92v16H0z"/>
        </clipPath>
        <clipPath id="ywluxfdc6c">
            <path fill="#fff" transform="translate(411.958)" d="M0 0h25.143v16H0z"/>
        </clipPath>
        <clipPath id="4oor4akaod">
            <path fill="#fff" transform="translate(460.101)" d="M0 0h61v16H0z"/>
        </clipPath>
    </defs>
</svg>
