<?xml version="1.0" encoding="UTF-8"?>
<svg width="38px" height="25px" viewBox="0 0 38 25" version="1.1" xmlns="http://www.w3.org/2000/svg" xmlns:xlink="http://www.w3.org/1999/xlink">
    <!-- Generator: Sketch 52.4 (67378) - http://www.bohemiancoding.com/sketch -->
    <title>credit-card (1)</title>
    <desc>Created with Sketch.</desc>
    <g id="Page-1" stroke="none" stroke-width="1" fill="none" fill-rule="evenodd">
        <g id="Apple-TV-Copy-43" transform="translate(-438.000000, -645.000000)" fill="#D0D0D0">
            <g id="credit-card-(1)" transform="translate(438.000000, 645.000000)">
                <path d="M33.9753333,0.0243421053 L3.95059259,0.0243421053 C1.77303704,0.0243421053 0,1.77404971 0,3.92302632 L0,21.0770468 C0,23.2259503 1.77303704,24.9756579 3.95059259,24.9756579 L33.9752593,24.9756579 C36.1528148,24.9756579 37.9258519,23.2259503 37.9258519,21.0770468 L37.9258519,3.92302632 C37.9259259,1.77404971 36.1528889,0.0243421053 33.9753333,0.0243421053 Z M36.3457037,21.0769737 C36.3457037,22.3666667 35.2822222,23.416155 33.9753333,23.416155 L3.95059259,23.416155 C2.6437037,23.416155 1.58022222,22.3666667 1.58022222,21.0769737 L1.58022222,3.92302632 C1.58022222,2.63333333 2.6437037,1.58384503 3.95059259,1.58384503 L33.9752593,1.58384503 C35.2821481,1.58384503 36.3456296,2.63333333 36.3456296,3.92302632 L36.3456296,21.0769737 L36.3457037,21.0769737 Z" id="Shape" fill-rule="nonzero"></path>
                <path d="M37.1357778,4.70270468 L0.790148148,4.70270468 C0.354,4.70270468 0,5.05204678 0,5.48245614 L0,10.1608187 C0,10.5912281 0.354,10.9405702 0.790148148,10.9405702 L37.1358519,10.9405702 C37.572,10.9405702 37.926,10.5912281 37.926,10.1608187 L37.926,5.48245614 C37.9259259,5.05204678 37.5719259,4.70270468 37.1357778,4.70270468 Z M36.3457037,9.38106725 L1.58022222,9.38106725 L1.58022222,6.2621345 L36.3457037,6.2621345 L36.3457037,9.38106725 Z" id="Shape" fill-rule="nonzero"></path>
                <path d="M15.0123704,15.6189327 L5.53088889,15.6189327 C5.09474074,15.6189327 4.74074074,15.9682749 4.74074074,16.3986842 C4.74074074,16.8290936 5.09474074,17.1783626 5.53088889,17.1783626 L15.0123704,17.1783626 C15.4485185,17.1783626 15.8025185,16.8290205 15.8025185,16.3986111 C15.8025185,15.9682018 15.4485185,15.6189327 15.0123704,15.6189327 Z" id="Path"></path>
                <path d="M15.0123704,18.7377924 L5.53088889,18.7377924 C5.09474074,18.7377924 4.74074074,19.0871345 4.74074074,19.5175439 C4.74074074,19.9479532 5.09474074,20.2972953 5.53088889,20.2972953 L15.0123704,20.2972953 C15.4485185,20.2972953 15.8025185,19.9479532 15.8025185,19.5175439 C15.8024444,19.0871345 15.4485185,18.7377924 15.0123704,18.7377924 Z" id="Path"></path>
                <path d="M30.8148148,14.0594298 L29.2345926,14.0594298 C27.9277037,14.0594298 26.8642222,15.1089181 26.8642222,16.3986111 L26.8642222,17.9580409 C26.8642222,19.2477339 27.9277037,20.2972222 29.2345926,20.2972222 L30.8148148,20.2972222 C32.1217037,20.2972222 33.1851852,19.2477339 33.1851852,17.9580409 L33.1851852,16.3986111 C33.1851852,15.1089912 32.1217037,14.0594298 30.8148148,14.0594298 Z M31.604963,17.958114 C31.604963,18.3885234 31.250963,18.7378655 30.8148148,18.7378655 L29.2345926,18.7378655 C28.7984444,18.7378655 28.4444444,18.3885234 28.4444444,17.958114 L28.4444444,16.3986842 C28.4444444,15.9682749 28.7984444,15.6189327 29.2345926,15.6189327 L30.8148148,15.6189327 C31.250963,15.6189327 31.604963,15.9682749 31.604963,16.3986842 L31.604963,17.958114 Z" id="Shape" fill-rule="nonzero"></path>
            </g>
        </g>
    </g>
</svg>