<svg width="1920" height="219" viewBox="0 0 1920 219" fill="none" xmlns="http://www.w3.org/2000/svg">
<g clip-path="url(#clip0_0_636)">
<path d="M1465.39 182.385C1439.74 182.385 1430.6 239.057 1401.48 239.057C1370.49 239.057 1326.83 109.067 1283.94 109.067C1239.44 109.067 1214.4 234.866 1171.9 234.866C1147.23 234.866 1118.18 168.454 1085.93 168.454C1053.23 168.454 1029.07 258.147 988.031 258.147C969.312 258.147 961.212 241.041 941.915 241.041C915.291 241.041 896.816 278.066 877.033 335.378C863.052 375.863 888.758 388.408 928.325 388.408C979.625 388.408 1471.43 386.605 1575.83 386.605C1641.64 386.605 1674.44 372.57 1670.22 349.01C1666.19 326.466 1651.52 299.767 1643.08 285.411C1619.05 244.376 1607.05 228.586 1590.31 228.586C1571.84 228.586 1565.77 254.248 1544.15 254.248C1516.11 254.241 1493.02 182.385 1465.39 182.385Z" fill="#34085E"/>
<path d="M1465.39 182.386C1453.92 182.386 1461.95 197.278 1476.66 208.055C1500.71 225.648 1510.36 242.97 1494.29 242.023C1470.11 240.589 1494.02 266.718 1514.32 281.707C1537.57 298.834 1542.35 292.199 1539.61 276.333C1538.21 268.208 1545.22 264.037 1549.21 261.106C1553.02 258.322 1552.69 254.277 1544.17 254.277C1516.11 254.242 1493.02 182.386 1465.39 182.386Z" fill="#4A0091"/>
<path d="M1401.51 239.057C1370.52 239.057 1326.86 109.067 1283.96 109.067C1263.12 109.067 1287.29 128.492 1306.84 142.799C1315.02 148.786 1314.41 158.011 1302.66 161.861C1287.42 166.86 1291.19 177.623 1308.45 188.742C1328.21 201.469 1346.53 211.981 1345.01 222.71C1343.52 233.223 1332.1 230.535 1331.37 239.579C1330.67 247.871 1355.98 255.703 1363.86 280.865C1369 297.288 1384.04 293.598 1384.86 280.865C1385.41 272.621 1387.22 265.144 1398.75 258.857C1412.11 251.582 1417.01 239.057 1401.51 239.057Z" fill="#4A0091"/>
<path d="M1171.92 234.866C1147.25 234.866 1118.2 168.454 1085.95 168.454C1079.18 168.454 1081.47 175.019 1091.63 181.042C1104.85 188.867 1115.49 200.96 1099.45 200.96C1086.75 200.96 1090.22 210.227 1095.9 213.673C1109.29 221.763 1130 226.616 1128.27 233.529C1126.93 238.841 1105.56 241.041 1123.27 257.896C1140.49 274.299 1179.73 291.447 1175.51 267.88C1171.48 245.344 1214.43 234.866 1171.92 234.866Z" fill="#4A0091"/>
<path d="M847.096 160.824C813.11 160.824 800.974 235.904 762.415 235.904C721.359 235.904 663.504 63.6816 606.673 63.6816C547.711 63.6816 514.539 230.355 458.222 230.355C425.516 230.355 387.042 142.367 344.308 142.367C300.942 142.367 268.973 261.211 214.598 261.211C189.797 261.211 179.06 238.542 153.494 238.542C118.213 238.542 93.7392 287.597 67.5257 363.533C49.0016 417.176 83.0577 433.802 135.492 433.802C203.457 433.802 855.092 431.407 993.417 431.407C1080.62 431.407 1124.07 412.818 1118.49 381.586C1113.15 351.718 1093.7 316.337 1082.56 297.344C1050.71 242.977 1034.82 222.056 1012.65 222.056C988.163 222.056 980.119 256.059 951.477 256.059C914.261 256.031 883.643 160.824 847.096 160.824Z" fill="#34085E"/>
<path d="M847.096 160.823C831.905 160.823 842.531 180.554 862.036 194.833C893.886 218.142 906.676 241.096 885.39 239.836C853.38 237.936 885.028 272.558 911.93 292.379C942.729 315.062 949.062 306.304 945.429 285.25C943.571 274.487 952.875 268.959 958.157 265.06C963.202 261.342 962.777 256.009 951.476 256.009C914.261 256.03 883.643 160.823 847.096 160.823Z" fill="#4A0091"/>
<path d="M762.416 235.903C721.359 235.903 663.504 63.6816 606.673 63.6816C579.061 63.6816 611.085 89.4415 636.985 108.364C647.827 116.301 647.012 128.555 631.48 133.623C611.3 140.251 616.269 154.509 639.135 169.241C665.321 186.11 689.586 200.035 687.575 214.258C685.598 228.183 670.47 224.618 669.482 236.6C668.591 247.593 702.091 257.973 712.529 291.301C719.341 313.065 739.229 308.17 740.363 291.301C741.094 280.377 743.481 270.477 758.755 262.144C776.479 252.508 782.951 235.903 762.416 235.903Z" fill="#4A0091"/>
<path d="M458.222 230.354C425.516 230.354 387.042 142.367 344.308 142.367C335.332 142.367 338.373 151.063 351.838 159.041C369.318 169.408 383.451 185.435 362.192 185.435C345.366 185.435 349.966 197.716 357.502 202.276C375.233 212.998 402.734 219.424 400.389 228.586C398.607 235.625 370.285 238.542 393.75 260.883C416.575 282.619 468.563 305.336 462.982 274.111C457.638 244.237 514.539 230.354 458.222 230.354Z" fill="#4A0091"/>
<path d="M785.845 221.895C780.717 217.718 769.889 211.167 756.013 211.529C744.643 211.828 741.602 215.052 735.548 214.69C727.037 214.174 722.904 198.677 702.529 210.255C690.915 216.862 689.391 207.372 678.918 201.9C662.913 193.546 649.872 207.874 643.275 221.902L785.845 221.895Z" fill="#B178F4"/>
<path d="M520.524 221.895C502.278 202.297 480.643 220.099 468.737 210.756C443.171 190.684 435.335 194.889 423.867 200.682C406.7 209.329 407.166 184.947 390.952 181.884C378.26 179.482 371.468 196.755 360.8 201.858C347.057 208.451 344.322 188.54 331.95 192.07C322.444 194.778 314.094 215.957 310.064 221.895H520.524Z" fill="#B178F4"/>
<path d="M1565.21 221.895C1546.95 202.297 1525.32 220.099 1513.42 210.756C1487.85 190.684 1480.02 194.889 1468.55 200.682C1451.38 209.329 1451.85 184.947 1435.63 181.884C1422.94 179.482 1416.14 196.755 1405.48 201.858C1391.74 208.451 1389.01 188.54 1376.63 192.07C1367.12 194.778 1358.77 215.957 1354.74 221.895H1565.21Z" fill="#B178F4"/>
<path d="M289.133 221.895C288.437 217.105 278.59 200.89 257.297 211.605C245.905 217.342 246.984 207.838 238.508 203.25C230.93 199.157 217.632 209.516 209.518 221.895H289.133Z" fill="#B178F4"/>
<path d="M201.996 221.895C201.168 217.718 196.624 213.457 189.164 213.457C181.704 213.457 173.479 217.718 169.053 221.895H201.996Z" fill="#B178F4"/>
<path d="M838.14 221.895C835.962 218.226 829.79 214.48 821.864 214.48C813.938 214.48 806.492 218.226 803.075 221.895H838.14Z" fill="#B178F4"/>
<g clip-path="url(#clip1_0_636)">
<path fill-rule="evenodd" clip-rule="evenodd" d="M1227.11 207.14H1250.97V211.23C1250.97 211.522 1250.85 211.803 1250.65 212.011C1250.44 212.219 1250.16 212.337 1249.87 212.34H1228.22C1227.93 212.34 1227.64 212.223 1227.44 212.015C1227.23 211.806 1227.11 211.524 1227.11 211.23V207.14Z" fill="#9873B5"/>
<path fill-rule="evenodd" clip-rule="evenodd" d="M1250.97 207.14H1241.91V211.23C1241.91 211.524 1241.79 211.806 1241.58 212.015C1241.38 212.223 1241.09 212.34 1240.8 212.34H1249.87C1250.16 212.337 1250.44 212.219 1250.65 212.011C1250.85 211.803 1250.97 211.522 1250.97 211.23V207.14Z" fill="#78479E"/>
<path fill-rule="evenodd" clip-rule="evenodd" d="M1240.49 137.41C1240.01 137.41 1239.49 137.41 1239.05 137.41C1238.61 137.41 1238.05 137.41 1237.6 137.41C1228.61 137.779 1220.1 141.613 1213.87 148.108C1207.64 154.604 1204.16 163.258 1204.16 172.26C1204.16 187.26 1216.87 200.8 1227.16 207.14H1251.02C1261.26 200.8 1273.97 187.24 1273.97 172.26C1273.97 163.251 1270.49 154.591 1264.25 148.095C1258 141.598 1249.49 137.769 1240.49 137.41Z" fill="#CC5692"/>
<path fill-rule="evenodd" clip-rule="evenodd" d="M1240.59 137.41C1240.08 137.41 1239.59 137.41 1239.05 137.41C1238.51 137.41 1238.05 137.41 1237.5 137.41C1221.5 138.36 1208.85 153.6 1208.85 172.26C1208.85 187.26 1219.85 200.8 1228.72 207.14H1249.38C1258.24 200.8 1269.24 187.24 1269.24 172.26C1269.24 153.6 1256.57 138.36 1240.59 137.41Z" fill="#C1145A"/>
<path fill-rule="evenodd" clip-rule="evenodd" d="M1239.05 137.37C1227.44 137.37 1218.05 153 1218.05 172.26C1218.05 187.26 1225.7 200.8 1231.85 207.14H1246.22C1252.37 200.8 1260.02 187.24 1260.02 172.26C1260.03 153 1250.65 137.37 1239.05 137.37Z" fill="#CC5692"/>
<path fill-rule="evenodd" clip-rule="evenodd" d="M1239.48 168.07C1237.67 171.992 1234.61 175.203 1230.78 177.2C1230.71 175.56 1230.68 173.92 1230.68 172.26C1230.68 161.44 1231.86 151.77 1233.68 145.37C1240.94 149.57 1243.52 159.44 1239.48 168.07Z" fill="white"/>
<path fill-rule="evenodd" clip-rule="evenodd" d="M1239.05 137.37C1237.05 137.37 1235.16 140.37 1233.71 145.37C1233.65 145.55 1233.6 145.75 1233.55 145.95C1233.5 146.15 1233.44 146.33 1233.39 146.52L1233.3 146.89C1233.22 147.197 1233.14 147.53 1233.06 147.89C1233.06 147.96 1233.06 148.03 1233.06 148.1C1232.96 148.49 1232.87 148.9 1232.79 149.31V149.37C1231.34 156.925 1230.64 164.607 1230.72 172.3C1230.72 172.97 1230.72 173.63 1230.72 174.3V174.8C1230.72 175.47 1230.72 176.13 1230.79 176.8C1230.79 176.93 1230.79 177.07 1230.79 177.21C1231.35 190.21 1234 201.52 1236.18 207.16H1241.91C1244.37 200.82 1247.42 187.26 1247.42 172.28C1247.42 153 1243.68 137.37 1239.05 137.37Z" fill="#C1145A"/>
<path fill-rule="evenodd" clip-rule="evenodd" d="M828.09 126.35V130.89C828.09 131.155 827.985 131.409 827.797 131.597C827.61 131.784 827.355 131.89 827.09 131.89H820.77C820.505 131.89 820.251 131.784 820.063 131.597C819.875 131.409 819.77 131.155 819.77 130.89V126.35H828.09Z" fill="#9873B5"/>
<path fill-rule="evenodd" clip-rule="evenodd" d="M819.71 123.8H828.09C828.237 123.803 828.377 123.863 828.479 123.967C828.582 124.072 828.64 124.213 828.64 124.36V125.8C828.64 125.946 828.582 126.086 828.479 126.189C828.376 126.292 828.236 126.35 828.09 126.35H819.71C819.563 126.35 819.422 126.292 819.318 126.19C819.213 126.087 819.153 125.947 819.15 125.8V124.31C819.15 124.161 819.209 124.019 819.314 123.914C819.419 123.809 819.561 123.75 819.71 123.75V123.8Z" fill="#9873B5"/>
<path fill-rule="evenodd" clip-rule="evenodd" d="M828.09 123.8H825.02C825.093 123.8 825.166 123.815 825.233 123.843C825.3 123.871 825.361 123.912 825.413 123.965C825.464 124.017 825.504 124.079 825.531 124.146C825.558 124.214 825.571 124.287 825.57 124.36V125.8C825.57 125.946 825.512 126.086 825.409 126.189C825.306 126.292 825.166 126.35 825.02 126.35H828.09C828.236 126.35 828.376 126.292 828.479 126.189C828.582 126.086 828.64 125.946 828.64 125.8V124.31C828.64 124.163 828.582 124.022 828.479 123.918C828.377 123.813 828.237 123.753 828.09 123.75V123.8Z" fill="#78479E"/>
<path fill-rule="evenodd" clip-rule="evenodd" d="M827.05 131.93C827.315 131.93 827.57 131.824 827.757 131.637C827.945 131.449 828.05 131.195 828.05 130.93V126.39H819.67V127.59H825.5V130.93C825.5 131.195 825.395 131.449 825.207 131.637C825.019 131.824 824.765 131.93 824.5 131.93H827.05Z" fill="#78479E"/>
<path fill-rule="evenodd" clip-rule="evenodd" d="M817.93 117.49H829.86V119.49C829.86 119.637 829.802 119.778 829.699 119.883C829.597 119.987 829.457 120.048 829.31 120.05H818.48C818.333 120.048 818.193 119.987 818.091 119.883C817.988 119.778 817.93 119.637 817.93 119.49V117.49Z" fill="#9873B5"/>
<path fill-rule="evenodd" clip-rule="evenodd" d="M829.86 117.49H825.33V119.49C825.33 119.637 825.272 119.778 825.169 119.883C825.067 119.987 824.927 120.048 824.78 120.05H829.31C829.457 120.048 829.597 119.987 829.699 119.883C829.802 119.778 829.86 119.637 829.86 119.49V117.49Z" fill="#78479E"/>
<path fill-rule="evenodd" clip-rule="evenodd" d="M824.62 82.6299H823.9H823.18C818.683 82.8132 814.432 84.7288 811.315 87.9758C808.199 91.2228 806.459 95.5493 806.46 100.05C806.46 107.54 812.81 114.32 817.93 117.49H829.86C834.99 114.32 841.34 107.54 841.34 100.05C841.341 95.5493 839.601 91.2228 836.485 87.9758C833.368 84.7288 829.117 82.8132 824.62 82.6299Z" fill="#CC5692"/>
<path fill-rule="evenodd" clip-rule="evenodd" d="M824.67 82.6299H823.9H823.13C815.13 83.0999 808.8 90.7199 808.8 100.05C808.8 107.54 814.3 114.32 818.73 117.49H829.06C833.5 114.32 839 107.54 839 100.05C839 90.7199 832.66 83.0999 824.67 82.6299Z" fill="#C1145A"/>
<path fill-rule="evenodd" clip-rule="evenodd" d="M823.9 82.6104C818.1 82.6104 813.41 90.4204 813.41 100.05C813.538 106.504 815.988 112.696 820.31 117.49H827.49C831.812 112.696 834.262 106.504 834.39 100.05C834.39 90.4204 829.7 82.6104 823.9 82.6104Z" fill="#CC5692"/>
<path fill-rule="evenodd" clip-rule="evenodd" d="M824.11 97.9596C823.209 99.9185 821.682 101.523 819.77 102.52C819.77 101.7 819.71 100.88 819.71 100.05C819.629 95.5192 820.14 90.9977 821.23 86.5996C824.84 88.6996 826.14 93.6396 824.11 97.9596Z" fill="white"/>
<path fill-rule="evenodd" clip-rule="evenodd" d="M823.9 82.6104C822.9 82.6104 821.9 84.1104 821.23 86.6104C821.23 86.7104 821.18 86.8104 821.15 86.9004L821.07 87.1904C821.058 87.2516 821.041 87.3117 821.02 87.3704C821.02 87.5304 820.95 87.6903 820.91 87.8503V87.9604C820.91 88.1604 820.82 88.3603 820.78 88.5703C820.069 92.3513 819.734 96.1934 819.78 100.04C819.78 100.37 819.78 100.71 819.78 101.04C819.785 101.13 819.785 101.22 819.78 101.31C819.78 101.64 819.78 101.97 819.78 102.31C819.775 102.38 819.775 102.45 819.78 102.52C819.938 107.626 820.848 112.68 822.48 117.52H825.34C827.216 111.899 828.149 106.006 828.1 100.08C828.09 90.4204 826.22 82.6104 823.9 82.6104Z" fill="#C1145A"/>
<path fill-rule="evenodd" clip-rule="evenodd" d="M1661.21 160.37V163.8C1661.21 164.009 1661.13 164.21 1660.98 164.358C1660.83 164.507 1660.63 164.59 1660.42 164.59H1655.61C1655.4 164.59 1655.2 164.507 1655.05 164.358C1654.9 164.21 1654.82 164.009 1654.82 163.8V160.34L1661.21 160.37Z" fill="#9873B5"/>
<path fill-rule="evenodd" clip-rule="evenodd" d="M1654.82 158.39H1661.21C1661.32 158.39 1661.43 158.434 1661.51 158.513C1661.59 158.592 1661.63 158.699 1661.63 158.81V159.95C1661.63 160.061 1661.59 160.168 1661.51 160.247C1661.43 160.326 1661.32 160.37 1661.21 160.37H1654.82C1654.71 160.37 1654.6 160.326 1654.52 160.247C1654.44 160.168 1654.4 160.061 1654.4 159.95V158.8C1654.4 158.689 1654.44 158.582 1654.52 158.503C1654.6 158.424 1654.71 158.38 1654.82 158.38V158.39Z" fill="#9873B5"/>
<path fill-rule="evenodd" clip-rule="evenodd" d="M1661.21 158.39H1658.87C1658.93 158.389 1658.98 158.398 1659.03 158.419C1659.09 158.439 1659.13 158.47 1659.17 158.509C1659.21 158.548 1659.25 158.595 1659.27 158.647C1659.29 158.698 1659.3 158.754 1659.3 158.81V159.95C1659.3 160.006 1659.29 160.061 1659.27 160.113C1659.25 160.165 1659.21 160.211 1659.17 160.25C1659.13 160.29 1659.09 160.32 1659.03 160.341C1658.98 160.361 1658.93 160.371 1658.87 160.37H1661.21C1661.32 160.37 1661.43 160.326 1661.51 160.247C1661.59 160.168 1661.63 160.061 1661.63 159.95V158.8C1661.63 158.689 1661.59 158.582 1661.51 158.503C1661.43 158.424 1661.32 158.38 1661.21 158.38V158.39Z" fill="#78479E"/>
<path fill-rule="evenodd" clip-rule="evenodd" d="M1660.42 164.62C1660.63 164.62 1660.83 164.537 1660.98 164.389C1661.13 164.241 1661.21 164.04 1661.21 163.83V160.37H1654.82V161.28H1659.27V163.8C1659.27 164.01 1659.19 164.211 1659.04 164.359C1658.89 164.507 1658.69 164.59 1658.48 164.59L1660.42 164.62Z" fill="#78479E"/>
<path fill-rule="evenodd" clip-rule="evenodd" d="M1653.47 153.61H1662.57V155.17C1662.57 155.282 1662.53 155.389 1662.45 155.467C1662.37 155.546 1662.26 155.59 1662.15 155.59H1653.89C1653.78 155.59 1653.67 155.546 1653.59 155.467C1653.51 155.389 1653.47 155.282 1653.47 155.17V153.61Z" fill="#9873B5"/>
<path fill-rule="evenodd" clip-rule="evenodd" d="M1662.57 153.61H1659.11V155.17C1659.11 155.282 1659.07 155.389 1658.99 155.467C1658.91 155.546 1658.8 155.59 1658.69 155.59H1662.15C1662.26 155.59 1662.37 155.546 1662.45 155.467C1662.53 155.389 1662.57 155.282 1662.57 155.17V153.61Z" fill="#78479E"/>
<path fill-rule="evenodd" clip-rule="evenodd" d="M1658.57 127.02H1658.02H1657.47C1654.04 127.159 1650.79 128.62 1648.42 131.097C1646.04 133.574 1644.71 136.875 1644.71 140.31C1644.71 146.02 1649.56 151.19 1653.47 153.61H1662.57C1666.47 151.19 1671.32 146.02 1671.32 140.31C1671.32 136.877 1669.99 133.577 1667.62 131.101C1665.24 128.624 1662 127.161 1658.57 127.02Z" fill="#CC5692"/>
<path fill-rule="evenodd" clip-rule="evenodd" d="M1658.61 127.02H1658.02H1657.43C1651.34 127.38 1646.5 133.19 1646.5 140.31C1646.5 146.02 1650.7 151.19 1654.08 153.61H1661.96C1665.34 151.19 1669.53 146.02 1669.53 140.31C1669.53 133.19 1664.7 127.38 1658.61 127.02Z" fill="#C1145A"/>
<path fill-rule="evenodd" clip-rule="evenodd" d="M1658.02 127C1653.59 127 1650.02 133 1650.02 140.31C1650.12 145.233 1651.99 149.955 1655.29 153.61H1660.77C1664.06 149.951 1665.93 145.231 1666.03 140.31C1666.02 132.96 1662.44 127 1658.02 127Z" fill="#CC5692"/>
<path fill-rule="evenodd" clip-rule="evenodd" d="M1658.18 138.71C1657.5 140.206 1656.33 141.431 1654.87 142.19C1654.87 141.57 1654.87 140.94 1654.87 140.31C1654.81 136.854 1655.19 133.405 1656.02 130.05C1658.77 131.65 1659.77 135.42 1658.18 138.71Z" fill="white"/>
<path fill-rule="evenodd" clip-rule="evenodd" d="M1658.02 127C1657.24 127 1656.53 128.15 1656.02 130.05L1655.96 130.27L1655.9 130.49V130.63L1655.81 131V131.08C1655.81 131.23 1655.74 131.39 1655.71 131.54C1655.16 134.423 1654.89 137.354 1654.92 140.29C1654.92 140.55 1654.92 140.8 1654.92 141.05C1654.91 141.12 1654.91 141.19 1654.92 141.26C1654.92 141.51 1654.92 141.76 1654.92 142.02C1654.91 142.07 1654.91 142.12 1654.92 142.17C1655.02 146.054 1655.7 149.902 1656.92 153.59H1659.11C1660.54 149.303 1661.25 144.809 1661.21 140.29C1661.21 132.96 1659.77 127 1658.02 127Z" fill="#C1145A"/>
<path fill-rule="evenodd" clip-rule="evenodd" d="M340.26 175.54V184.62C340.26 184.892 340.207 185.161 340.103 185.412C339.999 185.663 339.846 185.892 339.654 186.084C339.462 186.276 339.233 186.428 338.982 186.532C338.731 186.636 338.462 186.69 338.19 186.69H325.58C325.031 186.69 324.504 186.472 324.116 186.084C323.728 185.696 323.51 185.169 323.51 184.62V175.54H340.26Z" fill="#9873B5"/>
<path fill-rule="evenodd" clip-rule="evenodd" d="M323.51 170.35H340.26C340.554 170.35 340.837 170.467 341.045 170.675C341.253 170.883 341.37 171.165 341.37 171.46V174.46C341.37 174.754 341.253 175.036 341.045 175.245C340.837 175.453 340.554 175.57 340.26 175.57H323.51C323.216 175.57 322.933 175.453 322.725 175.245C322.517 175.036 322.4 174.754 322.4 174.46V171.46C322.4 171.165 322.517 170.883 322.725 170.675C322.933 170.467 323.216 170.35 323.51 170.35Z" fill="#9873B5"/>
<path fill-rule="evenodd" clip-rule="evenodd" d="M340.26 170.35H334.13C334.425 170.35 334.707 170.467 334.915 170.675C335.123 170.883 335.24 171.165 335.24 171.46V174.46C335.24 174.754 335.123 175.036 334.915 175.245C334.707 175.453 334.425 175.57 334.13 175.57H340.26C340.554 175.57 340.837 175.453 341.045 175.245C341.253 175.036 341.37 174.754 341.37 174.46V171.46C341.37 171.165 341.253 170.883 341.045 170.675C340.837 170.467 340.554 170.35 340.26 170.35Z" fill="#78479E"/>
<path fill-rule="evenodd" clip-rule="evenodd" d="M338.19 186.69C338.739 186.69 339.266 186.472 339.654 186.084C340.042 185.696 340.26 185.169 340.26 184.62V175.54H323.51V177.93H335.17V184.62C335.17 185.169 334.952 185.696 334.564 186.084C334.176 186.472 333.649 186.69 333.1 186.69H338.19Z" fill="#78479E"/>
<path fill-rule="evenodd" clip-rule="evenodd" d="M319.95 157.8H343.82V161.89C343.817 162.183 343.699 162.462 343.491 162.668C343.284 162.874 343.003 162.99 342.71 162.99H321.06C320.767 162.99 320.486 162.874 320.279 162.668C320.071 162.462 319.953 162.183 319.95 161.89V157.8Z" fill="#9873B5"/>
<path fill-rule="evenodd" clip-rule="evenodd" d="M343.82 157.8H334.77V161.89C334.767 162.183 334.649 162.462 334.441 162.668C334.234 162.874 333.953 162.99 333.66 162.99H342.73C343.023 162.99 343.304 162.874 343.511 162.668C343.719 162.462 343.837 162.183 343.84 161.89V157.8H343.82Z" fill="#78479E"/>
<path fill-rule="evenodd" clip-rule="evenodd" d="M333.34 88.09C332.85 88.09 332.34 88.09 331.89 88.09C331.44 88.09 330.89 88.09 330.44 88.09C321.446 88.4616 312.944 92.2957 306.712 98.7907C300.48 105.286 297 113.939 297 122.94C297 137.94 309.72 151.48 320 157.82H343.86C354.1 151.48 366.86 137.92 366.86 122.94C366.859 113.925 363.368 105.261 357.119 98.7639C350.87 92.2668 342.348 88.4415 333.34 88.09Z" fill="#CC5692"/>
<path fill-rule="evenodd" clip-rule="evenodd" d="M333.44 88.09C332.92 88.09 332.44 88.09 331.89 88.09C331.34 88.09 330.89 88.09 330.34 88.09C314.34 89.04 301.7 104.28 301.7 122.94C301.7 137.94 312.7 151.48 321.56 157.82H342.22C351.09 151.48 362.08 137.92 362.08 122.94C362.08 104.28 349.41 89.04 333.44 88.09Z" fill="#C1145A"/>
<path fill-rule="evenodd" clip-rule="evenodd" d="M331.89 88.05C320.29 88.05 310.89 103.68 310.89 122.94C310.89 137.94 318.54 151.48 324.69 157.82H339.07C345.22 151.48 352.87 137.92 352.87 122.94C352.88 103.68 343.49 88.05 331.89 88.05Z" fill="#CC5692"/>
<path fill-rule="evenodd" clip-rule="evenodd" d="M332.32 118.8C330.513 122.719 327.457 125.926 323.63 127.92C323.55 126.29 323.52 124.65 323.52 122.99C323.52 112.17 324.7 102.49 326.52 96.09C333.77 100.24 336.36 110.12 332.32 118.8Z" fill="white"/>
<path fill-rule="evenodd" clip-rule="evenodd" d="M331.89 88.05C329.89 88.05 328 91.05 326.55 96.05C326.5 96.24 326.44 96.44 326.39 96.64C326.34 96.84 326.28 97.0201 326.23 97.2101L326.14 97.58C326.06 97.89 325.98 98.21 325.91 98.58C325.906 98.6467 325.906 98.7134 325.91 98.7801L325.64 100V100.06C324.188 107.615 323.495 115.297 323.57 122.99C323.57 123.66 323.57 124.32 323.57 124.99C323.57 125.17 323.57 125.34 323.57 125.52C323.57 126.19 323.57 126.85 323.63 127.52C323.63 127.66 323.63 127.8 323.63 127.93C324.19 140.93 326.84 152.24 329.02 157.88H334.77C337.22 151.54 340.27 137.98 340.27 123C340.26 103.68 336.52 88.05 331.89 88.05Z" fill="#C1145A"/>
</g>
</g>
<defs>
<clipPath id="clip0_0_636">
<rect width="1920" height="219" fill="white"/>
</clipPath>
<clipPath id="clip1_0_636">
<rect width="1374.32" height="289.01" fill="white" transform="translate(297 -53)"/>
</clipPath>
</defs>
</svg>
