<svg width="375" height="105" viewBox="0 0 375 105" fill="none" xmlns="http://www.w3.org/2000/svg">
    <g clip-path="url(#655k70bb2a)">
        <path d="M761.741 81.216c-16.659 0-22.598 36.813-41.507 36.813-20.13 0-48.486-84.438-76.344-84.438-28.903 0-45.164 81.715-72.765 81.715-16.026 0-34.891-43.14-55.834-43.14-21.242 0-36.934 58.263-63.586 58.263-12.157 0-17.418-11.112-29.951-11.112-17.291 0-29.291 24.051-42.14 61.279-9.08 26.298 7.616 34.447 33.314 34.447 33.318 0 352.736-1.171 420.543-1.171 42.741 0 64.041-9.117 61.303-24.421-2.617-14.644-12.149-31.987-17.627-41.312-15.61-26.655-23.402-36.912-34.271-36.912-12 0-15.941 16.669-29.983 16.669-18.213-.004-33.205-46.68-51.152-46.68z" fill="#34085E"/>
        <path d="M360.171 67.21c-22.073 0-29.955 48.77-54.998 48.77-26.665 0-64.241-111.87-101.152-111.87-38.294 0-59.838 108.266-96.415 108.266-21.242 0-46.23-57.155-73.985-57.155-28.166 0-48.928 77.198-84.244 77.198-16.108 0-23.081-14.725-39.686-14.725-22.914 0-38.809 31.865-55.834 81.191-12.031 34.845 10.087 45.644 44.142 45.644 44.142 0 467.365-1.555 557.205-1.555 56.634 0 84.854-12.075 81.229-32.363-3.466-19.401-16.098-42.384-23.334-54.721-20.682-35.315-31.004-48.905-45.404-48.905-15.904 0-21.128 22.087-39.731 22.087-24.17-.018-44.056-61.862-67.793-61.862z" fill="#34085E"/>
        <path d="M360.171 67.21c-9.866 0-2.965 12.816 9.704 22.092 20.686 15.141 28.992 30.051 15.167 29.233-20.79-1.235-.235 21.255 17.238 34.13 20.003 14.734 24.116 9.045 21.757-4.631-1.207-6.991 4.836-10.582 8.266-13.115 3.277-2.415 3.001-5.879-4.339-5.879-24.17.014-44.056-61.83-67.793-61.83zM305.173 115.98c-26.665 0-64.241-111.87-101.152-111.87-17.933 0 2.866 16.732 19.687 29.024 7.042 5.156 6.513 13.115-3.575 16.407-13.106 4.306-9.879 13.568 4.972 23.137 17.007 10.958 32.767 20.003 31.46 29.242-1.283 9.045-11.109 6.729-11.75 14.512-.579 7.141 21.178 13.884 27.957 35.533 4.425 14.137 17.342 10.958 18.079 0 .474-7.096 2.024-13.527 11.945-18.94 11.511-6.259 15.714-17.045 2.377-17.045zM107.606 112.375c-21.242 0-46.23-57.154-73.985-57.154-5.83 0-3.855 5.649 4.89 10.831 11.353 6.734 20.532 17.145 6.725 17.145-10.928 0-7.94 7.977-3.046 10.94 11.516 6.964 29.377 11.138 27.854 17.09-1.157 4.572-19.551 6.467-4.312 20.979 14.824 14.119 48.59 28.876 44.965 8.593-3.471-19.406 33.485-28.424-3.091-28.424z" fill="#4A0091"/>
        <path d="M320.39 106.881c-3.331-2.714-10.363-6.97-19.375-6.734-7.385.194-9.36 2.288-13.292 2.053-5.527-.335-8.212-10.402-21.445-2.88-7.543 4.291-8.533-1.873-15.335-5.428-10.395-5.427-18.865 3.88-23.149 12.993l92.596-.004zM148.069 106.881c-11.85-12.73-25.901-1.167-33.634-7.236-16.605-13.038-21.694-10.306-29.142-6.544-11.15 5.617-10.847-10.22-21.378-12.21-8.243-1.56-12.654 9.66-19.583 12.974-8.926 4.283-10.702-8.651-18.738-6.358-6.173 1.76-11.597 15.516-14.214 19.374H148.07zM354.355 106.881c-1.415-2.384-5.424-4.817-10.572-4.817-5.147 0-9.983 2.433-12.202 4.817h22.774z" fill="#B178F4"/>
        <g clip-path="url(#tto358z1sb)" fill-rule="evenodd" clip-rule="evenodd">
            <path d="M347.827 44.817v2.95a.648.648 0 0 1-.649.649h-4.105a.65.65 0 0 1-.65-.65v-2.949h5.404z" fill="#9873B5"/>
            <path d="M342.384 43.16h5.443a.363.363 0 0 1 .357.365v.935a.357.357 0 0 1-.357.357h-5.443a.362.362 0 0 1-.363-.357v-.968a.364.364 0 0 1 .363-.364v.033z" fill="#9873B5"/>
            <path d="M347.827 43.16h-1.994a.36.36 0 0 1 .332.226.347.347 0 0 1 .025.139v.935a.357.357 0 0 1-.357.357h1.994a.358.358 0 0 0 .357-.357v-.968a.363.363 0 0 0-.357-.364v.033zM347.152 48.441a.65.65 0 0 0 .649-.65v-2.948h-5.443v.78h3.787v2.169a.653.653 0 0 1-.65.65h1.657z" fill="#78479E"/>
            <path d="M341.228 39.062h7.749v1.3a.364.364 0 0 1-.357.363h-7.034a.363.363 0 0 1-.358-.364v-1.299z" fill="#9873B5"/>
            <path d="M348.977 39.062h-2.942v1.3a.364.364 0 0 1-.358.363h2.943a.364.364 0 0 0 .357-.364v-1.299z" fill="#78479E"/>
            <path d="M345.573 16.418h-.935a11.319 11.319 0 0 0-10.859 11.315c0 4.866 4.124 9.27 7.449 11.329h7.749c3.332-2.06 7.456-6.463 7.456-11.329a11.319 11.319 0 0 0-10.86-11.316z" fill="#CC5692"/>
            <path d="M345.606 16.418h-1c-5.196.305-9.307 5.255-9.307 11.315 0 4.866 3.572 9.27 6.449 11.329h6.709c2.884-2.06 6.456-6.463 6.456-11.329 0-6.06-4.118-11.01-9.307-11.315z" fill="#C1145A"/>
            <path d="M345.106 16.405c-3.767 0-6.813 5.073-6.813 11.329a17.437 17.437 0 0 0 4.481 11.328h4.663a17.433 17.433 0 0 0 4.482-11.328c0-6.256-3.046-11.329-6.813-11.329z" fill="#CC5692"/>
            <path d="M345.242 26.376a6.32 6.32 0 0 1-2.818 2.962c0-.533-.039-1.066-.039-1.605a33.79 33.79 0 0 1 .987-8.736c2.344 1.364 3.189 4.573 1.87 7.379z" fill="#fff"/>
            <path d="M345.106 16.405c-.65 0-1.299.974-1.734 2.598 0 .065-.033.13-.052.189l-.052.188a.791.791 0 0 1-.033.117c0 .104-.045.208-.071.312v.071c0 .13-.059.26-.085.397a37.92 37.92 0 0 0-.649 7.45v.65a1.71 1.71 0 0 1 0 .175v.65a1.035 1.035 0 0 0 0 .136c.103 3.317.694 6.6 1.754 9.744h1.857a34.914 34.914 0 0 0 1.793-11.329c-.007-6.275-1.221-11.348-2.728-11.348z" fill="#C1145A"/>
            <path d="M30.992 76.77v5.898a1.344 1.344 0 0 1-1.345 1.344h-8.19a1.345 1.345 0 0 1-1.344-1.344V76.77h10.879z" fill="#9873B5"/>
            <path d="M20.113 73.398h10.879a.721.721 0 0 1 .72.721v1.949a.721.721 0 0 1-.72.721H20.113a.721.721 0 0 1-.721-.721v-1.949a.721.721 0 0 1 .721-.72z" fill="#9873B5"/>
            <path d="M30.992 73.398H27.01a.72.72 0 0 1 .721.721v1.949a.721.721 0 0 1-.72.721h3.98a.721.721 0 0 0 .722-.721v-1.949a.721.721 0 0 0-.721-.72z" fill="#78479E"/>
            <path d="M29.647 84.013a1.345 1.345 0 0 0 1.345-1.345V76.77h-10.88v1.552h7.574v4.346a1.345 1.345 0 0 1-1.345 1.344h3.306z" fill="#78479E"/>
            <path d="M17.8 65.246h15.504v2.657a.72.72 0 0 1-.721.715H18.522a.721.721 0 0 1-.721-.715v-2.657z" fill="#9873B5"/>
            <path d="M33.304 65.246h-5.878v2.657a.72.72 0 0 1-.72.715h5.89a.721.721 0 0 0 .72-.715v-2.657h-.012z" fill="#78479E"/>
            <path d="M26.497 19.965h-1.883A22.653 22.653 0 0 0 2.895 42.602c0 9.744 8.262 18.539 14.938 22.657H33.33c6.65-4.118 14.938-12.926 14.938-22.657a22.659 22.659 0 0 0-21.77-22.637z" fill="#CC5692"/>
            <path d="M26.562 19.965H24.55C14.157 20.582 5.948 30.48 5.948 42.602c0 9.744 7.144 18.539 12.898 22.657h13.419c5.76-4.118 12.898-12.926 12.898-22.657 0-12.12-8.229-22.02-18.6-22.637z" fill="#C1145A"/>
            <path d="M25.556 19.939c-7.534 0-13.64 10.152-13.64 22.663 0 9.744 4.969 18.539 8.963 22.657h9.34c3.994-4.118 8.963-12.926 8.963-22.657.006-12.51-6.092-22.663-13.626-22.663z" fill="#CC5692"/>
            <path d="M25.835 39.913a12.653 12.653 0 0 1-5.644 5.924 65.376 65.376 0 0 1-.072-3.202c0-7.029.767-13.316 1.949-17.474 4.709 2.696 6.39 9.114 3.767 14.752z" fill="#fff"/>
            <path d="M25.556 19.939c-1.3 0-2.527 1.948-3.469 5.196-.032.124-.071.253-.104.383-.032.13-.071.247-.104.37l-.058.241c-.052.201-.104.41-.15.65a1.281 1.281 0 0 0 0 .13l-.175.792v.039a75.044 75.044 0 0 0-1.344 14.895V44.278c0 .435 0 .864.039 1.3v.266c.364 8.444 2.085 15.79 3.5 19.454h3.735c1.591-4.118 3.572-12.926 3.572-22.657-.006-12.55-2.435-22.702-5.442-22.702z" fill="#C1145A"/>
        </g>
    </g>
    <defs>
        <clipPath id="655k70bb2a">
            <path fill="#fff" transform="translate(-34)" d="M0 0h712v105H0z"/>
        </clipPath>
        <clipPath id="tto358z1sb">
            <path fill="#fff" transform="translate(2.895 -71.684)" d="M0 0h892.592v187.733H0z"/>
        </clipPath>
    </defs>
</svg>
