<?xml version="1.0" encoding="UTF-8"?>
<svg width="80px" height="80px" viewBox="0 0 80 80" version="1.1" xmlns="http://www.w3.org/2000/svg" xmlns:xlink="http://www.w3.org/1999/xlink">
    <!-- Generator: Sketch 52.4 (67378) - http://www.bohemiancoding.com/sketch -->
    <title>Group 3 Copy 3</title>
    <desc>Created with Sketch.</desc>
    <defs>
        <polygon id="path-1" points="0 -4.49427567e-15 80 -4.49427567e-15 80 80 0 80"></polygon>
    </defs>
    <g id="Page-1" stroke="none" stroke-width="1" fill="none" fill-rule="evenodd">
        <g id="Apple-TV" transform="translate(-622.000000, -2326.000000)">
            <g id="Group-3-Copy-3" transform="translate(622.000000, 2326.000000)">
                <mask id="mask-2" fill="white">
                    <use xlink:href="#path-1"></use>
                </mask>
                <g id="Clip-2"></g>
                <path d="M38.2547023,1.2658385 C38.2547023,0.582733629 38.8113063,0.000829478752 39.5197113,0.000829478752 C40.2028162,-0.0244707017 40.7847203,0.532133268 40.7847203,1.24053832 C40.7847203,1.94894337 40.2281164,2.50554734 39.5450115,2.53084752 L39.5197113,2.53084752 C38.8366064,2.53084752 38.2547023,1.97424355 38.2547023,1.2658385 M49.2349806,3.66935564 C48.5518757,3.49225438 48.1470728,2.80914951 48.3241741,2.12604463 C48.4759752,1.44293976 49.1843802,1.03813688 49.8421849,1.21523814 C50.5252898,1.3923394 50.9300927,2.07544427 50.7782916,2.75854915 C50.6264905,3.31515312 50.0951867,3.69465582 49.5385828,3.69465582 C49.437382,3.69465582 49.3361813,3.69465582 49.2349806,3.66935564 M28.3117314,3.01155095 C28.1346301,2.35374626 28.5141328,1.64534121 29.1972377,1.46823994 C29.8803426,1.2658385 30.5634474,1.67064139 30.7658489,2.35374626 C30.9429501,3.01155095 30.5381473,3.719956 29.8803426,3.89705727 C29.7538417,3.92235745 29.6526409,3.94765763 29.52614,3.94765763 C28.9695361,3.94765763 28.4635325,3.56815492 28.3117314,3.01155095 M58.2924452,7.28728144 C57.6852409,6.93307892 57.4575392,6.1740735 57.8117418,5.56686917 C58.1406441,4.95966484 58.9249497,4.73196322 59.532154,5.08616575 C60.1393584,5.41506809 60.36706,6.19937368 60.0128575,6.80657801 C59.7851558,7.2113809 59.3550528,7.43908253 58.9249497,7.43908253 C58.6972481,7.43908253 58.4948466,7.38848216 58.2924452,7.28728144 M19.1783662,7.28728144 C18.8241637,6.68007711 19.001265,5.9210717 19.6084693,5.56686917 C20.2156736,5.21266665 20.9999792,5.38976791 21.3541818,5.99697224 C21.7083843,6.60417657 21.5059828,7.38848216 20.8987785,7.74268469 C20.6963771,7.84388541 20.4939756,7.91978595 20.266274,7.91978595 C19.8361709,7.91978595 19.4060679,7.69208433 19.1783662,7.28728144 M66.1102009,13.1316231 C65.6041973,12.6509197 65.6041973,11.8413139 66.0849008,11.3353103 C66.5656042,10.8293067 67.37521,10.8293067 67.8812136,11.3100101 C68.3872172,11.7907136 68.3872172,12.6003193 67.9065138,13.1063229 C67.6535119,13.3593247 67.3246096,13.4858256 66.9957073,13.4858256 C66.6668049,13.4858256 66.3632027,13.3593247 66.1102009,13.1316231 M11.436511,13.7894278 C10.9305074,13.2834242 10.9305074,12.4738184 11.4112109,11.993115 C11.9172145,11.4871114 12.7015201,11.4871114 13.2075237,11.9678148 C13.7135273,12.4485183 13.7135273,13.258124 13.2328238,13.7641276 C12.979822,14.0171294 12.6509197,14.1436303 12.3220173,14.1436303 C12.0184152,14.1436303 11.6895128,14.0171294 11.436511,13.7894278 M72.1822442,20.7722776 C71.8027415,20.1650733 72.005143,19.4060679 72.6123473,19.0265652 C73.2195516,18.6723626 73.9785571,18.8747641 74.3327596,19.4819684 C74.7122623,20.0638726 74.5098608,20.8481782 73.9026565,21.2023807 C73.7002551,21.3288816 73.4725534,21.4047821 73.2448518,21.4047821 C72.8400489,21.4047821 72.4099459,21.1770805 72.1822442,20.7722776 M5.61746953,22.0372866 C5.03556538,21.6830841 4.80786376,20.9240787 5.16206629,20.3168744 C5.49096863,19.70967 6.27527423,19.4819684 6.88247856,19.8361709 C7.48968289,20.1650733 7.69208433,20.9493789 7.36318198,21.5565832 C7.11018018,21.9613861 6.68007711,22.2143879 6.24997405,22.2143879 C6.0475726,22.2143879 5.81987098,22.1384874 5.61746953,22.0372866 M76.0531719,29.7285415 C75.8507704,29.0707368 76.2555733,28.3623317 76.913378,28.1599303 C77.5964829,27.982829 78.2795877,28.3623317 78.4819892,29.0454366 C78.6590904,29.7032413 78.2795877,30.4116464 77.5964829,30.6140478 C77.4952821,30.639348 77.3687812,30.6646482 77.2675805,30.6646482 C76.7109765,30.6646482 76.2049729,30.2851455 76.0531719,29.7285415 M2.15134482,31.5248543 C1.49354012,31.347753 1.06343706,30.6646482 1.24053832,29.9815433 C1.41763958,29.2984384 2.12604463,28.8936355 2.78384933,29.0707368 C3.4669542,29.2478381 3.87175708,29.9309429 3.69465582,30.6140478 C3.54285474,31.1706518 3.03685113,31.5501545 2.48024716,31.5501545 C2.37904644,31.5501545 2.27784572,31.5501545 2.15134482,31.5248543 M77.469982,40.0004147 C77.469982,39.899214 77.469982,39.7980133 77.4952821,39.6968126 C77.469982,39.5956119 77.469982,39.4944111 77.469982,39.3932104 C77.4446818,38.6848054 78.0012857,38.1029012 78.7096908,38.1029012 C79.3927957,38.1029012 79.9746998,38.6595052 80,39.34261 C80,39.469111 79.9746998,39.5703117 79.9493996,39.6715124 C79.9746998,39.7727131 80,39.8739138 80,40.0004147 C80,40.6835196 79.4180959,41.2654238 78.734991,41.2654238 C78.0265859,41.2654238 77.469982,40.6835196 77.469982,40.0004147 M0.000829478752,40.3040169 C-0.0244707017,39.620912 0.532133268,39.0390079 1.24053832,39.0390079 C1.94894337,39.0390079 2.50554734,39.5956119 2.50554734,40.3040169 C2.53084752,40.9871218 1.94894337,41.5690259 1.2658385,41.5690259 L1.24053832,41.5690259 C0.557433448,41.5690259 0.000829478752,41.012422 0.000829478752,40.3040169 M77.0904793,51.2083947 C76.4326746,51.0312934 76.0278717,50.3481885 76.2049729,49.6650837 C76.3820742,49.007279 77.0904793,48.6024761 77.7482839,48.7795773 C78.4313888,48.9566786 78.8361917,49.6397835 78.6590904,50.3228884 C78.5072894,50.8794923 77.9759856,51.258995 77.4193816,51.258995 C77.3181809,51.258995 77.2169802,51.258995 77.0904793,51.2083947 M1.41763958,50.6264905 C1.24053832,49.9686858 1.62004103,49.2602808 2.3031459,49.0831795 C2.96095059,48.9060783 3.66935564,49.285581 3.8464569,49.9686858 C4.04885835,50.6264905 3.64405546,51.3348956 2.96095059,51.5119968 C2.85974987,51.537297 2.75854915,51.5625972 2.63204824,51.5625972 C2.07544427,51.5625972 1.56944067,51.2083947 1.41763958,50.6264905 M72.9412497,60.4176603 C72.3340453,60.0634578 72.1316439,59.3044524 72.4858464,58.6972481 C72.8400489,58.0900437 73.5990544,57.8876423 74.2062587,58.2165446 C74.813463,58.5707472 75.0158645,59.3550528 74.6616619,59.9622571 C74.4339603,60.36706 74.0038572,60.5947616 73.5737542,60.5947616 C73.3713527,60.5947616 73.1436511,60.5188611 72.9412497,60.4176603 M5.46566845,60.2405591 C5.11146593,59.6333548 5.31386737,58.8490492 5.9210717,58.4948466 C6.52827603,58.1406441 7.31258162,58.3430456 7.66678415,58.9502499 C7.99568649,59.5574542 7.81858523,60.3164596 7.2113809,60.6706622 C7.00897946,60.7971631 6.78127783,60.8477634 6.57887639,60.8477634 C6.12347314,60.8477634 5.71867026,60.6200618 5.46566845,60.2405591 M66.540304,68.2354161 C66.0596006,67.7294125 66.0596006,66.9451069 66.540304,66.4391033 C67.0463076,65.9330997 67.8306132,65.9330997 68.3366168,66.4391033 C68.8173202,66.9451069 68.8173202,67.7294125 68.3366168,68.2354161 C68.083615,68.4631177 67.7547127,68.5896186 67.4258103,68.5896186 C67.1222082,68.5896186 66.7933058,68.4631177 66.540304,68.2354161 M11.8666141,68.4378175 C11.3859107,67.9571141 11.3606105,67.1475083 11.8666141,66.6668049 C12.3473175,66.1608013 13.1569233,66.1608013 13.6629269,66.6415047 C14.1436303,67.1475083 14.1436303,67.9318139 13.6629269,68.4378175 C13.4099251,68.6908193 13.0810228,68.8173202 12.7521204,68.8173202 C12.4485183,68.8173202 12.1196159,68.6908193 11.8666141,68.4378175 M58.3683457,74.1303581 C58.0141432,73.5231538 58.2165446,72.7641484 58.823749,72.4099459 C59.4309533,72.0557433 60.1899587,72.2581448 60.5441612,72.8653491 C60.8983638,73.4725534 60.6959623,74.2315589 60.088758,74.5857614 C59.8863566,74.7122623 59.6586549,74.7628627 59.4562535,74.7628627 C59.0261504,74.7628627 58.5960474,74.535161 58.3683457,74.1303581 M20.1650733,74.7628627 C19.557869,74.4086601 19.3554675,73.6243545 19.70967,73.0171502 C20.0385724,72.4099459 20.822878,72.2075444 21.4300823,72.561747 C22.0372866,72.8906493 22.2396881,73.6749549 21.8854856,74.2821592 C21.6577839,74.6869621 21.2276809,74.9146637 20.7975778,74.9146637 C20.5951763,74.9146637 20.3674747,74.8640634 20.1650733,74.7628627 M48.9313784,77.7229838 C48.7542772,77.0398789 49.1337799,76.356774 49.8168847,76.1796728 C50.4746894,75.9772713 51.1830945,76.3820742 51.3601958,77.0651791 C51.537297,77.7229838 51.1577943,78.4313888 50.4746894,78.6084901 C50.3734887,78.6337903 50.2469878,78.6590904 50.1457871,78.6590904 C49.5891831,78.6590904 49.0831795,78.2795877 48.9313784,77.7229838 M29.8297422,78.6843906 C29.1466373,78.5072894 28.7418344,77.8241845 28.9189357,77.1410796 C29.096037,76.4579747 29.7791418,76.078472 30.4622467,76.2555733 C31.1453516,76.4073744 31.5501545,77.1157794 31.3730532,77.7988843 C31.2212521,78.3554883 30.7152485,78.734991 30.1333444,78.734991 C30.0321436,78.734991 29.9309429,78.7096908 29.8297422,78.6843906 M38.8872068,78.734991 C38.8872068,78.0518861 39.4438108,77.469982 40.1522158,77.469982 C40.8353207,77.469982 41.4172248,78.0265859 41.4172248,78.734991 C41.4172248,79.4180959 40.8606209,80 40.1522158,80 C39.4438108,80 38.8872068,79.443396 38.8872068,78.734991" id="Fill-1" fill="#FEFEFE" mask="url(#mask-2)"></path>
            </g>
        </g>
    </g>
</svg>