<svg width="150" height="30" viewBox="0 0 150 30" fill="none" xmlns="http://www.w3.org/2000/svg">
    <path d="M13.125 9.375V7.5H1.875A1.878 1.878 0 0 0 0 9.375v3.75h13.52c-.26-1.146-.395-2.38-.395-3.75zM29.923 16.875c-1.279 1.97-3.229 3.646-6.022 5.251a2.823 2.823 0 0 1-2.796.004c-2.794-1.609-4.744-3.287-6.024-5.255H0v9.375c0 1.035.842 1.875 1.875 1.875h26.25c1.035 0 1.875-.84 1.875-1.875v-9.375h-.077zM8.438 22.5h-3.75a.938.938 0 0 1 0-1.875h3.75a.938.938 0 0 1 0 1.875z" fill="#fff"/>
    <path d="M29.432 4.764 22.869 1.95a.941.941 0 0 0-.74 0l-6.563 2.813a.935.935 0 0 0-.566.86v3.75c0 5.159 1.907 8.174 7.033 11.127a.94.94 0 0 0 .934 0C28.093 17.555 30 14.54 30 9.375v-3.75a.934.934 0 0 0-.568-.861zm-3.386 4.26-3.75 4.687a.948.948 0 0 1-.733.351h-.04a.941.941 0 0 1-.74-.416l-1.876-2.813a.937.937 0 1 1 1.56-1.038l1.165 1.745 2.947-3.686a.937.937 0 0 1 1.466 1.17zM47.807 17.765c-.893-.875-1.339-1.985-1.339-3.328 0-1.343.446-2.453 1.339-3.328.901-.875 2.002-1.313 3.302-1.313.988 0 1.863.251 2.626.754.771.503 1.322 1.209 1.651 2.119h-2.197c-.407-.797-1.1-1.196-2.08-1.196-.823 0-1.495.273-2.015.819-.511.537-.767 1.257-.767 2.158 0 .893.256 1.612.767 2.158.52.537 1.153.806 1.898.806.754 0 1.343-.182 1.768-.546.433-.373.702-.871.806-1.495H50.55v-1.391h4.979v1.391c-.156.988-.641 1.855-1.456 2.6-.815.737-1.842 1.105-3.081 1.105-1.23 0-2.292-.438-3.185-1.313zm14.125-5.967h1.833V19h-1.833v-1.092c-.46.789-1.209 1.183-2.249 1.183-.815 0-1.482-.269-2.002-.806-.52-.546-.78-1.3-.78-2.262v-4.225h1.82v3.965c0 .563.143.997.43 1.3.285.303.675.455 1.17.455.493 0 .883-.152 1.17-.455.294-.303.441-.737.441-1.3v-3.965zm-2.158-1.105a.83.83 0 0 1-.61.247.83.83 0 0 1-.612-.247.83.83 0 0 1-.247-.611.83.83 0 0 1 .247-.611.83.83 0 0 1 .611-.247.83.83 0 0 1 .611.247.83.83 0 0 1 .247.611.83.83 0 0 1-.247.611zm2.405 0a.83.83 0 0 1-.61.247.83.83 0 0 1-.612-.247.83.83 0 0 1-.247-.611.83.83 0 0 1 .247-.611.83.83 0 0 1 .611-.247.83.83 0 0 1 .611.247.83.83 0 0 1 .247.611.83.83 0 0 1-.247.611zm2.65 1.105h1.95l1.86 5.629 1.845-5.629h1.95L69.782 19h-2.3l-2.653-7.202zm11.709 7.306c-1.05 0-1.903-.338-2.561-1.014-.66-.685-.989-1.586-.989-2.704s.33-2.01.989-2.678c.667-.676 1.525-1.014 2.573-1.014 1.058 0 1.925.33 2.6.988.676.65 1.014 1.521 1.014 2.613 0 .251-.017.485-.052.702h-5.251c.043.468.216.845.52 1.131.303.286.689.429 1.156.429.633 0 1.101-.26 1.404-.78h1.977a3.161 3.161 0 0 1-1.21 1.677c-.597.433-1.321.65-2.17.65zm1.728-4.29c-.026-.477-.203-.858-.532-1.144a1.696 1.696 0 0 0-1.17-.429c-.46 0-.845.143-1.157.429-.304.286-.486.667-.546 1.144h3.405zm5.175-3.016v1.079c.46-.789 1.204-1.183 2.236-1.183.823 0 1.495.273 2.015.819.52.537.78 1.287.78 2.249V19h-1.82v-3.978c0-.563-.143-.992-.43-1.287-.285-.303-.675-.455-1.17-.455-.493 0-.888.152-1.182.455-.286.295-.43.724-.43 1.287V19h-1.832v-7.202h1.833zM90.355 19V9.38h1.833V19h-1.833zm5.811-9.035c0 .312-.108.576-.325.793a1.079 1.079 0 0 1-.793.325c-.303 0-.563-.108-.78-.325a1.079 1.079 0 0 1-.325-.793c0-.312.108-.576.325-.793.217-.217.477-.325.78-.325.312 0 .576.108.793.325.217.217.325.481.325.793zM94.138 19v-7.202h1.833V19h-1.833zm13.817-2.392c.511-.546.767-1.27.767-2.171 0-.901-.256-1.62-.767-2.158-.512-.537-1.179-.806-2.002-.806-.824 0-1.495.273-2.015.819-.512.537-.767 1.257-.767 2.158 0 .893.255 1.612.767 2.158.52.537 1.191.806 2.015.806.823 0 1.49-.269 2.002-.806zm-2.002 2.483c-1.309 0-2.41-.438-3.302-1.313-.893-.875-1.339-1.985-1.339-3.328 0-1.352.446-2.466 1.339-3.341.901-.875 2.002-1.313 3.302-1.313 1.308 0 2.409.438 3.302 1.313.892.875 1.339 1.989 1.339 3.341 0 1.343-.447 2.453-1.339 3.328-.893.875-1.994 1.313-3.302 1.313zm1.807-10.283a.832.832 0 0 1-.611.247.828.828 0 0 1-.611-.247.829.829 0 0 1-.247-.611c0-.243.082-.446.247-.611a.828.828 0 0 1 .611-.247c.242 0 .446.082.611.247a.833.833 0 0 1 .247.611.833.833 0 0 1-.247.611zm-2.405 0a.832.832 0 0 1-.611.247.828.828 0 0 1-.611-.247.829.829 0 0 1-.247-.611c0-.243.082-.446.247-.611a.828.828 0 0 1 .611-.247c.242 0 .446.082.611.247a.833.833 0 0 1 .247.611.833.833 0 0 1-.247.611zm11.272 8.151c.382-.381.572-.901.572-1.56s-.19-1.174-.572-1.547c-.381-.381-.827-.572-1.339-.572-.511 0-.957.186-1.339.559-.372.373-.559.888-.559 1.547 0 .659.191 1.179.572 1.56.382.381.824.572 1.326.572.512 0 .958-.186 1.339-.559zm-4.134 1.105c-.641-.702-.962-1.595-.962-2.678s.321-1.967.962-2.652c.642-.693 1.456-1.04 2.444-1.04s1.742.407 2.262 1.222V9.38h1.82V19h-1.82v-1.209c-.546.875-1.304 1.313-2.275 1.313-.97 0-1.781-.347-2.431-1.04zm11.512 1.04c-1.048 0-1.902-.338-2.561-1.014-.658-.685-.988-1.586-.988-2.704s.33-2.01.988-2.678c.668-.676 1.526-1.014 2.574-1.014 1.058 0 1.924.33 2.6.988.676.65 1.014 1.521 1.014 2.613 0 .251-.017.485-.052.702h-5.252c.044.468.217.845.52 1.131.304.286.689.429 1.157.429.633 0 1.101-.26 1.404-.78h1.976a3.161 3.161 0 0 1-1.209 1.677c-.598.433-1.321.65-2.171.65zm1.729-4.29c-.026-.477-.203-.858-.533-1.144a1.693 1.693 0 0 0-1.17-.429c-.459 0-.845.143-1.157.429-.303.286-.485.667-.546 1.144h3.406zm5.175-3.016v1.079c.459-.789 1.204-1.183 2.236-1.183.546 0 1.031.126 1.456.377.433.251.767.611 1.001 1.079.251-.45.593-.806 1.027-1.066.442-.26.936-.39 1.482-.39.858 0 1.547.269 2.067.806.528.537.793 1.291.793 2.262V19h-1.82v-3.978c0-.563-.143-.992-.429-1.287-.286-.303-.676-.455-1.17-.455-.494 0-.889.152-1.183.455-.286.295-.429.724-.429 1.287V19h-1.82v-3.978c0-.563-.143-.992-.429-1.287-.286-.303-.676-.455-1.17-.455-.494 0-.889.152-1.183.455-.286.295-.429.724-.429 1.287V19h-1.833v-7.202h1.833zm14.983 7.306c-1.049 0-1.902-.338-2.561-1.014-.659-.685-.988-1.586-.988-2.704s.329-2.01.988-2.678c.667-.676 1.525-1.014 2.574-1.014 1.057 0 1.924.33 2.6.988.676.65 1.014 1.521 1.014 2.613 0 .251-.017.485-.052.702h-5.252c.043.468.217.845.52 1.131.303.286.689.429 1.157.429.633 0 1.101-.26 1.404-.78h1.976a3.161 3.161 0 0 1-1.209 1.677c-.598.433-1.322.65-2.171.65zm1.729-4.29c-.026-.477-.204-.858-.533-1.144a1.697 1.697 0 0 0-1.17-.429c-.459 0-.845.143-1.157.429-.303.286-.485.667-.546 1.144h3.406z" fill="#fff"/>
</svg>
