<svg width="30" height="30" viewBox="0 0 30 30" fill="none" xmlns="http://www.w3.org/2000/svg">
    <path d="M13.444 6.22 4.711 21.346a1.797 1.797 0 0 0 1.556 2.695h17.465a1.797 1.797 0 0 0 1.556-2.695L16.556 6.22a1.797 1.797 0 0 0-3.112 0z" fill="#C51515"/>
    <path d="M15.114 10.885h-.228c-.561 0-1.016.455-1.016 1.016v4.854c0 .56.455 1.015 1.016 1.015h.228c.56 0 1.015-.454 1.015-1.015v-4.854c0-.561-.454-1.016-1.015-1.016zM15 21.62a1.13 1.13 0 1 0 0-2.259 1.13 1.13 0 0 0 0 2.26z" fill="#fff"/>
</svg>
