<svg width="78" height="78" viewBox="0 0 78 78" fill="none" xmlns="http://www.w3.org/2000/svg">
    <path fill-rule="evenodd" clip-rule="evenodd" d="M41.989 65.993a4.881 4.881 0 0 1 0 9.763H36.01a4.881 4.881 0 0 1 0-9.763h5.978zm-28.934-7.665a21.15 21.15 0 0 1-2.793-.04 16.6 16.6 0 0 0 16.387 13.958h1.862a7.654 7.654 0 0 1 .001-2.742h-1.863a13.857 13.857 0 0 1-13.594-11.176zm-9.94-5.925a10.635 10.635 0 0 0 5.752 2.967c.58.098 3.857.628 5.97-.105a2.357 2.357 0 0 0 1.294-2.104V29.988c0-12.63 10.238-22.87 22.869-22.87 8.541 0 15.988 4.683 19.916 11.62h5.453C60.053 9.021 50.319 2.244 39 2.244c-14.575 0-26.525 11.239-27.657 25.522h-.708A10.635 10.635 0 0 0 0 38.4v6.481c0 2.821 1.12 5.526 3.115 7.52z" fill="#704FA6"/>
</svg>
