<svg width="47" height="46" viewBox="0 0 47 46" fill="none" xmlns="http://www.w3.org/2000/svg">
    <path d="M37.979 0H15.282c-2.519 0-4.568 1.935-4.568 4.313V5.75h-3.14a3.125 3.125 0 0 0-3.12 3.122v34.006c0 1.722 1.4 3.122 3.12 3.122h25.59c1.721 0 3.122-1.4 3.122-3.122V40.25h1.693c2.519 0 4.568-1.935 4.568-4.313V4.314c0-2.378-2.05-4.313-4.568-4.313zM33.41 42.878c0 .136-.11.247-.247.247H7.574a.247.247 0 0 1-.246-.247V8.872c0-.136.11-.247.247-.247h25.59c.135 0 .246.11.246.247v34.006zm6.26-6.94c0 .792-.759 1.437-1.692 1.437h-1.693V8.872c0-1.722-1.4-3.122-3.122-3.122H13.59V4.312c0-.792.76-1.437 1.693-1.437H37.98c.933 0 1.693.645 1.693 1.438v31.625z" fill="#fff"/>
    <path d="M27.453 19.406H13.797a1.437 1.437 0 1 1 0-2.875h13.656a1.438 1.438 0 0 1 0 2.875zM27.453 25.156H13.797a1.437 1.437 0 1 1 0-2.875h13.656a1.438 1.438 0 0 1 0 2.875zM27.453 30.906H13.797a1.437 1.437 0 1 1 0-2.875h13.656a1.438 1.438 0 0 1 0 2.875z" fill="#fff"/>
</svg>
