<?xml version="1.0" encoding="UTF-8"?>
<svg width="9px" height="6px" viewBox="0 0 9 6" version="1.1" xmlns="http://www.w3.org/2000/svg" xmlns:xlink="http://www.w3.org/1999/xlink">
    <!-- Generator: Sketch 52.4 (67378) - http://www.bohemiancoding.com/sketch -->
    <title>25629</title>
    <desc>Created with Sketch.</desc>
    <g id="Page-1" stroke="none" stroke-width="1" fill="none" fill-rule="evenodd">
        <g id="Apple-TV-Copy-5" transform="translate(-665.000000, -920.000000)" fill="#868D9B">
            <g id="25629" transform="translate(665.000000, 920.000000)">
                <path d="M8.78262472,0.687608541 L8.34963371,0.230327402 C8.19958652,0.0800071174 8.02433933,0.00482562278 7.82429663,0.00482562278 C7.62012809,0.00482562278 7.44696404,0.0800071174 7.30452135,0.230327402 L4.49817978,3.19321708 L1.69185843,0.230412811 C1.54943596,0.0800925267 1.37623146,0.00491103203 1.17214382,0.00491103203 C0.972,0.00491103203 0.796793258,0.0800925267 0.646725843,0.230412811 L0.219417978,0.68769395 C0.0731123596,0.842049822 0,1.02702491 0,1.2424484 C0,1.46188612 0.0731932584,1.64476868 0.219397753,1.79105338 L3.97844494,5.75970107 C4.11708539,5.91407829 4.29022921,5.99133096 4.49815955,5.99133096 C4.70218652,5.99133096 4.87737303,5.91409964 5.02353708,5.75970107 L8.78260449,1.79105338 C8.92504719,1.64064769 8.9963191,1.45778648 8.9963191,1.2424484 C8.99633933,1.03103915 8.92506742,0.846170819 8.78262472,0.687608541 Z" id="Path"></path>
            </g>
        </g>
    </g>
</svg>