<svg width="78" height="78" viewBox="0 0 78 78" fill="none" xmlns="http://www.w3.org/2000/svg">
<path fill-rule="evenodd" clip-rule="evenodd" d="M41.9887 65.9934C44.6846 65.9934 46.8701 68.1789 46.8701 70.8748C46.8701 73.5706 44.6846 75.7562 41.9887 75.7562H36.0113C33.3154 75.7562 31.1299 73.5706 31.1299 70.8748C31.1299 69.5801 31.6442 68.3385 32.5597 67.4231C33.4751 66.5077 34.7167 65.9934 36.0113 65.9934H41.9887ZM13.0546 58.3277C12.0638 58.3858 11.0774 58.35 10.262 58.2877C10.8137 61.7114 12.429 64.9008 14.9123 67.3843C18.0252 70.4971 22.2472 72.2459 26.6495 72.2459H28.5108C28.4299 71.8013 28.3877 71.3429 28.3877 70.8748C28.3877 70.4118 28.4299 69.9531 28.512 69.5037H26.6495C22.9745 69.5037 19.45 68.0438 16.8514 65.4452C14.8939 63.4876 13.5825 61.0047 13.0546 58.3277ZM3.11497 52.4028C4.68762 53.9756 6.70221 55.0048 8.86717 55.3698C9.44775 55.4678 12.7242 55.9981 14.8369 55.265C15.6044 54.8764 16.1305 54.0801 16.1305 53.1611V29.9884C16.1305 17.3579 26.3695 7.1189 39 7.1189C47.541 7.1189 54.9884 11.8009 58.9157 18.7383H64.369C60.0534 9.02112 50.3181 2.2439 39 2.2439C24.425 2.2439 12.4748 13.4828 11.3432 27.7659H10.6353C7.81462 27.7659 5.10946 28.8865 3.11497 30.881C1.12049 32.8755 0 35.5807 0 38.4013V44.8825C0 47.7031 1.12049 50.4083 3.11497 52.4028Z" fill="#FF6E86"/>
</svg>
