<svg width="16" height="19" viewBox="0 0 16 19" fill="none" xmlns="http://www.w3.org/2000/svg">
<path d="M10.0566 19H2.96875C1.33173 19 0 17.6683 0 16.0312V5.97461C0 4.33759 1.33173 3.00586 2.96875 3.00586H10.0566C11.6937 3.00586 13.0254 4.33759 13.0254 5.97461V16.0312C13.0254 17.6683 11.6937 19 10.0566 19ZM2.96875 4.49023C2.15031 4.49023 1.48438 5.15617 1.48438 5.97461V16.0312C1.48438 16.8497 2.15031 17.5156 2.96875 17.5156H10.0566C10.8751 17.5156 11.541 16.8497 11.541 16.0312V5.97461C11.541 5.15617 10.8751 4.49023 10.0566 4.49023H2.96875ZM15.9941 14.1758V2.96875C15.9941 1.33173 14.6624 0 13.0254 0H4.78711C4.37717 0 4.04492 0.332245 4.04492 0.742188C4.04492 1.15213 4.37717 1.48438 4.78711 1.48438H13.0254C13.8438 1.48438 14.5098 2.15031 14.5098 2.96875V14.1758C14.5098 14.5857 14.842 14.918 15.252 14.918C15.6619 14.918 15.9941 14.5857 15.9941 14.1758Z" fill="#D64E3F"/>
</svg>
