<svg width="23" height="23" viewBox="0 0 23 23" fill="none" xmlns="http://www.w3.org/2000/svg">
<path d="M6.77491 14.7975C6.77491 14.4155 6.50987 14.1877 6.04223 14.1877C5.85127 14.1877 5.72194 14.2066 5.6543 14.2246V15.4501C5.73439 15.4682 5.83285 15.4742 5.96857 15.4742C6.46703 15.4742 6.77491 15.2223 6.77491 14.7975Z" fill="white"/>
<path d="M9.66992 14.2006C9.4605 14.2006 9.32516 14.2187 9.24512 14.2374V16.9516C9.32521 16.9704 9.45454 16.9704 9.57146 16.9704C10.421 16.9764 10.9751 16.5087 10.9751 15.5178C10.9811 14.6562 10.4762 14.2006 9.66992 14.2006Z" fill="white"/>
<path d="M15.0484 0H5.81065C4.46111 0 3.36272 1.09915 3.36272 2.44793V11.5H3.12363C2.57895 11.5 2.13721 11.9413 2.13721 12.4864V18.4687C2.13721 19.0138 2.5789 19.4551 3.12363 19.4551H3.36272V20.552C3.36272 21.9023 4.46111 23 5.81065 23H18.4151C19.7638 23 20.8624 21.9022 20.8624 20.552V5.7936L15.0484 0ZM4.725 13.566C5.01409 13.5172 5.42043 13.4803 5.99293 13.4803C6.57148 13.4803 6.98384 13.5908 7.2609 13.8126C7.52556 14.0216 7.70417 14.3667 7.70417 14.7727C7.70417 15.1787 7.56883 15.5238 7.32258 15.7576C7.0023 16.0591 6.52865 16.1945 5.97456 16.1945C5.85125 16.1945 5.74072 16.1883 5.65428 16.1764V17.6598H4.725V13.566ZM18.4151 21.5008H5.81065C5.2881 21.5008 4.86258 21.0753 4.86258 20.552V19.4551H16.6126C17.1573 19.4551 17.599 19.0138 17.599 18.4687V12.4864C17.599 11.9413 17.1573 11.5 16.6126 11.5H4.86258V2.44793C4.86258 1.92614 5.28815 1.50062 5.81065 1.50062L14.4875 1.49156V4.69884C14.4875 5.63565 15.2476 6.39648 16.1852 6.39648L19.3271 6.38747L19.3624 20.552C19.3624 21.0753 18.9376 21.5008 18.4151 21.5008ZM8.30338 17.641V13.566C8.64804 13.5112 9.09727 13.4803 9.57135 13.4803C10.3592 13.4803 10.8701 13.6217 11.2705 13.9231C11.7013 14.2434 11.9719 14.7539 11.9719 15.4869C11.9719 16.2808 11.6828 16.829 11.2824 17.1672C10.8456 17.5304 10.1807 17.7026 9.36832 17.7026C8.88183 17.7026 8.53717 17.6718 8.30338 17.641ZM15.0214 15.2284V15.9914H13.5316V17.6598H12.5899V13.5112H15.1259V14.2802H13.5316V15.2284H15.0214Z" fill="white"/>
</svg>
