<svg width="18" height="18" viewBox="0 0 18 18" fill="none" xmlns="http://www.w3.org/2000/svg">
    <g clip-path="url(#av5ane5d0a)" fill="#FF748B">
        <path d="M9 4.5a3 3 0 1 0 0 6 3 3 0 0 0 0-6zM9 9a1.5 1.5 0 1 1 0-3 1.5 1.5 0 0 1 0 3z"/>
        <path d="M9 18a3.953 3.953 0 0 1-3.233-1.65c-2.859-3.943-4.308-6.907-4.308-8.81a7.541 7.541 0 1 1 15.082 0c0 1.903-1.45 4.867-4.308 8.81A3.953 3.953 0 0 1 9 18zM9 1.636A5.912 5.912 0 0 0 3.094 7.54c0 1.508 1.42 4.295 3.997 7.85a2.359 2.359 0 0 0 3.818 0c2.577-3.555 3.996-6.342 3.996-7.85A5.912 5.912 0 0 0 9 1.636z"/>
    </g>
    <defs>
        <clipPath id="av5ane5d0a">
            <path fill="#fff" d="M0 0h18v18H0z"/>
        </clipPath>
    </defs>
</svg>
