<svg width="65" height="65" viewBox="0 0 65 65" fill="none" xmlns="http://www.w3.org/2000/svg">
<g clip-path="url(#clip0_0_628)">
<path d="M62.207 12.1875C62.207 11.009 61.7389 9.87886 60.9056 9.04557C60.0723 8.21228 58.9421 7.74414 57.7637 7.74414H4.44336C3.26491 7.74414 2.13472 8.21228 1.30143 9.04557C0.468138 9.87886 0 11.009 0 12.1875L0 16.0697H62.207V12.1875Z" fill="#3D0083"/>
<path d="M37.0703 32.161C37.072 30.6464 37.6744 29.1943 38.7454 28.1232C39.8164 27.0522 41.2686 26.4498 42.7832 26.4481C44.535 26.4511 46.2439 25.9065 47.6709 24.8904L49.6323 23.4939C50.5988 22.8076 51.7547 22.4389 52.9401 22.4389C54.1254 22.4389 55.2814 22.8076 56.2479 23.4939L58.208 24.8904C59.3879 25.7323 60.7656 26.2545 62.207 26.4062V19.8783H0V46.494C0 47.6725 0.468138 48.8027 1.30143 49.636C2.13472 50.4692 3.26491 50.9374 4.44336 50.9374H39.6716C37.9597 47.8094 37.0649 44.2999 37.0703 40.7342V32.161ZM8.69502 28.7942H9.93916C10.1892 28.7942 10.4369 28.8435 10.6679 28.9392C10.8989 29.0349 11.1089 29.1751 11.2857 29.352C11.4625 29.5288 11.6028 29.7387 11.6985 29.9698C11.7942 30.2008 11.8435 30.4484 11.8435 30.6985C11.8435 30.9486 11.7942 31.1962 11.6985 31.4273C11.6028 31.6583 11.4625 31.8682 11.2857 32.0451C11.1089 32.2219 10.8989 32.3622 10.6679 32.4579C10.4369 32.5536 10.1892 32.6028 9.93916 32.6028H8.69502C8.44494 32.6028 8.19732 32.5536 7.96628 32.4579C7.73524 32.3622 7.52531 32.2219 7.34848 32.0451C7.17165 31.8682 7.03138 31.6583 6.93568 31.4273C6.83998 31.1962 6.79072 30.9486 6.79072 30.6985C6.79072 30.4484 6.83998 30.2008 6.93568 29.9698C7.03138 29.7387 7.17165 29.5288 7.34848 29.352C7.52531 29.1751 7.73524 29.0349 7.96628 28.9392C8.19732 28.8435 8.44494 28.7942 8.69502 28.7942ZM24.992 40.7519H8.69502C8.18997 40.7519 7.7056 40.5513 7.34848 40.1942C6.99135 39.837 6.79072 39.3527 6.79072 38.8476C6.79072 38.3426 6.99135 37.8582 7.34848 37.5011C7.7056 37.144 8.18997 36.9433 8.69502 36.9433H24.992C25.497 36.9433 25.9814 37.144 26.3385 37.5011C26.6957 37.8582 26.8963 38.3426 26.8963 38.8476C26.8963 39.3527 26.6957 39.837 26.3385 40.1942C25.9814 40.5513 25.497 40.7519 24.992 40.7519ZM24.992 32.6028H17.4091C16.904 32.6028 16.4197 32.4022 16.0625 32.0451C15.7054 31.6879 15.5048 31.2036 15.5048 30.6985C15.5048 30.1935 15.7054 29.7091 16.0625 29.352C16.4197 28.9948 16.904 28.7942 17.4091 28.7942H24.992C25.497 28.7942 25.9814 28.9948 26.3385 29.352C26.6957 29.7091 26.8963 30.1935 26.8963 30.6985C26.8963 31.2036 26.6957 31.6879 26.3385 32.0451C25.9814 32.4022 25.497 32.6028 24.992 32.6028Z" fill="#3D0083"/>
<path d="M63.0957 30.2567C60.5539 30.261 58.0744 29.4704 56.0041 27.9957L54.0414 26.5992C53.7194 26.3707 53.3343 26.248 52.9395 26.248C52.5446 26.248 52.1595 26.3707 51.8375 26.5992L49.8748 27.9957C47.8046 29.4704 45.325 30.261 42.7832 30.2567C42.2782 30.2567 41.7938 30.4574 41.4367 30.8145C41.0795 31.1716 40.8789 31.656 40.8789 32.161V40.7342C40.8787 44.3042 41.9704 47.789 44.0075 50.7208C46.0446 53.6526 48.9296 55.8913 52.2755 57.1365C52.7038 57.2958 53.1751 57.2958 53.6034 57.1365C56.9493 55.8913 59.8343 53.6526 61.8714 50.7208C63.9085 47.789 65.0002 44.3042 65 40.7342V32.161C65 31.656 64.7994 31.1716 64.4422 30.8145C64.0851 30.4574 63.6008 30.2567 63.0957 30.2567ZM58.1775 40.3939L53.5641 45.6307C53.3854 45.8336 53.1655 45.9961 52.9191 46.1073C52.6728 46.2186 52.4055 46.2762 52.1352 46.2762C51.8649 46.2762 51.5976 46.2186 51.3513 46.1073C51.1049 45.9961 50.8851 45.8336 50.7063 45.6307L47.7014 42.2208C47.5361 42.0331 47.4094 41.8146 47.3285 41.5779C47.2476 41.3412 47.2141 41.0909 47.23 40.8413C47.262 40.3372 47.493 39.8664 47.8721 39.5326C48.2512 39.1987 48.7475 39.0292 49.2516 39.0612C49.7557 39.0932 50.2265 39.3242 50.5604 39.7033L52.1346 41.4908L55.3186 37.8765C55.6524 37.4973 56.1232 37.2663 56.6273 37.2343C57.1314 37.2023 57.6277 37.3719 58.0068 37.7057C58.3859 38.0395 58.6169 38.5103 58.6489 39.0145C58.6809 39.5186 58.5114 40.0148 58.1775 40.3939Z" fill="#C1145A"/>
</g>
<defs>
<clipPath id="clip0_0_628">
<rect width="65" height="65" fill="white"/>
</clipPath>
</defs>
</svg>
