<svg width="23" height="23" viewBox="0 0 23 23" fill="none" xmlns="http://www.w3.org/2000/svg">
    <path d="M6.775 14.797c0-.382-.265-.61-.733-.61-.19 0-.32.02-.388.038v1.225c.08.018.179.024.315.024.498 0 .806-.252.806-.677zM9.67 14.2c-.21 0-.345.019-.425.037v2.715c.08.018.21.018.326.018.85.006 1.404-.461 1.404-1.452.006-.862-.499-1.317-1.305-1.317z" fill="#2E1B5D"/>
    <path d="M15.048 0H5.811C4.46 0 3.363 1.1 3.363 2.448V11.5h-.24a.986.986 0 0 0-.986.986v5.983c0 .545.442.986.987.986h.239v1.097A2.45 2.45 0 0 0 5.81 23h12.604a2.45 2.45 0 0 0 2.447-2.448V5.794L15.048 0zM4.725 13.566c.29-.049.695-.086 1.268-.086.578 0 .99.11 1.268.333.265.209.443.554.443.96 0 .406-.135.75-.381.985-.32.301-.794.437-1.348.437-.124 0-.234-.007-.32-.019v1.484h-.93v-4.094zm13.69 7.935H5.811a.95.95 0 0 1-.948-.949v-1.097h11.75a.986.986 0 0 0 .986-.986v-5.983a.986.986 0 0 0-.986-.986H4.863V2.448A.95.95 0 0 1 5.81 1.5l8.677-.01V4.7c0 .937.76 1.697 1.697 1.697l3.142-.009.035 14.165a.949.949 0 0 1-.947.949zM8.303 17.64v-4.075a8.457 8.457 0 0 1 1.268-.086c.788 0 1.3.142 1.7.443.43.32.7.83.7 1.564 0 .794-.288 1.342-.689 1.68-.436.363-1.101.536-1.914.536-.486 0-.83-.031-1.065-.062zm6.718-2.413v.763h-1.49v1.669h-.941V13.51h2.536v.77h-1.594v.947h1.49z" fill="#2E1B5D"/>
</svg>
