<svg width="20" height="20" viewBox="0 0 20 20" fill="none" xmlns="http://www.w3.org/2000/svg">
    <path d="m18.263 12.625-2.7-2.725a.119.119 0 0 0-.107-.044.15.15 0 0 0-.106.05l-1.8 1.906a1.252 1.252 0 0 1-.906.394 1.25 1.25 0 0 1-.906-.393l-3.863-4.12a.15.15 0 0 0-.2 0l-6.012 4.688-.775-1.006 5.987-4.688a1.394 1.394 0 0 1 1.875.15l3.856 4.12 1.788-1.907a1.389 1.389 0 0 1 1-.444 1.363 1.363 0 0 1 1.012.413l2.7 2.725-.843.881z" fill="#000"/>
    <path d="M16.925 19.375H3.075a2.45 2.45 0 0 1-2.45-2.45V3.075a2.45 2.45 0 0 1 2.45-2.45h13.85a2.45 2.45 0 0 1 2.45 2.45v13.85a2.45 2.45 0 0 1-2.45 2.45zm-13.85-17.5a1.2 1.2 0 0 0-1.2 1.2v13.85a1.2 1.2 0 0 0 1.2 1.2h13.85a1.2 1.2 0 0 0 1.2-1.2V3.075a1.2 1.2 0 0 0-1.2-1.2H3.075z" fill="#000"/>
    <path d="M12.706 7.394a1.25 1.25 0 1 0 0-2.5 1.25 1.25 0 0 0 0 2.5zM1.25 12.188l5.956-4.794 1.1-.132 3.607 3.85s.624.857 1.156.27l1.793-1.907s.357-.781 1.12 0c.762.781 2.768 3.338 2.768 3.338l-.044 4.518s-.187 1.419-2.025 1.419c-1.837 0-13.75-.194-13.75-.194s-1.681.413-1.681-1.631v-4.738z" fill="#000"/>
</svg>
