<svg width="18" height="18" viewBox="0 0 18 18" fill="none" xmlns="http://www.w3.org/2000/svg">
<path d="M4.15847 17.7563C4.23683 17.679 4.29898 17.5872 4.34139 17.4862C4.38379 17.3852 4.40562 17.277 4.40562 17.1677C4.40562 17.0584 4.38379 16.9502 4.34139 16.8492C4.29898 16.7482 4.23683 16.6565 4.15847 16.5792L2.88075 15.3188L17.1563 15.3188C17.38 15.3188 17.5947 15.2311 17.7529 15.075C17.9111 14.9189 18 14.7072 18 14.4865C18 14.2657 17.9111 14.054 17.7529 13.8979C17.5947 13.7418 17.38 13.6542 17.1563 13.6542L2.88072 13.6542L4.15847 12.3938C4.23682 12.3165 4.29898 12.2247 4.34138 12.1237C4.38379 12.0228 4.40561 11.9145 4.40561 11.8052C4.40561 11.6959 4.38379 11.5877 4.34139 11.4867C4.29899 11.3857 4.23684 11.294 4.15849 11.2167C4.00026 11.0606 3.78564 10.9729 3.56187 10.9729C3.45106 10.9729 3.34134 10.9944 3.23897 11.0363C3.1366 11.0781 3.04359 11.1394 2.96523 11.2167L0.247129 13.8979C0.0888976 14.054 1.76144e-06 14.2657 1.75166e-06 14.4864C1.74187e-06 14.7072 0.0888975 14.9189 0.247129 15.075L2.96523 17.7563C3.12347 17.9123 3.33808 18 3.56185 18C3.78563 18 4.00024 17.9123 4.15847 17.7563Z" fill="#FF6E86"/>
<path d="M13.8416 6.78336C13.7633 6.70607 13.7011 6.61431 13.6587 6.51333C13.6163 6.41235 13.5945 6.30411 13.5945 6.19481C13.5945 6.08551 13.6163 5.97727 13.6587 5.87629C13.7011 5.77531 13.7633 5.68355 13.8416 5.60626L15.1193 4.34587L0.843826 4.34587C0.62005 4.34587 0.405439 4.25818 0.247205 4.1021C0.0889712 3.94601 7.63371e-05 3.73431 7.63345e-05 3.51356C7.6332e-05 3.29282 0.0889711 3.08112 0.247205 2.92503C0.405439 2.76895 0.62005 2.68126 0.843826 2.68126L15.1194 2.68125L13.8416 1.42086C13.7633 1.34357 13.7011 1.25182 13.6587 1.15084C13.6163 1.04986 13.5945 0.941629 13.5945 0.832327C13.5945 0.723026 13.6163 0.614794 13.6587 0.513812C13.7011 0.41283 13.7633 0.321075 13.8416 0.243786C13.9998 0.0876937 14.2144 9.01228e-07 14.4382 -2.38762e-06C14.549 -4.01608e-06 14.6587 0.0215226 14.7611 0.063349C14.8635 0.105175 14.9565 0.166482 15.0349 0.243769L17.753 2.92502C17.9112 3.0811 18.0001 3.2928 18.0001 3.51354C18.0001 3.73429 17.9112 3.94599 17.753 4.10207L15.0349 6.78336C14.8766 6.93944 14.662 7.02713 14.4382 7.02713C14.2145 7.02713 13.9999 6.93944 13.8416 6.78336Z" fill="#704FA6"/>
</svg>
