<?xml version="1.0" encoding="UTF-8"?>
<svg width="363px" height="116px" viewBox="0 0 363 116" version="1.1" xmlns="http://www.w3.org/2000/svg" xmlns:xlink="http://www.w3.org/1999/xlink">
    <!-- Generator: Sketch 52.4 (67378) - http://www.bohemiancoding.com/sketch -->
    <title>logo</title>
    <desc>Created with Sketch.</desc>
    <g id="Page-1" stroke="none" stroke-width="1" fill="none" fill-rule="evenodd">
        <g id="logo">
            <g id="XMLID_6_">
                <g id="XMLID_5_" transform="translate(16.000000, 0.000000)" fill="#1B1E2A">
                    <polygon id="XMLID_26_" points="5.2 24.2 12.3 23.3 10.3 37.7 15.2 37.1 25.3 21.7 33.5 20.7 20.8 39.9 28.5 56.6 20.3 57.6 14.1 44.2 9.2 44.8 7.2 59.2 0.1 60.1"></polygon>
                    <path d="M38.2,20.2 L66.4,16.7 L61.4,52.6 L54.3,53.5 L56.3,39.1 L42.2,40.8 L40.2,55.2 L33.1,56.1 L38.2,20.2 Z M44.2,26.5 L43.2,33.7 L57.3,32 L58.3,24.8 L44.2,26.5 Z" id="XMLID_28_" fill-rule="nonzero"></path>
                    <polygon id="XMLID_31_" points="74.2 44 95.4 41.4 94.4 48.6 66.1 52 71.1 16.1 78.2 15.2"></polygon>
                    <polygon id="XMLID_33_" points="104 12.1 111.1 11.2 109.1 25.6 114 25 124.1 9.6 132.3 8.6 119.6 27.8 127.3 44.5 119.1 45.5 113 32.1 108.1 32.7 106.1 47.1 99 48"></polygon>
                    <path d="M137,8 L165.2,4.5 L160.2,40.4 L153.1,41.3 L155.1,26.9 L141,28.7 L139,43.1 L131.9,44 L137,8 Z M143,14.3 L142,21.5 L156.1,19.8 L157.1,12.6 L143,14.3 Z" id="XMLID_35_" fill-rule="nonzero"></path>
                    <polygon id="XMLID_38_" points="176 10.3 172 39 164.9 39.9 169.9 4 198.1 0.5 193.1 36.4 186 37.3 190 8.6"></polygon>
                </g>
                <polyline id="XMLID_11_" fill="#EB8418" points="12.1 86.8 1.2 88.2 0.1 96.2 11 94.9"></polyline>
                <g id="XMLID_2_" transform="translate(9.000000, 29.000000)">
                    <polygon id="XMLID_7_" points="14 55.7 33.3 53.3 34.7 43.4 15.3 45.8"></polygon>
                    <path d="M7,37.2 L0.2,86.5 L9.9,85.3 L12.6,65.6 L32,63.2 L29.3,82.9 L39,81.7 L45.8,32.4 L7,37.2 Z M33.3,53.3 L14,55.7 L15.4,45.8 L34.8,43.4 L33.3,53.3 Z" id="XMLID_40_" fill="#1B1E2A" fill-rule="nonzero"></path>
                    <polygon id="XMLID_42_" fill="#1B1E2A" points="79.8 28.2 65.8 49.3 59.2 50.1 61.9 30.4 52.2 31.6 45.4 80.9 55.1 79.7 57.8 60 64.5 59.2 72.9 77.5 84.2 76.1 73.6 53.2 91 26.9"></polygon>
                    <polygon id="XMLID_43_" fill="#1B1E2A" points="97.4 26.1 96.1 35.9 110.6 34.1 105.1 73.5 114.8 72.4 120.3 32.9 134.8 31.2 136.2 21.3"></polygon>
                    <polygon id="XMLID_44_" fill="#1B1E2A" points="142.6 20.5 141.5 29 151.1 27.8 152.3 19.3"></polygon>
                    <polygon id="XMLID_45_" fill="#1B1E2A" points="135.8 69.8 145.5 68.6 151 29.2 141.3 30.3"></polygon>
                    <polygon id="XMLID_46_" fill="#1B1E2A" points="187.8 15 182.4 54 164.5 45.7 168.5 17.3 158.8 18.5 154 52.9 189.8 69.6 197.5 13.8"></polygon>
                    <polygon id="XMLID_47_" fill="#1B1E2A" points="204 13 202.8 21.5 212.4 20.3 212.5 20.3 213.7 11.8"></polygon>
                    <polygon id="XMLID_48_" fill="#1B1E2A" points="202.6 22.8 197.2 62.2 206.9 61.1 212.3 21.6 212.2 21.6"></polygon>
                    <polygon id="XMLID_49_" fill="#1B1E2A" points="220.1 11 218.8 20.8 233.3 19.1 227.8 58.5 237.5 57.3 243 17.9 257.5 16.1 258.9 6.2"></polygon>
                    <polygon id="XMLID_50_" fill="#1B1E2A" points="302.7 10.5 304.1 0.7 265.3 5.4 258.5 54.7 297.3 50 298.6 40.1 269.6 43.7 270.9 33.8 300 30.2 301.3 20.4 272.3 24 273.7 14.1"></polygon>
                </g>
                <g id="XMLID_62_" transform="translate(0.000000, 31.000000)" fill="#EB8418">
                    <polygon id="XMLID_63_" points="174.7 43 176.1 43.6 191.8 41.7 192.9 33.6 175.7 35.7"></polygon>
                    <polygon id="XMLID_64_" points="163.8 37.2 159.6 37.7 158.5 45.8 162.7 45.3"></polygon>
                    <polygon id="XMLID_9_" points="57.2 50.3 53 50.8 51.9 58.9 56.1 58.3"></polygon>
                    <polygon id="XMLID_65_" points="159.9 37.7 128.9 41.5 127.8 49.5 158.8 45.7"></polygon>
                    <polygon id="XMLID_66_" points="117 42.9 117 42.9 86.8 46.7 83.8 51.2 85.5 54.7 115.9 51"></polygon>
                    <polygon id="XMLID_67_" points="221.3 30.1 204.8 32.2 203.7 40.2 220.2 38.2"></polygon>
                    <polygon id="XMLID_68_" points="344.2 0.8 333.6 2.1 347.7 14.6 311.2 19.1 310.1 27.2 347.7 22.5 333.1 38.9 344.1 37.6 362.5 16.8"></polygon>
                    <polyline id="XMLID_3_" points="5.4 56.6 1.2 57.2 0.5 62 0.1 65.2 4.3 64.7"></polyline>
                    <polygon id="XMLID_70_" points="270.4 24.1 251.6 26.4 250.5 34.5 269.3 32.2"></polygon>
                    <polygon id="XMLID_71_" points="239.7 27.9 220.9 30.2 219.8 38.2 238.6 35.9"></polygon>
                </g>
            </g>
        </g>
    </g>
</svg>