<svg xmlns="http://www.w3.org/2000/svg" width="1848" height="1000" viewBox="0 0 1848 1000">
    <g fill="none" fill-rule="evenodd" transform="translate(1 -340)">
        <circle cx="922" cy="923" r="306" stroke="#E1E4EB"/>
        <circle cx="922" cy="923" r="448" stroke="#E1E4EB"/>
        <circle cx="921.5" cy="922.5" r="630.5" stroke="#E1E4EB"/>
        <circle cx="923" cy="923" r="923" stroke="#E1E4EB"/>
        <g transform="translate(1049 626)">
            <circle cx="61.5" cy="61.5" r="61.5" fill="#F2F3F6" stroke="#E6E9EF" stroke-width="2"/>
            <path fill="#CFD4DF" d="M55.04 62.9v-7.71c0-.33-.17-.64-.44-.82a2.62 2.62 0 0 1-1.17-2.18v-8c0-3.43 2.79-6.21 6.21-6.21h1.72c3.43 0 6.21 2.79 6.21 6.21v8c0 .88-.44 1.69-1.17 2.18-.28.18-.44.49-.44.82v7.71c0 .52.29.98.75 1.21 1.01.49 6.31 3.17 11.19 7.18.67.55 1.05 1.36 1.05 2.23V79c0 .55.44.99.99.99s.99-.44.99-.99v-5.48c0-1.46-.65-2.83-1.77-3.76-4.63-3.8-9.61-6.44-11.22-7.25v-6.83a4.58 4.58 0 0 0 1.61-3.49v-8c0-4.52-3.68-8.19-8.19-8.19h-1.72c-4.52 0-8.19 3.68-8.19 8.19v8c0 1.35.59 2.62 1.61 3.49v6.83c-1.61.81-6.59 3.45-11.22 7.25a4.817 4.817 0 0 0-1.77 3.76V79c0 .55.44.99.99.99s.99-.44.99-.99v-5.48c0-.87.38-1.68 1.05-2.23 4.88-4.01 10.18-6.68 11.19-7.18.46-.23.75-.69.75-1.21z"/>
            <path fill="#CFD4DF" d="M66.27 74.22l-8.39 8.39-3.15-3.15a.984.984 0 0 0-1.4 0 .984.984 0 0 0 0 1.4l3.85 3.85c.19.19.45.29.7.29.25 0 .51-.1.7-.29l9.09-9.09a.984.984 0 0 0 0-1.4c-.39-.38-1.01-.38-1.4 0z"/>
        </g>
        <g transform="translate(463 671)">
            <circle cx="61.5" cy="61.5" r="61.5" fill="#F2F3F6" stroke="#E6E9EF" stroke-width="2"/>
            <path fill="#CFD4DF" fill-rule="nonzero" d="M62.5 89C47.337 89 35 76.663 35 61.5S47.337 34 62.5 34 90 46.337 90 61.5 77.663 89 62.5 89zm0-53.333c-14.245 0-25.833 11.588-25.833 25.833S48.255 87.333 62.5 87.333 88.333 75.745 88.333 61.5 76.745 35.667 62.5 35.667z"/>
            <path fill="#CFD4DF" d="M62.5 74a22.47 22.47 0 0 1-11.445-3.129l-.66-.39a.783.783 0 0 1-.272-1.099.852.852 0 0 1 1.145-.26l.66.39a20.764 20.764 0 0 0 21.144-.002l.659-.392a.854.854 0 0 1 1.145.26.78.78 0 0 1-.271 1.1l-.661.392A22.467 22.467 0 0 1 62.499 74z"/>
            <g fill="#CFD4DF">
                <path d="M59.1 55.862a.803.803 0 0 1-.583-.255l-3.242-3.444-3.241 3.444a.79.79 0 0 1-1.165 0 .915.915 0 0 1 0-1.237l3.823-4.062a.79.79 0 0 1 1.165 0l3.823 4.062a.915.915 0 0 1 0 1.237.79.79 0 0 1-.58.255zM74.548 55.862a.803.803 0 0 1-.584-.255l-3.24-3.444-3.242 3.444a.79.79 0 0 1-1.165 0 .915.915 0 0 1 0-1.237l3.823-4.062a.79.79 0 0 1 1.164 0l3.823 4.062a.915.915 0 0 1 0 1.237.79.79 0 0 1-.58.255z"/>
            </g>
        </g>
        <g transform="translate(1491 923)">
            <circle cx="61.5" cy="61.5" r="61.5" fill="#F2F3F6" stroke="#E6E9EF" stroke-width="2"/>
            <path fill="#CFD4DF" d="M80.345 43.986a25.087 25.087 0 0 1-4.834-1.102.792.792 0 0 0-.501 1.5c1.642.553 3.37.947 5.138 1.172 2.651.337 4.544 2.794 4.218 5.476-.427 3.519-1.21 8.77-2.51 13.808-1.415 5.487-3.077 9.305-4.938 11.348-3.823 4.194-8.615 7.912-11.962 10.292a5.077 5.077 0 0 1-5.88 0c-3.348-2.38-8.14-6.098-11.963-10.292-1.862-2.043-3.524-5.86-4.94-11.348-1.299-5.038-2.081-10.29-2.508-13.808-.326-2.682 1.566-5.14 4.218-5.476 7.643-.971 12.709-4.827 15.613-7.891a3.44 3.44 0 0 1 2.52-1.083c.962 0 1.857.385 2.52 1.083a25.852 25.852 0 0 0 7.187 5.35.786.786 0 0 0 1.056-.355.793.793 0 0 0-.352-1.06 24.293 24.293 0 0 1-6.75-5.026A4.998 4.998 0 0 0 62.014 35c-1.398 0-2.699.56-3.66 1.574-2.728 2.878-7.487 6.5-14.67 7.412-3.51.446-6.015 3.693-5.584 7.238.733 6.042 2.967 20.674 7.85 26.032 3.916 4.298 8.803 8.09 12.213 10.515A6.637 6.637 0 0 0 62.015 89c1.35 0 2.7-.41 3.851-1.229 3.41-2.425 8.297-6.217 12.214-10.515 4.883-5.358 7.116-19.99 7.85-26.032.43-3.545-2.075-6.792-5.585-7.238z"/>
            <path fill="#CFD4DF" fill-rule="nonzero" d="M60.238 42.43c-3.985 3.463-8.637 5.73-13.827 6.737-1.581.307-2.649 1.808-2.43 3.418.367 2.707 1.117 7.77 2.018 11.26 1.641 6.364 3.229 8.787 4.029 9.664 2.63 2.886 7.51 6.742 10.184 8.783.531.405 1.167.607 1.803.607.636 0 1.272-.202 1.803-.607 2.675-2.041 7.555-5.897 10.184-8.783.8-.877 2.388-3.3 4.03-9.664.9-3.49 1.65-8.553 2.018-11.26.219-1.61-.85-3.111-2.43-3.418-5.19-1.007-9.842-3.274-13.827-6.736a2.722 2.722 0 0 0-3.555 0zm18.251 9.941c-.362 2.673-1.102 7.665-1.983 11.078-1.66 6.432-3.225 8.509-3.665 8.992-2.642 2.899-7.857 6.974-9.977 8.591-.5.382-1.198.382-1.698 0-2.12-1.617-7.334-5.693-9.976-8.59-.44-.484-2.006-2.56-3.666-8.993-.88-3.412-1.62-8.405-1.983-11.078a1.474 1.474 0 0 1 1.169-1.651c5.464-1.06 10.362-3.446 14.559-7.093.212-.185.48-.278.746-.278.267 0 .534.093.746.278 4.197 3.647 9.095 6.033 14.56 7.093.76.148 1.274.873 1.168 1.651z"/>
            <path fill="#CFD4DF" d="M57.646 59.687c-.592-.485-2.592-1.485-4.024.415-1.431 1.899-.179 3.556.414 4.04l2.284 1.867a.785.785 0 0 0 1.108-.114.794.794 0 0 0-.113-1.114l-2.285-1.866c-.266-.218-.847-.926-.185-1.815.661-.89 1.541-.404 1.807-.186l4.73 3.864a.785.785 0 0 0 1.052-.051l6.922-6.886a1.282 1.282 0 0 1 1.817.009 1.295 1.295 0 0 1-.009 1.824l-8.245 8.202c-.652.632-1.371.368-1.715.084l-1.308-1.07a.786.786 0 0 0-1.109.115.793.793 0 0 0 .114 1.113l1.309 1.07a2.86 2.86 0 0 0 1.805.643c.76 0 1.474-.295 2.013-.831l8.245-8.202a2.884 2.884 0 0 0 .019-4.062 2.856 2.856 0 0 0-4.045-.019l-6.42 6.386-4.18-3.416z"/>
        </g>
    </g>
</svg>
