<svg width="20" height="20" viewBox="0 0 20 20" fill="none" xmlns="http://www.w3.org/2000/svg">
    <path d="M14.38 6.724 11.105 10l3.275 3.275-1.104 1.105L10 11.104 6.726 14.38 5.62 13.274 8.896 10 5.62 6.724 6.726 5.62 10 8.895l3.275-3.275 1.104 1.104zM20 10a9.935 9.935 0 0 1-2.929 7.071A9.935 9.935 0 0 1 10 20a9.935 9.935 0 0 1-7.071-2.929A9.935 9.935 0 0 1 0 10a9.935 9.935 0 0 1 2.929-7.071A9.935 9.935 0 0 1 10 0a9.935 9.935 0 0 1 7.071 2.929A9.935 9.935 0 0 1 20 10zm-1.563 0c0-4.652-3.785-8.438-8.437-8.438-4.652 0-8.438 3.786-8.438 8.438 0 4.652 3.786 8.438 8.438 8.438 4.652 0 8.438-3.786 8.438-8.438z" fill="#D36464"/>
</svg>
