<svg width="72" height="77" viewBox="0 0 72 77" fill="none" xmlns="http://www.w3.org/2000/svg">
    <path d="M6.086 32.454a12.11 12.11 0 0 1 6.573-1.93h3.258a2.296 2.296 0 0 1 2.296 2.296v24.386a2.296 2.296 0 0 1-2.296 2.295H12.66C5.957 59.502.505 54.05.505 47.347v-4.669c0-4.152 2.087-7.974 5.58-10.224zM13.172 64.051h.579c2.496 4.953 7.63 8.358 13.544 8.358a2.296 2.296 0 0 1 0 4.591c-8.753 0-16.193-5.724-18.776-13.625a16.29 16.29 0 0 0 4.653.676zM39.682 0c15.908 0 29.15 11.62 31.693 26.816a16.33 16.33 0 0 0-4.842-.835C63.73 13.746 52.755 4.591 39.682 4.591c-13.073 0-24.048 9.155-26.85 21.39-1.66.034-3.29.316-4.843.835C10.532 11.619 23.774 0 39.682 0z" fill="#E4893C"/>
</svg>
