<svg width="33" height="33" viewBox="0 0 33 33" fill="none" xmlns="http://www.w3.org/2000/svg">
    <g clip-path="url(#apas5z28ua)" fill="#E4893C">
        <path d="M13.665 19.335c-3.15-3.15-3.861-6.3-4.022-7.562a1.131 1.131 0 0 1 .325-.946l2.55-2.548c.374-.375.44-.959.16-1.408L8.619.569A1.138 1.138 0 0 0 7.145.154L.63 3.223c-.425.209-.674.66-.626 1.13.341 3.243 1.755 11.216 9.59 19.05 7.835 7.836 15.806 9.25 19.05 9.59.471.049.922-.2 1.131-.625l3.069-6.516a1.138 1.138 0 0 0-.413-1.471l-6.302-4.058a1.138 1.138 0 0 0-1.408.16l-2.548 2.549a1.13 1.13 0 0 1-.947.325c-1.262-.161-4.411-.872-7.561-4.022z"/>
        <path d="M26.172 17.638c-.628 0-1.137-.51-1.137-1.138A8.544 8.544 0 0 0 16.5 7.966a1.138 1.138 0 1 1 0-2.276c5.968.006 10.804 4.842 10.81 10.81 0 .628-.51 1.138-1.138 1.138z"/>
        <path d="M31.862 17.638c-.628 0-1.138-.51-1.138-1.138C30.715 8.648 24.352 2.285 16.5 2.276A1.138 1.138 0 1 1 16.5 0C25.608.01 32.99 7.391 33 16.5a1.138 1.138 0 0 1-1.138 1.138z"/>
    </g>
    <defs>
        <clipPath id="apas5z28ua">
            <path fill="#fff" d="M0 0h33v33H0z"/>
        </clipPath>
    </defs>
</svg>
