<svg width="30" height="30" viewBox="0 0 30 30" fill="none" xmlns="http://www.w3.org/2000/svg">
    <path d="m21.23 26.762-.418 1.714a81.167 81.167 0 0 1-3.01 1.134c-.75.26-1.62.39-2.61.39-1.523 0-2.707-.373-3.552-1.114-.844-.743-1.267-1.686-1.267-2.829 0-.443.031-.898.095-1.362.064-.464.166-.987.306-1.571l1.572-5.563c.14-.532.258-1.037.353-1.514.097-.475.143-.911.143-1.304 0-.71-.147-1.207-.44-1.486-.292-.28-.851-.42-1.68-.42-.407 0-.824.065-1.25.19-.427.127-.793.249-1.1.362l.42-1.715c1.03-.419 2.014-.778 2.956-1.076.94-.298 1.83-.448 2.672-.448 1.511 0 2.678.366 3.497 1.096.82.732 1.23 1.68 1.23 2.848 0 .242-.028.668-.085 1.276a8.539 8.539 0 0 1-.315 1.678l-1.565 5.54c-.128.445-.244.954-.344 1.526-.104.569-.153 1.003-.153 1.295 0 .735.164 1.238.493 1.505.331.267.901.4 1.712.4.38 0 .813-.068 1.294-.2.48-.133.83-.25 1.047-.352zm.398-23.259c0 .966-.364 1.79-1.095 2.468-.73.68-1.608 1.02-2.636 1.02-1.031 0-1.912-.34-2.65-1.02-.736-.678-1.105-1.502-1.105-2.468 0-.963.37-1.789 1.106-2.475C15.984.343 16.866 0 17.896 0c1.028 0 1.907.343 2.636 1.028.731.686 1.095 1.512 1.095 2.475z" fill="#E4893C"/>
</svg>
