<svg width="34" height="34" viewBox="0 0 34 34" fill="none" xmlns="http://www.w3.org/2000/svg">
    <path d="M28.9 3.4H5.1A5.106 5.106 0 0 0 0 8.5v20.4C0 31.712 2.288 34 5.1 34h23.8c2.812 0 5.1-2.288 5.1-5.1V8.5c0-2.812-2.288-5.1-5.1-5.1z" fill="url(#4afvcm8bka)"/>
    <path d="M8.5 6.8a1.7 1.7 0 0 1-1.7-1.7V1.7a1.7 1.7 0 1 1 3.4 0v3.4a1.7 1.7 0 0 1-1.7 1.7zM25.5 6.8a1.7 1.7 0 0 1-1.7-1.7V1.7a1.7 1.7 0 1 1 3.4 0v3.4a1.7 1.7 0 0 1-1.7 1.7z" fill="#FFDFC4"/>
    <path d="M14.45 24.65c-.435 0-.87-.166-1.202-.498l-3.4-3.4a1.7 1.7 0 1 1 2.404-2.404l2.198 2.198 7.298-7.298a1.7 1.7 0 1 1 2.404 2.404l-8.5 8.5a1.695 1.695 0 0 1-1.202.498z" fill="url(#drjcgn7iab)"/>
    <defs>
        <linearGradient id="4afvcm8bka" x1="0" y1="18.7" x2="34" y2="18.7" gradientUnits="userSpaceOnUse">
            <stop stop-color="#E4893C"/>
            <stop offset="1" stop-color="#FFC696"/>
        </linearGradient>
        <linearGradient id="drjcgn7iab" x1="9.35" y1="18.7" x2="24.65" y2="18.7" gradientUnits="userSpaceOnUse">
            <stop stop-color="#FFAE69"/>
            <stop offset="1" stop-color="#FFF3EA"/>
        </linearGradient>
    </defs>
</svg>
