<svg width="31" height="30" viewBox="0 0 31 30" fill="none" xmlns="http://www.w3.org/2000/svg">
    <path d="M28.588 24.449 17.062 3.805a1.85 1.85 0 0 0-2.526-.696c.286.163.527.4.692.696l9.917 23.326h1.835c1.011 0 1.834-.812 1.834-1.81 0-.31-.076-.603-.226-.872z" fill="#B15757"/>
    <path d="M26.98 25.32c0-.31-.076-.602-.226-.871L15.228 3.805a1.83 1.83 0 0 0-.691-.696c-.285.163-.526.4-.691.696L2.32 24.449c-.15.269-.226.562-.226.871 0 .999.823 1.811 1.834 1.811h21.217c1.012 0 1.835-.812 1.835-1.81z" fill="#D36464"/>
    <path d="M16.371 22.604c0 .5-.41.905-.917.905a.911.911 0 0 1-.917-.905c0-.5.41-.905.917-.905.506 0 .917.405.917.905zM15.454 10.834a.911.911 0 0 0-.917.905v7.243c0 .5.41.906.917.906a.911.911 0 0 0 .917-.906V11.74c0-.5-.41-.905-.917-.905z" fill="#fff"/>
</svg>
