<svg width="33" height="33" viewBox="0 0 33 33" fill="none" xmlns="http://www.w3.org/2000/svg">
    <g clip-path="url(#m64zkgfg7a)">
        <path d="M28.215 4.742C25.08 1.712 20.955 0 16.562 0 3.953 0-3.964 13.66 2.332 24.527L0 33l8.71-2.271c3.796 2.05 6.904 1.868 7.86 1.99 14.62 0 21.898-17.689 11.624-27.923l.021-.054z" fill="#ECEFF1"/>
        <path d="M16.592 29.907h-.03c-4.375 0-7.17-2.073-7.446-2.193L3.96 29.055l1.382-5.012-.329-.515a13.57 13.57 0 0 1-2.084-7.233c0-12.09 14.774-18.136 23.324-9.59 8.529 8.456 2.54 23.203-9.66 23.203z" fill="#4CAF50"/>
        <path d="m24.072 19.672-.012.103c-.414-.206-2.43-1.192-2.805-1.328-.843-.312-.605-.05-2.224 1.804-.24.268-.48.289-.888.103-.412-.206-1.736-.64-3.304-2.042-1.221-1.093-2.04-2.433-2.283-2.846-.402-.696.44-.795 1.208-2.247.137-.288.067-.515-.035-.72-.103-.206-.924-2.228-1.267-3.033-.33-.803-.67-.702-.924-.702-.792-.068-1.371-.057-1.881.473-2.22 2.44-1.66 4.956.239 7.632 3.732 4.884 5.72 5.783 9.355 7.031.982.313 1.877.269 2.585.167.79-.125 2.43-.992 2.772-1.961.351-.97.351-1.774.248-1.96-.102-.185-.371-.288-.784-.474z" fill="#FAFAFA"/>
    </g>
    <defs>
        <clipPath id="m64zkgfg7a">
            <path fill="#fff" d="M0 0h33v33H0z"/>
        </clipPath>
    </defs>
</svg>
