<svg width="2" height="361" viewBox="0 0 2 361" fill="none" xmlns="http://www.w3.org/2000/svg">
<path d="M0.569999 360.08L0.569999 352.49L1.47 352.49L1.47 360.08L0.569999 360.08ZM0.569998 336.625L0.569998 329.035L1.47 329.035L1.47 336.625L0.569998 336.625ZM0.569997 313.17L0.569997 305.58L1.47 305.58L1.47 313.17L0.569997 313.17ZM0.569996 289.715L0.569996 282.125L1.47 282.125L1.47 289.715L0.569996 289.715ZM0.569995 266.26L0.569995 258.67L1.46999 258.67L1.47 266.26L0.569995 266.26ZM0.569994 242.805L0.569994 235.215L1.46999 235.215L1.46999 242.805L0.569994 242.805ZM0.569993 219.35L0.569993 211.76L1.46999 211.76L1.46999 219.35L0.569993 219.35ZM0.569992 195.894L0.569992 188.304L1.46999 188.304L1.46999 195.894L0.569992 195.894ZM0.569991 172.439L0.569991 164.849L1.46999 164.849L1.46999 172.439L0.569991 172.439ZM0.56999 148.984L0.56999 141.394L1.46999 141.394L1.46999 148.984L0.56999 148.984ZM0.569989 125.529L0.569989 117.939L1.46999 117.939L1.46999 125.529L0.569989 125.529ZM0.569988 102.074L0.569988 94.4841L1.46999 94.4841L1.46999 102.074L0.569988 102.074ZM0.569987 78.6191L0.569987 71.0291L1.46999 71.0291L1.46999 78.6191L0.569987 78.6191ZM0.569986 55.164L0.569986 47.574L1.46999 47.574L1.46999 55.164L0.569986 55.164ZM0.569985 31.7089L0.569985 24.1189L1.46998 24.1189L1.46999 31.7089L0.569985 31.7089ZM0.569984 8.25383L0.569984 0.663827L1.46998 0.663827L1.46998 8.25383L0.569984 8.25383Z" fill="#D6DAE1"/>
</svg>
