<svg width="360" height="1" viewBox="0 0 360 1" fill="none" xmlns="http://www.w3.org/2000/svg">
<path d="M0.419985 0.0699995H8.00998V0.969999H0.419985L0.419985 0.0699995ZM23.8751 0.0699995H31.4651V0.969999H23.8751V0.0699995ZM47.3301 0.0699995L54.9201 0.0699995V0.969999L47.3301 0.969999V0.0699995ZM70.7852 0.0699995L78.3752 0.0699995V0.969999L70.7852 0.969999V0.0699995ZM94.2403 0.0699995L101.83 0.0699995V0.969999L94.2403 0.969999V0.0699995ZM117.695 0.0699995L125.285 0.0699995V0.969999L117.695 0.969999V0.0699995ZM141.15 0.0699995L148.74 0.0699995V0.969999L141.15 0.969999V0.0699995ZM164.606 0.0699995H172.196V0.969999H164.606V0.0699995ZM188.061 0.0699995H195.651V0.969999H188.061V0.0699995ZM211.516 0.0699995H219.106V0.969999H211.516V0.0699995ZM234.971 0.0699995H242.561V0.969999H234.971V0.0699995ZM258.426 0.0699995H266.016V0.969999H258.426V0.0699995ZM281.881 0.0699995H289.471V0.969999H281.881V0.0699995ZM305.336 0.0699995H312.926V0.969999H305.336V0.0699995ZM328.791 0.0699995H336.381V0.969999H328.791V0.0699995ZM352.246 0.0699995H359.836V0.969999H352.246V0.0699995Z" fill="#D6DAE1"/>
</svg>
