<?xml version="1.0" encoding="UTF-8"?>
<svg width="60px" height="23px" viewBox="0 0 60 23" version="1.1" xmlns="http://www.w3.org/2000/svg" xmlns:xlink="http://www.w3.org/1999/xlink">
    <!-- Generator: Sketch 52.4 (67378) - http://www.bohemiancoding.com/sketch -->
    <title>Western union</title>
    <desc>Created with Sketch.</desc>
    <g id="Page-1" stroke="none" stroke-width="1" fill="none" fill-rule="evenodd">
        <g id="Apple-TV-Copy-43" transform="translate(-436.000000, -793.000000)" fill="#D0D0D0">
            <g id="Western-union" transform="translate(436.000000, 793.000000)">
                <polyline id="Path" points="21.4285714 22.3291667 11.7142857 22.3291667 7.04761905 0.0958333333 14.7619048 0.0958333333 16.7619048 13.8 18.8571429 0.0958333333 27.7142857 0.0958333333 29.8095238 14.1833333 31.9047619 0.0958333333 39.5238095 0.0958333333 34.8571429 22.3291667 25.3333333 22.3291667 23.3333333 7.95416667"></polyline>
                <polyline id="Path" points="21.4285714 22.3291667 11.7142857 22.3291667 7.04761905 0.0958333333 14.7619048 0.0958333333 16.7619048 13.8 18.8571429 0.0958333333 27.7142857 0.0958333333 29.8095238 14.1833333 31.9047619 0.0958333333 39.5238095 0.0958333333 34.8571429 22.3291667 25.3333333 22.3291667 23.3333333 7.95416667"></polyline>
                <path d="M17.3333333,20.6041667 C18.1904762,21.3708333 19.3333333,21.9458333 20.6666667,22.3291667 L21.4285714,22.3291667 L23.4285714,7.95416667 L25.4285714,22.3291667 L34.952381,22.3291667 L39.6190476,0.191666667 L32,0.191666667 L29.9047619,14.1833333 L27.9047619,0.191666667 L19.047619,0.191666667 L17.047619,13.8958333 L15.047619,0.191666667 L15.047619,13.7041667 C14.7619048,16.7708333 15.6190476,19.0708333 17.3333333,20.6041667 Z" id="Path"></path>
                <polyline id="Path" points="5.9047619 22.2333333 4.57142857 22.2333333 0 0.0958333333 1.33333333 0.0958333333"></polyline>
                <polyline id="Path" points="9.42857143 22.2333333 8.19047619 22.2333333 3.52380952 0.0958333333 4.85714286 0.0958333333"></polyline>
                <path d="M46.7619048,0.0958333333 L46.7619048,13.9916667 C46.7619048,14.8541667 46.5714286,15.6208333 46.1904762,16.1 C45.8095238,16.5791667 45.3333333,16.8666667 44.7619048,16.8666667 C44.0952381,16.8666667 43.6190476,16.5791667 43.2380952,16.1 C42.8571429,15.6208333 42.7619048,14.8541667 42.7619048,13.8958333 L42.7619048,0.0958333333 L41.1428571,0.0958333333 L36.8571429,20.6041667 C37.6190476,21.275 38.5714286,21.85 39.7142857,22.1375 C41.047619,22.6166667 42.7619048,22.8083333 44.8571429,22.8083333 C48.3809524,22.8083333 51.047619,22.0416667 52.7619048,20.6041667 C54.4761905,19.0708333 55.3333333,16.7708333 55.3333333,13.6083333 L55.3333333,0.0958333333" id="Path"></path>
                <path d="M56.952381,1.91666667 L57.3333333,1.91666667 L57.4285714,2.10833333 L57.6190476,2.20416667 L57.8095238,2.10833333 L57.9047619,2.0125 L57.8095238,1.91666667 L57.6190476,1.82083333 C57.4285714,1.82083333 57.3333333,1.725 57.2380952,1.62916667 L57.1428571,1.34166667 L57.2380952,1.15 L57.4285714,0.958333333 C57.5238095,0.958333333 57.6190476,0.8625 57.8095238,0.8625 C58,0.8625 58.0952381,0.8625 58.1904762,0.958333333 C58.2857143,1.05416667 58.3809524,1.15 58.3809524,1.34166667 L58,1.34166667 L57.9047619,1.15 L57.6190476,1.15 L57.6190476,1.34166667 L57.8095238,1.4375 C58,1.4375 58.0952381,1.53333333 58.1904762,1.53333333 L58.3809524,1.725 L58.4761905,1.91666667 L58.0952381,2.10833333 L57.9047619,2.3 L57.5238095,2.39583333 C57.2380952,2.39583333 57.1428571,2.3 57.047619,2.20416667 C56.952381,2.10833333 56.952381,2.0125 56.952381,1.91666667" id="Path"></path>
                <polyline id="Path" points="58.3809524 0.8625 58.952381 0.8625 59.2380952 1.82083333 59.4285714 0.8625 60 0.8625 60 2.39583333 59.6190476 2.39583333 59.6190476 1.24583333 59.3333333 2.39583333 59.047619 2.39583333 58.7619048 1.24583333 58.7619048 2.39583333 58.3809524 2.39583333"></polyline>
                <path d="M36.8571429,20.6041667 C37.6746611,21.275 38.6965589,21.85 39.9228363,22.1375 C41.3534932,22.6166667 43.1929093,22.8083333 45.4410845,22.8083333 L45.8498436,22.8083333 L50.8571429,0.0958333333 L47.4848801,0.0958333333 L47.4848801,13.9916667 C47.4848801,14.8541667 47.2805005,15.6208333 46.8717414,16.1 C46.4629823,16.5791667 45.9520334,16.8666667 45.3388947,16.8666667 C44.6235662,16.8666667 44.1126173,16.5791667 43.7038582,16.1 C43.2950991,15.6208333 43.1929093,14.8541667 43.1929093,13.8958333 L43.1929093,0.0958333333 L41.455683,0.0958333333 L36.8571429,20.6041667 Z" id="Path"></path>
            </g>
        </g>
    </g>
</svg>