<?xml version="1.0" encoding="utf-8"?>
<svg version="1.1" id="Layer_1" xmlns="http://www.w3.org/2000/svg" xmlns:xlink="http://www.w3.org/1999/xlink" x="0px"
     y="0px"
     viewBox="0 0 500 500" style="enable-background:new 0 0 500 500;" xml:space="preserve">
<style type="text/css">
	.st0{fill:#F6921E;}
	.st1{fill:#FFFFFF;}
</style>
    <g>
	<rect y="159" class="st0" width="500" height="182"/>
        <g>
		<g>
			<g>
				<g>
					<g>
						<path class="st0" d="M77.4,274.1c-3.4,0-6.9-0.4-10.2-1.3c-22.5-5.6-36.2-28.5-30.6-51c4.7-18.8,21.5-31.9,40.8-31.9
							c3.4,0,6.9,0.4,10.2,1.3c22.5,5.6,36.3,28.5,30.6,51C113.5,261,96.7,274.1,77.4,274.1z"/>
                        <path class="st1" d="M77.3,193.5c3.1,0,6.3,0.4,9.3,1.2c20.6,5.1,33.1,26,28,46.6c-4.3,17.2-19.6,29.2-37.3,29.2
							c-3.1,0-6.3-0.4-9.3-1.2c-20.6-5.1-33.1-26-28-46.6c2.1-8.5,6.9-15.8,13.8-21.1C60.6,196.4,68.9,193.5,77.3,193.5L77.3,193.5
							 M77.3,186.3c-20.5,0-39.1,13.9-44.3,34.7c-6.1,24.5,8.8,49.3,33.3,55.4c3.7,0.9,7.4,1.4,11.1,1.4c20.5,0,39.1-13.9,44.3-34.6
							c6.1-24.5-8.8-49.3-33.3-55.4C84.7,186.8,81,186.3,77.3,186.3L77.3,186.3z"/>
					</g>
                    <g>
						<path class="st1" d="M97.5,225.5c0.9-6.1-3.7-9.3-10.1-11.5l2.1-8.2l-5-1.3l-2,8c-1.3-0.3-2.7-0.6-4-0.9l2-8.1l-5-1.2
							l-2.1,8.2c-1.1-0.2-2.2-0.5-3.2-0.8l0,0l-6.9-1.7l-1.3,5.4c0,0,3.7,0.8,3.6,0.9c2,0.5,2.4,1.9,2.3,2.9l-2.3,9.4
							c0.1,0,0.3,0.1,0.5,0.2c-0.2,0-0.3-0.1-0.5-0.1l-3.3,13.1c-0.3,0.6-0.9,1.5-2.3,1.2c0,0.1-3.6-0.9-3.6-0.9l-2.5,5.7l6.5,1.6
							c1.2,0.3,2.4,0.6,3.6,0.9l-2.1,8.3l5,1.2l2.1-8.2c1.4,0.4,2.7,0.7,4,1l-2,8.2l5,1.2l2.1-8.3c8.5,1.6,15,1,17.7-6.8
							c2.2-6.2-0.1-9.8-4.6-12.2C94.4,232.1,96.9,230,97.5,225.5z M86.1,241.6c-1.6,6.2-12,2.9-15.4,2l2.8-11
							C76.8,233.4,87.7,235.1,86.1,241.6z M87.6,225.4c-1.4,5.7-10.1,2.8-13,2.1l2.5-10C80,218.2,89.1,219.5,87.6,225.4z"/>
					</g>
				</g>
			</g>
            <g>
				<path class="st1" d="M165.6,214c3.7,0,6.9,0.7,9.6,2c2.7,1.3,4.9,3.1,6.7,5.3c1.8,2.2,3.1,4.9,3.9,7.9c0.8,3,1.3,6.3,1.3,9.7
					c0,5.3-1,10.4-2.9,15.1c-2,4.7-4.6,8.9-8,12.4c-3.4,3.5-7.4,6.3-12,8.3c-4.6,2-9.6,3.1-15,3.1c-0.7,0-1.9,0-3.7-0.1
					c-1.7,0-3.7-0.2-5.9-0.5c-2.2-0.3-4.6-0.8-7.1-1.4c-2.5-0.6-4.9-1.5-7.1-2.5l20-84.1l17.9-2.8l-7.2,29.8
					c1.5-0.7,3.1-1.2,4.6-1.6C162.2,214.2,163.8,214,165.6,214z M150.6,263.5c2.7,0,5.2-0.7,7.6-2c2.4-1.3,4.5-3.1,6.2-5.3
					c1.7-2.2,3.1-4.7,4.1-7.5c1-2.8,1.5-5.7,1.5-8.7c0-3.7-0.6-6.6-1.8-8.7c-1.2-2.1-3.5-3.1-6.8-3.1c-1.1,0-2.5,0.2-4.2,0.6
					c-1.7,0.4-3.3,1.2-4.7,2.4l-7.6,31.7c0.5,0.1,0.9,0.2,1.2,0.2c0.3,0.1,0.7,0.1,1.1,0.2c0.4,0,0.8,0.1,1.4,0.1
					C149,263.5,149.7,263.5,150.6,263.5z"/>
                <path class="st1" d="M205.7,276.1h-17.1l14.5-60.8h17.2L205.7,276.1z M214,207.8c-2.4,0-4.6-0.7-6.5-2.1
					c-1.9-1.4-2.9-3.6-2.9-6.5c0-1.6,0.3-3.1,1-4.6c0.7-1.4,1.5-2.7,2.6-3.7c1.1-1,2.3-1.9,3.8-2.5c1.4-0.6,3-0.9,4.6-0.9
					c2.4,0,4.5,0.7,6.5,2.1c1.9,1.4,2.9,3.6,2.9,6.5c0,1.6-0.3,3.1-1,4.6c-0.7,1.4-1.5,2.7-2.6,3.7c-1.1,1-2.3,1.9-3.8,2.5
					C217.2,207.5,215.7,207.8,214,207.8z"/>
                <path class="st1" d="M235.3,200.1l17.9-2.8l-4.4,17.9H268l-3.5,14.1l-19.1,0l-5.1,21.3c-0.5,1.8-0.7,3.4-0.8,5
					c-0.1,1.5,0.1,2.9,0.6,4c0.5,1.1,1.3,2,2.5,2.6c1.2,0.6,2.9,0.9,5.1,0.9c1.8,0,3.6-0.2,5.4-0.5c1.7-0.3,3.5-0.8,5.3-1.4
					l1.3,13.2c-2.3,0.8-4.8,1.6-7.5,2.2c-2.7,0.6-5.9,0.9-9.6,0.9c-5.3,0-9.4-0.8-12.4-2.4c-2.9-1.6-5-3.7-6.2-6.5
					c-1.2-2.7-1.8-5.9-1.6-9.4c0.2-3.6,0.7-7.3,1.6-11.2L235.3,200.1z"/>
                <path class="st1" d="M267.3,251.8c0-5.2,0.8-10.2,2.5-14.8c1.7-4.6,4.1-8.7,7.3-12.2c3.2-3.5,7-6.2,11.5-8.2c4.5-2,9.5-3,15.1-3
					c3.5,0,6.6,0.3,9.3,1c2.7,0.7,5.2,1.5,7.5,2.6l-5.9,13.4c-1.5-0.6-3.1-1.2-4.8-1.7c-1.7-0.5-3.7-0.8-6.1-0.8
					c-5.7,0-10.2,2-13.6,5.9c-3.3,3.9-5,9.2-5,15.9c0,3.9,0.8,7.1,2.6,9.5c1.7,2.4,4.8,3.6,9.4,3.6c2.2,0,4.4-0.2,6.5-0.7
					c2.1-0.5,3.9-1,5.6-1.7l1.3,13.8c-2.2,0.8-4.6,1.6-7.2,2.3c-2.6,0.6-5.8,1-9.4,1c-4.8,0-8.8-0.7-12.1-2.1
					c-3.3-1.4-6.1-3.3-8.2-5.6c-2.2-2.4-3.7-5.1-4.7-8.3C267.7,258.6,267.3,255.3,267.3,251.8z"/>
                <path class="st1" d="M343.3,277.7c-4.1,0-7.6-0.6-10.6-1.9c-3-1.2-5.5-3-7.5-5.2c-2-2.2-3.4-4.9-4.5-7.9c-1-3-1.5-6.4-1.5-10.1
					c0-4.6,0.7-9.3,2.2-13.9c1.5-4.6,3.7-8.8,6.7-12.5c2.9-3.7,6.5-6.7,10.7-9.1c4.2-2.3,9.1-3.5,14.6-3.5c4,0,7.5,0.6,10.6,1.9
					c3,1.2,5.5,3,7.5,5.2c2,2.2,3.4,4.9,4.4,7.9c1,3,1.5,6.4,1.5,10.1c0,4.6-0.7,9.3-2.2,13.9c-1.5,4.6-3.6,8.8-6.5,12.5
					c-2.9,3.7-6.4,6.7-10.7,9.1C353.9,276.5,348.9,277.7,343.3,277.7z M351.9,228.2c-2.5,0-4.8,0.7-6.7,2.2
					c-1.9,1.5-3.5,3.3-4.9,5.6c-1.3,2.2-2.3,4.7-3,7.3c-0.7,2.7-1,5.2-1,7.6c0,3.9,0.6,6.9,1.8,9c1.2,2.2,3.5,3.2,6.7,3.2
					c2.5,0,4.8-0.7,6.7-2.2c1.9-1.5,3.5-3.3,4.9-5.5c1.3-2.2,2.3-4.7,3-7.3c0.6-2.7,1-5.2,1-7.6c0-3.8-0.6-6.9-1.9-9
					C357.3,229.3,355.1,228.2,351.9,228.2z"/>
                <path class="st1" d="M396.2,276.1h-17.1l14.5-60.8h17.2L396.2,276.1z M404.5,207.8c-2.4,0-4.6-0.7-6.5-2.1
					c-1.9-1.4-2.9-3.6-2.9-6.5c0-1.6,0.3-3.1,1-4.6c0.7-1.4,1.5-2.7,2.6-3.7c1.1-1,2.3-1.9,3.8-2.5c1.4-0.6,2.9-0.9,4.6-0.9
					c2.4,0,4.6,0.7,6.5,2.1c1.9,1.4,2.9,3.6,2.9,6.5c0,1.6-0.3,3.1-1,4.6c-0.6,1.4-1.5,2.7-2.6,3.7c-1.1,1-2.3,1.9-3.8,2.5
					C407.7,207.5,406.1,207.8,404.5,207.8z"/>
                <path class="st1" d="M423.1,218c1.3-0.4,2.8-0.8,4.3-1.3c1.6-0.5,3.4-1,5.3-1.4c2-0.4,4.2-0.8,6.6-1c2.4-0.3,5.2-0.4,8.3-0.4
					c9,0,15.3,2.6,18.7,7.9c3.4,5.2,4,12.4,1.8,21.5l-7.9,32.8H443l7.6-32.2c0.5-2,0.8-4,1.1-5.8c0.3-1.9,0.3-3.5-0.1-5
					c-0.3-1.4-1-2.6-2.1-3.5c-1.1-0.9-2.8-1.3-5.2-1.3c-2.2,0-4.5,0.2-6.8,0.7l-11.2,47.1h-17.2L423.1,218z"/>
			</g>
		</g>

	</g>

</g>
</svg>
