<?xml version="1.0"?>
<svg xmlns="http://www.w3.org/2000/svg" height="512px" viewBox="0 0 512 512" width="512px">
    <g>
        <path
            d="m256 0c-141.152344 0-256 114.847656-256 256s114.847656 256 256 256 256-114.847656 256-256-114.847656-256-256-256zm0 490.667969c-129.398438 0-234.667969-105.269531-234.667969-234.667969s105.269531-234.667969 234.667969-234.667969 234.667969 105.269531 234.667969 234.667969-105.269531 234.667969-234.667969 234.667969zm0 0"
            data-original="#000000" class="active-path" data-old_color="#000000" fill="#f5841f"/>
        <path
            d="m458.65625 322.835938c7.082031-21.503907 10.675781-43.988282 10.675781-66.835938 0-117.632812-95.699219-213.332031-213.332031-213.332031s-213.332031 95.699219-213.332031 213.332031 95.699219 213.332031 213.332031 213.332031c82.441406 0 158.324219-48.265625 193.300781-122.964843l-19.328125-9.042969c-8.0625 17.226562-18.570312 32.851562-30.941406 46.621093l-14.816406-14.804687-15.085938 15.082031 14.742188 14.730469c-26.816406 23.894531-60.019532 40.109375-95.871094 46.230469v-18.515625h-21.332031v20.949219c-3.542969.191406-7.09375.382812-10.667969.382812-3.605469 0-7.113281-.339844-10.667969-.542969v-20.789062h-21.332031v18.441406c-36.457031-6.15625-69.375-22.570313-95.796875-46.230469l14.667969-14.664062-15.085938-15.085938-14.664062 14.667969c-28.203125-31.5-46.089844-72.246094-48.578125-117.128906h20.789062v-21.335938h-20.789062c2.488281-44.882812 20.375-85.628906 48.578125-117.128906l14.664062 14.667969 15.085938-15.085938-14.667969-14.664062c26.421875-23.660156 59.339844-40.074219 95.796875-46.230469v18.441406h21.332031v-20.789062c3.554688-.203125 7.0625-.542969 10.667969-.542969s7.113281.339844 10.667969.542969v20.789062h21.332031v-18.441406c36.457031 6.15625 69.375 22.570313 95.796875 46.230469l-14.667969 14.664062 15.085938 15.085938 14.664062-14.667969c28.203125 31.5 46.089844 72.246094 48.578125 117.128906h-20.789062v21.335938h20.917969c-.929688 16.894531-3.925782 33.503906-9.195313 49.480469zm0 0"
            data-original="#000000" class="active-path" data-old_color="#000000" fill="#f5841f"/>
        <path
            d="m355.125 141.792969-99.125 99.125-77.792969-77.792969-15.082031 15.082031 77.792969 77.792969-13.792969 13.792969 15.082031 15.082031 13.792969-13.792969 13.792969 13.792969 15.082031-15.082031-13.792969-13.792969 99.125-99.125zm0 0"
            data-original="#000000" class="active-path" data-old_color="#000000" fill="#f5841f"/>
    </g>
</svg>
