<?xml version="1.0" encoding="UTF-8"?>
<svg width="18px" height="18px" viewBox="0 0 18 18" version="1.1" xmlns="http://www.w3.org/2000/svg" xmlns:xlink="http://www.w3.org/1999/xlink">
    <!-- Generator: sketchtool 54.1 (76490) - https://sketchapp.com -->
    <title>F9C3F9D4-091E-4464-AFA2-201B814C6FA6</title>
    <desc>Created with sketchtool.</desc>
    <g id="MOBİL-UYGULAMA" stroke="none" stroke-width="1" fill="none" fill-rule="evenodd" opacity="0.279924665">
        <g id="iPhone-8-Plus-Copy-22" transform="translate(-780.000000, -318.000000)" fill="#1B315C">
            <g id="9243" transform="translate(780.000000, 318.000000)">
                <path d="M17.9914203,14.2054839 C18.0295622,14.4978874 17.9405127,14.7521243 17.7246455,14.9681944 L15.1902848,17.4850458 C15.0759527,17.6121642 14.926717,17.7203083 14.7425154,17.8091977 C14.5583137,17.8982118 14.3773191,17.9554151 14.1995315,17.9808076 C14.1868279,17.9808076 14.1486238,17.984079 14.0850749,17.990435 C14.0216505,17.9967597 13.9390773,18 13.8374488,18 C13.5960189,18 13.2053532,17.9586865 12.6654518,17.8760284 C12.1255504,17.7933702 11.4649963,17.5899496 10.6837894,17.2658599 C9.9023958,16.941708 9.01635345,16.4554177 8.02550672,15.807176 C7.03465998,15.1589655 5.98023316,14.2690743 4.86231967,13.1376891 C3.97307029,12.260572 3.23626367,11.4215904 2.6518998,10.6207755 C2.06753593,9.81989826 1.59750412,9.07943344 1.24180437,8.39934987 C0.886073481,7.7192663 0.61929867,7.10274194 0.441448795,6.5497768 C0.263598921,5.99681165 0.142915078,5.52011756 0.0793972654,5.11969453 C0.0158794531,4.71927149 -0.00952767184,4.40465339 0.00317589061,4.17584023 C0.0158794531,3.94702707 0.0222312343,3.81990864 0.0222312343,3.79448496 C0.0476383592,3.61651916 0.10480439,3.43537541 0.193729327,3.25105369 C0.282654265,3.06673198 0.390634546,2.91736783 0.51767017,2.80296125 L3.05203088,0.26694869 C3.22988075,0.0889828968 3.43313775,0 3.66180188,0 C3.82694819,0 3.97303916,0.047669409 4.10007478,0.143008227 C4.22711041,0.238347045 4.33509069,0.355931587 4.42401563,0.495761854 L6.4629374,4.36651787 C6.57726946,4.56990734 6.60902837,4.79236459 6.55821412,5.03388959 C6.50739987,5.2754146 6.39941959,5.47880408 6.23427328,5.64405803 L5.30056144,6.57837844 C5.27515431,6.60380213 5.25292308,6.64511562 5.23386773,6.70231891 C5.21481239,6.7595222 5.20528472,6.80719161 5.20528472,6.84532713 C5.25609897,7.11227582 5.37043103,7.41736004 5.5482809,7.76057979 C5.70072365,8.06566401 5.93573956,8.4374854 6.25332862,8.87604396 C6.57091768,9.31460252 7.02189415,9.8198671 7.60625802,10.3919 C8.17791833,10.9767071 8.68606083,11.4310931 9.13068552,11.7553074 C9.57521679,12.0793348 9.94692054,12.3177753 10.2454543,12.4703174 C10.543988,12.6228595 10.7726521,12.7150204 10.9314155,12.7467065 L11.169545,12.7944071 C11.1949521,12.7944071 11.2363321,12.784842 11.2934359,12.7658054 C11.3506019,12.7467065 11.3918885,12.7244919 11.4173268,12.6990371 L12.5034502,11.5931068 C12.7322389,11.3897485 12.9988891,11.2880537 13.3038058,11.2880537 C13.5198286,11.2880537 13.6912333,11.3261581 13.8182689,11.4024603 L13.8372931,11.4024603 L17.5149433,13.5761854 C17.7818116,13.741564 17.9405749,13.951247 17.9914203,14.2054839 Z" id="Path"></path>
            </g>
        </g>
    </g>
</svg>