<?xml version="1.0" encoding="UTF-8"?>
<svg width="37px" height="37px" viewBox="0 0 37 37" version="1.1" xmlns="http://www.w3.org/2000/svg" xmlns:xlink="http://www.w3.org/1999/xlink">
    <!-- Generator: sketchtool 54.1 (76490) - https://sketchapp.com -->
    <title>51512EB7-8EA9-42A0-B2E9-15FAF8B7A072</title>
    <desc>Created with sketchtool.</desc>
    <g id="MOBİL-UYGULAMA" stroke="none" stroke-width="1" fill="none" fill-rule="evenodd">
        <g id="iPhone-8-Plus-Copy-22" transform="translate(-540.000000, -396.000000)" fill-rule="nonzero">
            <g id="201465" transform="translate(540.000000, 396.000000)">
                <path d="M36.9727559,16.1046666 L34.5061133,7.97005888 C34.4264766,7.70754337 34.1874219,7.52832887 33.9167148,7.52832887 L21.8387441,7.52832887 L14.6193359,0.202752901 C14.3787637,-0.0415038488 13.9878789,-0.0415038488 13.7473066,0.202752901 L6.52789844,7.52832887 L3.08335742,7.52832887 C2.81265039,7.52832887 2.5735957,7.70754337 2.49395898,7.97005888 L0.0272441406,16.1046666 C-0.0302792969,16.2945137 0.0043359375,16.500713 0.120611328,16.6604222 C0.236814453,16.8201313 0.420947266,16.9144316 0.616642578,16.9144316 L2.46664258,16.9144316 L2.46664258,36.3122013 C2.46664258,36.6577978 2.74276953,36.9379121 3.08328516,36.9379121 L6.78328516,36.9379121 L11.1,36.9379121 L17.2666426,36.9379121 L21.5832852,36.9379121 L33.9166426,36.9379121 C34.2572305,36.9379121 34.5332852,36.6577245 34.5332852,36.3122013 L34.5332852,16.9143583 L36.3832852,16.9143583 C36.5789805,16.9143583 36.7631133,16.8201313 36.8793887,16.6604222 C36.9956641,16.500713 37.0302793,16.2944404 36.9727559,16.1046666 Z M6.16664258,35.6864171 L3.7,35.6864171 L3.7,16.9143583 L6.16664258,16.9143583 L6.16664258,35.6864171 Z M6.16664258,15.6629366 L3.08335742,15.6629366 L1.45159961,15.6629366 L3.53870312,8.7798239 L6.16664258,8.7798239 L6.16664258,15.6629366 Z M16.65,35.6864171 L11.7166426,35.6864171 L11.7166426,25.6746768 L16.65,25.6746768 L16.65,35.6864171 Z M20.9666426,16.2886474 L20.9667148,35.6864904 L17.8832852,35.6864171 L17.8832852,25.048966 C17.8832852,24.7033695 17.6071582,24.4232551 17.2666426,24.4232551 L11.1,24.4232551 C10.7594121,24.4232551 10.4833574,24.7034428 10.4833574,25.048966 L10.4833574,35.6864904 L7.4,35.6864904 L7.4,16.2886474 L7.4,8.41325546 L14.1833574,1.53014278 L20.9667148,8.41325546 L20.9667148,16.2886474 L20.9666426,16.2886474 Z M33.3,35.6864171 L22.2,35.6864171 L22.2,16.9143583 L33.3,16.9143583 L33.3,35.6864171 L33.3,35.6864171 Z M33.9166426,15.6629366 L22.2,15.6629366 L22.2,8.7798239 L33.4612246,8.7798239 L35.5483281,15.6629366 L33.9166426,15.6629366 Z" id="Shape" fill="#20345C"></path>
                <path d="M32.0666426,20.0430592 L28.9832852,20.0430592 C28.6426973,20.0430592 28.3666426,20.3232468 28.3666426,20.66877 L28.3666426,31.3062945 C28.3666426,31.6518177 28.6427695,31.9320053 28.9832852,31.9320053 L32.0666426,31.9320053 C32.4072305,31.9320053 32.6832852,31.6518177 32.6832852,31.3062945 L32.6832852,20.66877 C32.6833574,20.3232468 32.4072305,20.0430592 32.0666426,20.0430592 Z M31.45,30.6805836 L29.6,30.6805836 L29.6,21.2945542 L31.45,21.2945542 L31.45,30.6805836 Z" id="Shape" fill="#63C4D1"></path>
                <path d="M26.5166426,20.0430592 L23.4332852,20.0430592 C23.0926973,20.0430592 22.8166426,20.3232468 22.8166426,20.66877 L22.8166426,31.3062945 C22.8166426,31.6518177 23.0927695,31.9320053 23.4332852,31.9320053 L26.5166426,31.9320053 C26.8572305,31.9320053 27.1332852,31.6518177 27.1332852,31.3062945 L27.1332852,20.66877 C27.1333574,20.3232468 26.8572305,20.0430592 26.5166426,20.0430592 Z M25.9,30.6805836 L24.05,30.6805836 L24.05,21.2945542 L25.9,21.2945542 L25.9,30.6805836 Z" id="Shape" fill="#63C4D1"></path>
                <path d="M17.2666426,8.15411305 L11.1,8.15411305 C10.7594121,8.15411305 10.4833574,8.4343007 10.4833574,8.7798239 L10.4833574,15.6629366 C10.4833574,16.0084598 10.7594844,16.2886474 11.1,16.2886474 L17.2666426,16.2886474 C17.6072305,16.2886474 17.8832852,16.0084598 17.8832852,15.6629366 L17.8832852,8.7798239 C17.8833574,8.4343007 17.6072305,8.15411305 17.2666426,8.15411305 Z M16.65,15.0371524 L11.7166426,15.0371524 L11.7166426,9.40553475 L16.65,9.40553475 L16.65,15.0371524 Z" id="Shape" fill="#63C4D1"></path>
            </g>
        </g>
    </g>
</svg>