<?xml version="1.0" encoding="UTF-8"?>
<svg width="38px" height="27px" viewBox="0 0 38 27" version="1.1" xmlns="http://www.w3.org/2000/svg" xmlns:xlink="http://www.w3.org/1999/xlink">
    <!-- Generator: sketchtool 54.1 (76490) - https://sketchapp.com -->
    <title>9F45F8C1-46A5-48AD-A86B-40634DD89BCB</title>
    <desc>Created with sketchtool.</desc>
    <g id="MOBİL-UYGULAMA" stroke="none" stroke-width="1" fill="none" fill-rule="evenodd" opacity="0.634579613">
        <g id="iPhone-8-Plus-Copy-21" transform="translate(-25.000000, -547.000000)" fill="#FFFFFF">
            <g id="identification" transform="translate(25.000000, 547.000000)">
                <path d="M11.3525,13.1959459 C13.6129557,13.1959459 15.4454167,11.4362331 15.4454167,9.2660473 C15.4454167,7.09562396 13.6129557,5.33614865 11.3525,5.33614865 C9.09204429,5.33614865 7.25958333,7.09562396 7.25958333,9.2660473 C7.26255208,11.4352829 9.09328125,13.1930954 11.3525,13.1959459 Z M11.3525,6.86402027 C12.7384114,6.86402027 13.8620833,7.94269952 13.8620833,9.27364865 C13.8620833,10.6043602 12.7384114,11.683277 11.3525,11.683277 C9.96634113,11.683277 8.84291667,10.6043602 8.84291667,9.27364865 C8.84341143,7.94293711 9.96658857,6.86449532 11.3525,6.86402027 Z" id="Shape" fill-rule="nonzero"></path>
                <path d="M11.3525,14.6478041 C9.67787762,14.635927 8.07054691,15.2813292 6.90333333,16.4341216 C5.71583333,17.5971284 5.06666667,19.1782095 5.06666667,20.8961149 C5.06790363,21.3153769 5.4216797,21.6550623 5.85833333,21.65625 L16.8466667,21.65625 C17.2833203,21.6550623 17.6370964,21.3153769 17.6383333,20.8961149 C17.6383333,19.1782095 16.9891667,17.5971284 15.8016667,16.4341216 C14.6344531,15.2813292 13.0273698,14.635927 11.3525,14.6478041 Z M6.70541667,20.1359797 C6.84098958,19.142103 7.30757809,18.2171136 8.03541667,17.4983108 C8.9114453,16.647197 10.1061198,16.1680743 11.3525,16.1680743 C12.5988802,16.1680743 13.7935547,16.647197 14.6695833,17.4983108 C15.3959375,18.2178262 15.8625261,19.1425781 15.9995833,20.1359797 L6.70541667,20.1359797 Z" id="Shape" fill-rule="nonzero"></path>
                <path d="M34.0416667,0.0456081081 L3.95833333,0.0456081081 C1.77259113,0.046558277 0.000989583333,1.74759817 0,3.84628378 L0,23.1537162 C0.000989583333,25.2524018 1.77259113,26.9534417 3.95833333,26.9543919 L34.0416667,26.9543919 C36.2274089,26.9534417 37.9990104,25.2524018 38,23.1537162 L38,3.84628378 C37.9990104,1.74759817 36.2274089,0.046558277 34.0416667,0.0456081081 Z M36.4166667,23.1537162 C36.4129557,24.4115023 35.3516276,25.4305585 34.0416667,25.4341216 L3.95833333,25.4341216 C2.64837238,25.4305585 1.58704429,24.4115023 1.58333333,23.1537162 L1.58333333,3.84628378 C1.58704429,2.58849766 2.64837238,1.56944153 3.95833333,1.56587838 L34.0416667,1.56587838 C35.3516276,1.56944153 36.4129557,2.58849766 36.4166667,3.84628378 L36.4166667,23.1537162 Z" id="Shape" fill-rule="nonzero"></path>
                <path d="M32.0941667,12.7398649 L22.87125,12.7398649 C22.4341015,12.7398649 22.0795833,13.0800253 22.0795833,13.5 C22.0795833,13.9199747 22.4341015,14.2601351 22.87125,14.2601351 L32.0941667,14.2601351 C32.5313151,14.2601351 32.8858333,13.9199747 32.8858333,13.5 C32.8858333,13.0800253 32.5313151,12.7398649 32.0941667,12.7398649 Z" id="Path"></path>
                <path d="M32.0941667,17.6047297 L22.87125,17.6047297 C22.4341015,17.6047297 22.0795833,17.9448902 22.0795833,18.3648649 C22.0795833,18.7848395 22.4341015,19.125 22.87125,19.125 L32.0941667,19.125 C32.5313151,19.125 32.8858333,18.7848395 32.8858333,18.3648649 C32.8858333,17.9448902 32.5313151,17.6047297 32.0941667,17.6047297 Z" id="Path"></path>
                <path d="M32.0941667,7.875 L22.87125,7.875 C22.4341015,7.875 22.0795833,8.21516047 22.0795833,8.63513514 C22.0795833,9.0551098 22.4341015,9.39527027 22.87125,9.39527027 L32.0941667,9.39527027 C32.5313151,9.39527027 32.8858333,9.0551098 32.8858333,8.63513514 C32.8858333,8.21516047 32.5313151,7.875 32.0941667,7.875 Z" id="Path"></path>
            </g>
        </g>
    </g>
</svg>