<?xml version="1.0" encoding="UTF-8"?>
<svg width="28px" height="28px" viewBox="0 0 28 28" version="1.1" xmlns="http://www.w3.org/2000/svg" xmlns:xlink="http://www.w3.org/1999/xlink">
    <!-- Generator: sketchtool 54.1 (76490) - https://sketchapp.com -->
    <title>304E80E6-04BE-4057-92D1-7A0EBF46B1F6</title>
    <desc>Created with sketchtool.</desc>
    <g id="MOBİL-UYGULAMA" stroke="none" stroke-width="1" fill="none" fill-rule="evenodd">
        <g id="iPhone-8-Plus-Copy-22" transform="translate(-946.000000, -98.000000)" fill="#FFFFFF">
            <g id="iconfinder_add_134224" transform="translate(946.000000, 98.000000)">
                <path d="M26,12 L16,12 L16,2 C16,0.896 15.104,0 14,0 C12.896,0 12,0.896 12,2 L12,12 L2,12 C0.896,12 0,12.896 0,14 C0,15.104 0.896,16 2,16 L12,16 L12,26 C12,27.104 12.896,28 14,28 C15.104,28 16,27.104 16,26 L16,16 L26,16 C27.104,16 28,15.104 28,14 C28,12.896 27.104,12 26,12 Z" id="Path"></path>
            </g>
        </g>
    </g>
</svg>