<?xml version="1.0" encoding="UTF-8"?>
<svg width="29px" height="29px" viewBox="0 0 29 29" version="1.1" xmlns="http://www.w3.org/2000/svg" xmlns:xlink="http://www.w3.org/1999/xlink">
    <!-- Generator: sketchtool 54.1 (76490) - https://sketchapp.com -->
    <title>32E60B03-965B-4DC1-8B4D-DD901A950F46</title>
    <desc>Created with sketchtool.</desc>
    <g id="MOBİL-UYGULAMA" stroke="none" stroke-width="1" fill="none" fill-rule="evenodd">
        <g id="iPhone-8-Plus-Copy-21" transform="translate(-351.000000, -23.000000)" fill="#FFFFFF">
            <g id="9243" transform="translate(351.000000, 23.000000)">
                <path d="M28.9861772,22.8866129 C29.0476279,23.3577075 28.9041593,23.7673113 28.5563733,24.1154244 L24.4732366,28.1703515 C24.289035,28.3751534 24.0485997,28.5493856 23.7518303,28.6925964 C23.455061,28.8360079 23.1634585,28.9281687 22.8770229,28.9690789 C22.8565561,28.9690789 22.795005,28.9743496 22.6926206,28.9845897 C22.5904369,28.9947796 22.4574023,29 22.2936675,29 C21.904697,29 21.2752912,28.9334394 20.4054501,28.8002679 C19.5356089,28.6670965 18.4713829,28.3393633 17.2127719,27.8172188 C15.9538599,27.2949739 14.5263472,26.5115063 12.929983,25.4671169 C11.3336189,24.4227778 9.6348201,22.9890641 7.83373724,21.1662769 C6.4010577,19.7531438 5.21398036,18.4014512 4.27250523,17.1112494 C3.3310301,15.8209472 2.57375663,14.6279761 2.00068481,13.5322859 C1.42756283,12.4365957 0.997758968,11.4433065 0.711223059,10.5524182 C0.424687151,9.66152989 0.23025207,8.89352274 0.127917816,8.24839674 C0.0255835633,7.60327074 -0.015350138,7.09638602 0.00511671266,6.72774259 C0.0255835633,6.35909916 0.0358169886,6.15429726 0.0358169886,6.11333688 C0.0767506899,5.82661421 0.168851518,5.53477149 0.312119472,5.23780873 C0.455387426,4.94084597 0.629355657,4.70020373 0.834024163,4.51588201 L4.91716086,0.430084001 C5.20369677,0.143361334 5.53116638,0 5.89956969,0 C6.16563875,0 6.40100753,0.0768007145 6.60567604,0.230402144 C6.81034455,0.384003573 6.98431278,0.573445335 7.12758073,0.798727431 L10.4125103,7.03494545 C10.5967119,7.3626285 10.647879,7.72103183 10.5660116,8.11015545 C10.4841442,8.49927907 10.310176,8.82696212 10.0441069,9.0932046 L8.53979342,10.5984986 C8.49885972,10.639459 8.46304273,10.7060196 8.43234246,10.7981805 C8.40164218,10.8903413 8.38629204,10.967142 8.38629204,11.0285826 C8.46815945,11.4586666 8.6523611,11.9501912 8.93889701,12.5031563 C9.18449922,12.9946809 9.56313596,13.5937265 10.0748072,14.300293 C10.5864785,15.0068596 11.3130517,15.820897 12.2545268,16.7425056 C13.1755351,17.6846947 13.9942091,18.4167611 14.7105489,18.9391064 C15.4267382,19.4611505 16.0255942,19.8453046 16.5065652,20.0910669 C16.9875362,20.3368292 17.3559395,20.4853106 17.611725,20.5363605 L17.9953781,20.6132114 C18.0363118,20.6132114 18.1029795,20.597801 18.19498,20.567131 C18.2870809,20.5363605 18.3535981,20.5005703 18.394582,20.4595598 L20.1444476,18.6777832 C20.5130515,18.3501503 20.9426547,18.1863088 21.4339093,18.1863088 C21.7819461,18.1863088 22.0580981,18.2476992 22.2627666,18.3706305 L22.2934167,18.3706305 L28.2185198,21.8727431 C28.6484742,22.1391864 28.9042596,22.4770091 28.9861772,22.8866129 Z" id="Path"></path>
            </g>
        </g>
    </g>
</svg>