<?xml version="1.0" encoding="UTF-8"?>
<svg width="15px" height="9px" viewBox="0 0 15 9" version="1.1" xmlns="http://www.w3.org/2000/svg" xmlns:xlink="http://www.w3.org/1999/xlink">
    <!-- Generator: sketchtool 54.1 (76490) - https://sketchapp.com -->
    <title>FD803AC8-7C66-4843-9E17-49F6DB313FF9</title>
    <desc>Created with sketchtool.</desc>
    <g id="MOBİL-UYGULAMA" stroke="none" stroke-width="1" fill="none" fill-rule="evenodd">
        <g id="iPhone-8-Plus-Copy-23" transform="translate(-425.000000, -250.000000)" fill="#23375E">
            <g id="25629-copy-7" transform="translate(432.500000, 254.500000) rotate(-270.000000) translate(-432.500000, -254.500000) translate(428.000000, 247.000000)">
                <path d="M11.3103244,4.29055159 L10.6220683,3.65534733 C10.3835625,3.44653906 10.1050002,3.34210526 9.78702457,3.34210526 C9.46249072,3.34210526 9.18723972,3.44653906 8.9608215,3.65534733 L4.50003214,7.77106517 L0.0392749381,3.65546597 C-0.187111134,3.4466577 -0.462426432,3.3422239 -0.786831694,3.3422239 C-1.1049681,3.3422239 -1.38346605,3.4466577 -1.62200406,3.65546597 L-2.30122657,4.29067023 C-2.53378505,4.5050843 -2.65,4.76203118 -2.65,5.0612736 C-2.65,5.36609216 -2.53365646,5.62013234 -2.30125872,5.82333482 L3.67389336,11.3361402 C3.89426776,11.5505839 4.16948662,11.6578947 4.5,11.6578947 C4.82430881,11.6578947 5.10277461,11.5506136 5.33510806,11.3361402 L11.3102923,5.82333482 C11.5367105,5.61440791 11.65,5.36039739 11.65,5.0612736 C11.6500321,4.76760731 11.5367427,4.51080873 11.3103244,4.29055159 Z" id="Path" transform="translate(4.500000, 7.500000) rotate(-90.000000) translate(-4.500000, -7.500000) "></path>
            </g>
        </g>
    </g>
</svg>