<?xml version="1.0" encoding="UTF-8"?>
<svg width="13px" height="21px" viewBox="0 0 13 21" version="1.1" xmlns="http://www.w3.org/2000/svg" xmlns:xlink="http://www.w3.org/1999/xlink">
    <!-- Generator: sketchtool 54.1 (76490) - https://sketchapp.com -->
    <title>DF347EEF-1465-4DEC-8993-8388E21AC6E6</title>
    <desc>Created with sketchtool.</desc>
    <g id="MOBİL-UYGULAMA" stroke="none" stroke-width="1" fill="none" fill-rule="evenodd">
        <g id="iPhone-8-Plus-Copy-21" transform="translate(-18.000000, -1341.000000)" fill="#FFFFFF">
            <g id="25629-copy-3" transform="translate(24.500000, 1351.500000) scale(-1, 1) translate(-24.500000, -1351.500000) translate(18.000000, 1341.000000)">
                <path d="M16.1678032,5.74676628 L15.1907684,4.80602073 C14.8521901,4.49677304 14.4567486,4.34210526 14.0053566,4.34210526 C13.5446547,4.34210526 13.1539137,4.49677304 12.8324949,4.80602073 L6.50004563,10.901451 L0.167642045,4.80619644 C-0.153731191,4.49694875 -0.544563396,4.34228097 -1.00508275,4.34228097 C-1.45670297,4.34228097 -1.8520532,4.49694875 -2.19067709,4.80619644 L-3.15488807,5.74694199 C-3.48502354,6.06449193 -3.65,6.44503352 -3.65,6.88821534 C-3.65,7.33965548 -3.48484099,7.7158922 -3.1549337,8.01683764 L5.3272752,16.1813722 C5.64011438,16.498966 6.03080967,16.6578947 6.5,16.6578947 C6.96038244,16.6578947 7.35568704,16.4990099 7.68550305,16.1813722 L16.1677576,8.01683764 C16.4891765,7.70741424 16.65,7.33122145 16.65,6.88821534 C16.6500456,6.45329184 16.4892221,6.07296989 16.1678032,5.74676628 Z" id="Path" transform="translate(6.500000, 10.500000) rotate(-90.000000) translate(-6.500000, -10.500000) "></path>
            </g>
        </g>
    </g>
</svg>