<?xml version="1.0" encoding="UTF-8"?>
<svg width="50px" height="43px" viewBox="0 0 50 43" version="1.1" xmlns="http://www.w3.org/2000/svg" xmlns:xlink="http://www.w3.org/1999/xlink">
    <!-- Generator: sketchtool 54.1 (76490) - https://sketchapp.com -->
    <title>F27699FB-2680-4C0C-924D-4708D548822F</title>
    <desc>Created with sketchtool.</desc>
    <g id="MOBİL-UYGULAMA" stroke="none" stroke-width="1" fill="none" fill-rule="evenodd">
        <g id="iPhone-8-Plus-Copy-21" transform="translate(-21.000000, -957.000000)" fill="#FFFFFF" fill-rule="nonzero">
            <g id="iconfinder_101_Warning_183533" transform="translate(21.000000, 957.000000)">
                <path d="M21.9444201,2.06988282 C23.6329093,-0.693252431 26.3745154,-0.686667489 28.0589808,2.06988282 L48.989011,36.3209161 C51.2431263,40.0096722 49.6011609,43 45.3237087,43 L4.67969212,43 C0.40128624,43 -1.24700528,40.0215854 1.01438984,36.3209161 L21.9444201,2.06988282 Z M25,29 C26.1045694,29 27,28.0939274 27,27.0059398 L27,14.9940602 C27,13.8927712 26.1122704,13 25,13 C23.8954306,13 23,13.9060726 23,14.9940602 L23,27.0059398 C23,28.1072288 23.8877296,29 25,29 Z M25,37 C26.1045696,37 27,36.1045696 27,35 C27,33.8954304 26.1045696,33 25,33 C23.8954304,33 23,33.8954304 23,35 C23,36.1045696 23.8954304,37 25,37 Z" id="Triangle-29"></path>
            </g>
        </g>
    </g>
</svg>