<?xml version="1.0" encoding="UTF-8"?>
<svg width="36px" height="44px" viewBox="0 0 36 44" version="1.1" xmlns="http://www.w3.org/2000/svg" xmlns:xlink="http://www.w3.org/1999/xlink">
    <!-- Generator: sketchtool 54.1 (76490) - https://sketchapp.com -->
    <title>B44C60FD-22C5-418D-869B-DD46FA17137D</title>
    <desc>Created with sketchtool.</desc>
    <g id="MOBİL-UYGULAMA" stroke="none" stroke-width="1" fill="none" fill-rule="evenodd">
        <g id="iPhone-8-Plus-Copy-22" transform="translate(-545.000000, -233.000000)">
            <g id="179963" transform="translate(545.000000, 233.000000)">
                <path d="M13.2058537,24.155102 L13.2058537,17.2318367 C13.2058537,16.9355102 13.0565854,16.6571429 12.8195122,16.4955102 C12.1785366,16.0555102 11.7921951,15.3281633 11.7921951,14.5379592 L11.7921951,7.35428571 C11.7921951,4.27428571 14.2419512,1.77795918 17.244878,1.77795918 L18.755122,1.77795918 C21.7668293,1.77795918 24.2078049,4.28326531 24.2078049,7.35428571 L24.2078049,14.5379592 C24.2078049,15.3281633 23.8214634,16.0555102 23.1804878,16.4955102 C22.9346341,16.6571429 22.7941463,16.9355102 22.7941463,17.2318367 L22.7941463,24.155102 C22.7941463,24.6220408 23.0487805,25.035102 23.4526829,25.2416327 C24.3395122,25.6816327 28.9931707,28.0881633 33.2780488,31.6889796 C33.8663415,32.1828571 34.2,32.9102041 34.2,33.6914286 L34.2,38.6122449 C34.2,39.1061224 34.5863415,39.5012245 35.0692683,39.5012245 C35.5521951,39.5012245 35.9385366,39.1061224 35.9385366,38.6122449 L35.9385366,33.6914286 C35.9385366,32.3804082 35.3678049,31.1502041 34.3843902,30.315102 C30.3190244,26.9028571 25.9463415,24.5322449 24.5326829,23.804898 L24.5326829,17.6718367 C25.4282927,16.8906122 25.9463415,15.7502041 25.9463415,14.5379592 L25.9463415,7.35428571 C25.9463415,3.2955102 22.715122,-5.68434189e-14 18.755122,-5.68434189e-14 L17.244878,-5.68434189e-14 C13.2760976,-5.68434189e-14 10.0536585,3.3044898 10.0536585,7.35428571 L10.0536585,14.5379592 C10.0536585,15.7502041 10.5717073,16.8906122 11.4673171,17.6718367 L11.4673171,23.804898 C10.0536585,24.5322449 5.68097561,26.9028571 1.61560976,30.315102 C0.623414634,31.1412245 0.0614634146,32.3714286 0.0614634146,33.6914286 L0.0614634146,38.6122449 C0.0614634146,39.1061224 0.447804878,39.5012245 0.930731707,39.5012245 C1.41365854,39.5012245 1.8,39.1061224 1.8,38.6122449 L1.8,33.6914286 C1.8,32.9102041 2.13365854,32.1828571 2.72195122,31.6889796 C7.00682927,28.0881633 11.6604878,25.6906122 12.5473171,25.2416327 C12.9512195,25.035102 13.2058537,24.6220408 13.2058537,24.155102 Z" id="Path" fill="#20345C"></path>
                <path d="M23.0663415,34.32 L15.6995122,41.8538776 L12.9336585,39.0253061 C12.5912195,38.675102 12.0468293,38.675102 11.7043902,39.0253061 C11.3619512,39.3755102 11.3619512,39.9322449 11.7043902,40.282449 L15.084878,43.7395918 C15.2517073,43.9102041 15.48,44 15.6995122,44 C15.9190244,44 16.1473171,43.9102041 16.3141463,43.7395918 L24.2956098,35.5771429 C24.6380488,35.2269388 24.6380488,34.6702041 24.2956098,34.32 C23.9531707,33.9787755 23.4087805,33.9787755 23.0663415,34.32 Z" id="Path" fill="#63C4D1"></path>
            </g>
        </g>
    </g>
</svg>