<svg width="236" height="46" viewBox="0 0 236 46" fill="none" xmlns="http://www.w3.org/2000/svg">
<g clip-path="url(#clip0_14_386)">
<path d="M188.528 23.8749C188.524 23.6158 188.574 23.3587 188.675 23.1198C188.777 22.8809 188.927 22.6654 189.116 22.4871C189.494 22.1155 190.004 21.906 190.536 21.9038C190.937 21.9038 191.329 22.0217 191.662 22.2428C191.996 22.4638 192.256 22.7779 192.409 23.1454C192.563 23.513 192.603 23.9174 192.525 24.3075C192.447 24.6977 192.253 25.0561 191.97 25.3374C191.686 25.6187 191.325 25.8103 190.931 25.8879C190.538 25.9655 190.13 25.9257 189.76 25.7735C189.389 25.6212 189.073 25.3633 188.85 25.0326C188.627 24.7018 188.508 24.313 188.508 23.9152L188.528 23.8749Z" fill="#FFD9C3"/>
<path d="M194.267 24.0962C193.438 23.2494 192.877 22.1798 192.655 21.0202C192.432 19.8606 192.557 18.6617 193.015 17.572C193.473 16.4823 194.243 15.5496 195.229 14.8895C196.216 14.2294 197.376 13.8709 198.566 13.8583C199.36 13.8439 200.149 13.9898 200.885 14.2872C201.62 14.5846 202.287 15.0271 202.845 15.588C203.066 15.8119 203.276 16.047 203.473 16.2921L203.778 16.7345L201.304 18.5649L200.939 18.1022C200.624 17.714 200.216 17.4107 199.753 17.2205C199.289 17.0304 198.784 16.9595 198.285 17.0144C197.786 17.0693 197.309 17.2483 196.899 17.5348C196.488 17.8213 196.157 18.2059 195.937 18.6531C195.716 19.1002 195.613 19.5954 195.636 20.0927C195.66 20.59 195.81 21.0734 196.072 21.4979C196.335 21.9224 196.701 22.2744 197.136 22.5211C197.572 22.7679 198.064 22.9014 198.566 22.9094C199.041 22.8888 199.505 22.7558 199.917 22.5214C200.33 22.2869 200.68 21.9579 200.939 21.5618L201.263 21.0991L203.859 22.9296L203.473 23.4123C203.417 23.4956 203.349 23.5702 203.271 23.6335C203.149 23.7944 202.987 23.9553 202.845 24.1162C201.703 25.2285 200.166 25.85 198.566 25.8461C196.956 25.85 195.41 25.2207 194.267 24.0962Z" fill="#FFD9C3"/>
<path d="M205.522 24.0963C204.404 22.9518 203.773 21.4252 203.757 19.8321C203.753 18.2352 204.388 16.7018 205.522 15.568C206.683 14.4606 208.23 13.8408 209.841 13.8383C210.632 13.8267 211.417 13.974 212.148 14.2713C212.88 14.5685 213.544 15.0096 214.099 15.568C214.94 16.4105 215.512 17.4798 215.743 18.6425C215.975 19.8052 215.856 21.0099 215.402 22.1061C214.948 23.2023 214.178 24.1415 213.189 24.8066C212.2 25.4718 211.036 25.8334 209.841 25.8462C208.228 25.8341 206.682 25.2076 205.522 24.0963ZM206.738 19.8321C206.75 20.4381 206.942 21.0271 207.29 21.5252C207.639 22.0232 208.127 22.4082 208.695 22.6319C209.263 22.8556 209.885 22.908 210.483 22.7825C211.08 22.657 211.628 22.3593 212.055 21.9266C212.483 21.4939 212.773 20.9456 212.888 20.3503C213.002 19.7551 212.938 19.1395 212.701 18.5807C212.465 18.0218 212.067 17.5447 211.558 17.2091C211.049 16.8736 210.452 16.6945 209.841 16.6944C209.011 16.705 208.219 17.041 207.637 17.6289C207.056 18.2167 206.733 19.0087 206.738 19.8321Z" fill="#FFD9C3"/>
<path d="M232.958 25.5846V19.4298C232.989 19.0903 232.949 18.748 232.839 18.4249C232.729 18.1018 232.553 17.8048 232.321 17.553C232.089 17.3013 231.807 17.1002 231.493 16.9626C231.178 16.8251 230.838 16.7539 230.494 16.7539C230.151 16.7539 229.811 16.8251 229.496 16.9626C229.182 17.1002 228.9 17.3013 228.668 17.553C228.436 17.8048 228.26 18.1018 228.15 18.4249C228.04 18.748 228 19.0903 228.031 19.4298V25.5846H224.847V19.4298C224.847 18.7844 224.588 18.1653 224.128 17.7089C223.668 17.2525 223.044 16.996 222.393 16.996C221.742 16.996 221.118 17.2525 220.658 17.7089C220.198 18.1653 219.94 18.7844 219.94 19.4298V25.5846H216.736V14.0795H219.899V14.9043C220.214 14.5731 220.595 14.3095 221.017 14.1296C221.439 13.9497 221.893 13.8574 222.353 13.8583C223.099 13.8576 223.837 14.0081 224.523 14.3007C225.196 14.6225 225.812 15.0505 226.348 15.5679C226.872 15.0377 227.491 14.6081 228.173 14.3007C228.858 14.0081 229.596 13.8576 230.342 13.8583C231.082 13.8529 231.814 13.9934 232.498 14.2715C233.182 14.5496 233.804 14.9597 234.326 15.4782C234.849 15.9966 235.262 16.613 235.543 17.2914C235.823 17.9698 235.965 18.6967 235.959 19.4298V25.5846H232.958Z" fill="#FFD9C3"/>
<path d="M160.767 19.5305V11.0626H166.263V6.11467H160.767V0.0805664H155.312V6.11467H152.412V11.0626H155.353V19.631C155.341 20.6009 155.525 21.5634 155.894 22.4616C156.263 23.3598 156.81 24.1754 157.502 24.8605C158.907 26.2344 160.802 27.001 162.775 26.9926H166.83V21.7228H162.775C162.228 21.6638 161.721 21.4083 161.352 21.0044C160.982 20.6004 160.774 20.0761 160.767 19.5305Z" fill="#FFD9C3"/>
<path d="M121.103 19.5305V11.0626H126.598V6.11467H121.103V0.0805664H115.648V6.11467H112.748V11.0626H115.668V19.631C115.655 20.6028 115.841 21.5671 116.214 22.4659C116.586 23.3646 117.139 24.1792 117.838 24.8605C119.241 26.2363 121.137 27.0032 123.11 26.9926H127.166V21.7228H123.11C122.563 21.6638 122.057 21.4083 121.687 21.0044C121.317 20.6004 121.109 20.0761 121.103 19.5305Z" fill="#FFD9C3"/>
<path d="M110.538 6.13464H104.92V26.9925H110.538V6.13464Z" fill="#D6385E"/>
<path d="M110.538 0H104.92V4.30433H110.538V0Z" fill="#D6385E"/>
<path d="M175.023 6.13464H169.406V26.9925H175.023V6.13464Z" fill="#FFD9C3"/>
<path d="M183.722 0H178.105V26.9926H183.722V0Z" fill="#FFD9C3"/>
<path d="M53.8189 0H48.2018V26.9926H53.8189V0Z" fill="#D6385E"/>
<path d="M175.023 0H169.406V4.30433H175.023V0Z" fill="#FFD9C3"/>
<path d="M5.84012 25.5645L5.59679 25.3433L4.68424 26.9725H0.0405273V0H5.59679V8.04547L5.84012 7.86452C7.24825 6.56136 9.10555 5.84174 11.0314 5.85315C12.4682 5.83813 13.8935 6.10788 15.2237 6.6467C16.5539 7.18552 17.7623 7.98255 18.7778 8.99088C20.3105 10.5099 21.3545 12.4458 21.7776 14.5536C22.2006 16.6613 21.9837 18.8461 21.1544 20.8316C20.325 22.8171 18.9205 24.5139 17.1185 25.7073C15.3165 26.9007 13.1981 27.5369 11.0314 27.5356C10.0758 27.58 9.12127 27.4278 8.22788 27.0885C7.33449 26.7493 6.52157 26.2305 5.84012 25.5645ZM11.0314 22.0648C12.1352 22.0888 13.2212 21.786 14.1508 21.1952C15.0803 20.6044 15.8114 19.7522 16.2506 18.7476C16.6899 17.7429 16.8174 16.6312 16.617 15.5543C16.4165 14.4775 15.8972 13.4842 15.1252 12.7013C14.3532 11.9184 13.3636 11.3814 12.2826 11.1588C11.2016 10.9362 10.0782 11.0381 9.05578 11.4514C8.03339 11.8648 7.15835 12.5709 6.54226 13.4796C5.92618 14.3884 5.59705 15.4586 5.59679 16.5536C5.59617 17.9878 6.15926 19.3658 7.16643 20.3948C8.17361 21.4239 9.54547 22.0229 10.9908 22.0648H11.0314Z" fill="#D6385E"/>
<path d="M84.7434 33.8514L87.7447 27.0126L79.3494 6.11462H85.4329L90.6647 19.0879L95.998 6.11462H102.081L90.6647 33.8514H84.7434Z" fill="#D6385E"/>
<path d="M39.8065 7.965L39.5835 7.78393C38.1838 6.48026 36.3325 5.76014 34.4125 5.77256C32.9729 5.75934 31.545 6.02992 30.2118 6.56856C28.8785 7.1072 27.6664 7.90317 26.6458 8.91029C25.1088 10.4278 24.0617 12.3646 23.6376 14.4741C23.2136 16.5836 23.4318 18.7705 24.2645 20.7567C25.0972 22.7428 26.5068 24.4383 28.3139 25.6276C30.121 26.8168 32.2439 27.446 34.4125 27.435C35.3547 27.4963 36.2996 27.3655 37.1889 27.0507C38.0782 26.7359 38.8932 26.2439 39.5835 25.6047L39.8065 25.3834L40.8204 27.0126H45.3628V6.13459H41.3071L39.8065 7.965ZM34.4125 22.0446C33.3072 22.0766 32.2174 21.7808 31.2826 21.1951C30.3478 20.6093 29.6104 19.7601 29.1649 18.7563C28.7194 17.7526 28.586 16.6397 28.7817 15.5603C28.9774 14.4809 29.4934 13.4839 30.2636 12.6969C31.0338 11.91 32.0232 11.3689 33.1052 11.1429C34.1872 10.9169 35.3126 11.0162 36.3374 11.4282C37.3621 11.8402 38.2397 12.546 38.8577 13.4555C39.4757 14.365 39.806 15.4367 39.8065 16.5335C39.8176 17.9726 39.2585 19.3586 38.2497 20.393C37.2409 21.4275 35.863 22.0279 34.4125 22.0647V22.0446Z" fill="#D6385E"/>
<path d="M73.0225 7.965L72.7791 7.78393C71.3806 6.47848 69.5286 5.75807 67.6082 5.77256C66.1686 5.75934 64.7407 6.02992 63.4074 6.56856C62.0742 7.1072 60.8621 7.90317 59.8415 8.91029C58.3045 10.4278 57.2573 12.3646 56.8333 14.4741C56.4093 16.5836 56.6275 18.7705 57.4602 20.7567C58.2929 22.7428 59.7025 24.4383 61.5096 25.6276C63.3166 26.8168 65.4396 27.446 67.6082 27.435C68.5504 27.4963 69.4952 27.3655 70.3846 27.0507C71.2739 26.7359 72.0889 26.2439 72.7791 25.6047L73.0225 25.3834L74.0161 27.0126H78.5584V6.13459H74.5028L73.0225 7.965ZM67.6082 22.0446C66.5036 22.0726 65.4157 21.7733 64.4835 21.185C63.5513 20.5967 62.8171 19.7461 62.3747 18.7419C61.9323 17.7376 61.8018 16.6253 61.9999 15.5472C62.198 14.469 62.7157 13.4739 63.4868 12.689C64.2579 11.9041 65.2474 11.3651 66.3289 11.1408C67.4104 10.9165 68.5348 11.017 69.5584 11.4297C70.582 11.8423 71.4582 12.5484 72.0753 13.4575C72.6923 14.3666 73.0221 15.4375 73.0225 16.5335C73.0335 17.976 72.4717 19.365 71.4585 20.4C70.4454 21.4351 69.0623 22.0331 67.6082 22.0647V22.0446Z" fill="#D6385E"/>
<path d="M144.727 7.96502L144.504 7.78395C143.096 6.48079 141.239 5.76117 139.313 5.77258C137.876 5.76092 136.452 6.03228 135.122 6.57091C133.792 7.10954 132.584 7.90471 131.566 8.91031C130.031 10.4266 128.984 12.3616 128.559 14.4692C128.135 16.5768 128.351 18.762 129.181 20.7474C130.011 22.7327 131.418 24.4284 133.222 25.6191C135.026 26.8099 137.146 27.442 139.313 27.4351C140.258 27.4967 141.206 27.3662 142.099 27.0514C142.992 26.7367 143.81 26.2444 144.504 25.6048L144.727 25.3834L145.741 27.0126H150.283V6.13461H146.228L144.727 7.96502ZM139.313 22.0446C138.208 22.0726 137.12 21.7733 136.188 21.185C135.256 20.5967 134.522 19.7461 134.079 18.7419C133.637 17.7376 133.506 16.6254 133.704 15.5472C133.903 14.469 134.42 13.4739 135.191 12.689C135.962 11.9041 136.952 11.3651 138.034 11.1408C139.115 10.9165 140.239 11.017 141.263 11.4297C142.287 11.8423 143.163 12.5484 143.78 13.4575C144.397 14.3666 144.727 15.4375 144.727 16.5335C144.733 17.9745 144.169 19.3605 143.157 20.3944C142.145 21.4283 140.765 22.0279 139.313 22.0647V22.0446Z" fill="#FFD9C3"/>
<path d="M172.123 46L155.758 37.9545C153.642 36.9094 151.309 36.3656 148.945 36.3656H116.215V31.3372H148.945C152.082 31.3066 155.184 31.9949 158.009 33.3485L174.374 41.394L172.123 46Z" fill="#D6385E"/>
</g>
<defs>
<clipPath id="clip0_14_386">
<rect width="236" height="46" fill="white"/>
</clipPath>
</defs>
</svg>
