<?xml version="1.0" encoding="UTF-8"?>
<svg width="134px" height="48px" viewBox="0 0 134 48" version="1.1" xmlns="http://www.w3.org/2000/svg" xmlns:xlink="http://www.w3.org/1999/xlink">
    <!-- Generator: sketchtool 54.1 (76490) - https://sketchapp.com -->
    <title>DADFDF09-C183-4826-9AF7-CAEA1574C2DD</title>
    <desc>Created with sketchtool.</desc>
    <g id="MOBİL-UYGULAMA" stroke="none" stroke-width="1" fill="none" fill-rule="evenodd">
        <g id="iPhone-8-Plus-Copy-22" transform="translate(-23.000000, -11.000000)" fill="#FFFFFF">
            <g id="logo-copy" transform="translate(23.000000, 11.000000)">
                <path d="M2.93796791,33.936 C3.15294118,33.768 3.36791444,33.672 3.60677362,33.576 C4.27557932,33.288 4.96827094,33.048 5.66096257,32.856 C6.83137255,32.544 8.00178253,32.304 9.19607843,32.112 C10.0081996,31.968 10.8203209,31.872 11.656328,31.752 C11.9190731,31.728 12.2057041,31.704 12.4684492,31.68 C13.2327986,31.584 13.997148,31.536 14.7614973,31.464 C15.6213904,31.368 16.4812834,31.32 17.3650624,31.272 C18.1771836,31.224 18.9893048,31.176 19.801426,31.128 C20.398574,31.104 20.9957219,31.08 21.5928699,31.056 C24.2203209,30.96 26.8477718,30.984 29.4752228,31.032 C30.3828877,31.056 31.2666667,31.128 32.1743316,31.248 C33.0103387,31.368 33.8463458,31.536 34.658467,31.728 C36.712656,32.208 38.5996435,33 40.3433155,34.176 C40.8449198,34.512 41.3465241,34.896 41.7764706,35.304 C41.8481283,35.376 41.8959002,35.424 41.9675579,35.496 C42.0153298,35.544 41.9914439,35.592 41.943672,35.64 C41.9197861,35.664 41.8959002,35.688 41.8720143,35.688 C41.37041,36.048 40.8688057,36.408 40.3433155,36.768 C40.3194296,36.792 40.2955437,36.792 40.2955437,36.792 C40.2477718,36.816 40.2,36.816 40.1522282,36.768 C39.9372549,36.408 39.602852,36.168 39.2206774,35.952 C38.6951872,35.664 38.1219251,35.448 37.5247772,35.28 C36.6648841,35.04 35.7811052,34.872 34.8734403,34.728 C34.0613191,34.608 33.2253119,34.512 32.4131907,34.464 C31.6966132,34.416 30.9561497,34.368 30.2395722,34.32 C28.6153298,34.248 26.9910873,34.224 25.342959,34.296 C24.6741533,34.32 24.0292335,34.368 23.3604278,34.464 C22.7871658,34.536 22.2139037,34.608 21.6406417,34.68 C21.0196078,34.776 20.398574,34.848 19.7775401,34.968 C18.5832442,35.184 17.4128342,35.4 16.2185383,35.664 C14.5942959,36.024 12.9461676,36.408 11.3458111,36.816 C9.8171123,37.2 8.31229947,37.632 6.78360071,38.088 C6.73582888,38.112 6.68805704,38.112 6.66417112,38.112 C6.59251337,38.136 6.52085561,38.136 6.47308378,38.04 C6.21033868,37.632 5.89982175,37.272 5.58930481,36.912 C4.7771836,35.976 3.94117647,35.088 3.08128342,34.2 C3.08128342,34.128 2.98573975,34.056 2.93796791,33.936 Z" id="Path"></path>
                <path d="M23.6231729,18.36 C23.0737968,18.288 22.5483066,18.432 22.0467023,18.624 C21.0912656,18.984 20.111943,19.296 19.1565062,19.656 C18.344385,19.944 17.5083779,20.232 16.6962567,20.496 C16.0035651,20.712 15.3108734,20.712 14.5942959,20.592 C14.3793226,20.544 14.1882353,20.472 13.997148,20.328 C13.7582888,20.16 13.5910873,19.968 13.4955437,19.704 C13.2805704,19.152 13.2566845,18.6 13.4238859,18.024 C13.4955437,17.736 13.686631,17.472 13.9016043,17.256 C14.1404635,17.016 14.4032086,16.8 14.6898396,16.632 C15.0481283,16.392 15.4064171,16.176 15.7647059,15.936 C17.4367201,14.88 18.8937611,13.608 20.1597148,12.072 C20.7090909,11.424 21.3062389,10.8 21.9511586,10.2 C22.3333333,9.864 22.7393939,9.552 23.1932264,9.312 C23.5276292,9.144 23.8620321,9.024 24.2203209,9.024 C24.6502674,9 25.056328,9.12 25.4385027,9.336 C25.8206774,9.576 26.1550802,9.864 26.4655971,10.2 C26.9194296,10.704 27.3016043,11.256 27.7076649,11.808 C28.9497326,13.56 30.1918004,15.312 31.4338681,17.064 C31.7682709,17.544 32.1026738,18.024 32.3893048,18.504 C32.4609626,18.624 32.5326203,18.744 32.6042781,18.888 C32.7953654,19.272 32.7953654,19.632 32.628164,20.016 C32.4609626,20.4 32.1743316,20.688 31.8160428,20.88 C31.3860963,21.096 30.9083779,21.168 30.4306595,21.12 C30.000713,21.072 29.5946524,20.952 29.2124777,20.808 C28.4242424,20.496 27.659893,20.112 26.9433155,19.656 C26.4655971,19.344 25.9639929,19.056 25.4623886,18.768 C25.3190731,18.696 25.1757576,18.624 25.0324421,18.528 C24.769697,18.384 24.483066,18.312 24.1964349,18.336 C23.9336898,18.384 23.7664884,18.36 23.6231729,18.36 Z" id="Path"></path>
                <path d="M40.2,37.536 C40.1761141,37.584 40.1522282,37.632 40.1283422,37.68 C39.9611408,37.944 39.7939394,38.208 39.626738,38.472 C39.4595365,38.76 39.2923351,39.024 39.1012478,39.312 C39.02959,39.432 38.9818182,39.432 38.8623886,39.36 C38.5040998,39.12 38.1219251,39 37.7158645,38.904 C36.8798574,38.688 36.0199643,38.52 35.1600713,38.424 C34.4196078,38.352 33.6791444,38.28 32.914795,38.232 C32.4370766,38.208 31.9354724,38.208 31.457754,38.16 C30.6934046,38.112 29.9290553,38.112 29.1885918,38.136 C28.543672,38.136 27.8748663,38.16 27.2299465,38.208 C26.1311943,38.28 25.056328,38.4 23.9814617,38.64 C21.9272727,39.096 19.8730838,39.552 17.8188948,40.008 C16.1946524,40.368 14.57041,40.752 12.9222816,41.112 C11.5846702,41.4 10.2470588,41.712 8.93333333,42.024 C8.90944742,42.024 8.8855615,42.048 8.86167558,42.048 C8.74224599,42.072 8.71836007,42.048 8.64670232,41.952 C8.45561497,41.568 8.26452763,41.16 8.07344029,40.776 C7.81069519,40.224 7.57183601,39.696 7.30909091,39.144 C7.28520499,39.096 7.26131907,39.072 7.26131907,39.024 C7.18966132,38.88 7.21354724,38.856 7.33297683,38.808 C7.59572193,38.712 7.85846702,38.616 8.14509804,38.544 C9.57825312,38.136 11.0114082,37.824 12.4445633,37.536 C13.6149733,37.296 14.7614973,37.104 15.9319073,36.912 C16.7679144,36.768 17.6039216,36.648 18.4399287,36.552 C19.2042781,36.456 19.9447415,36.36 20.7090909,36.288 C21.568984,36.216 22.4049911,36.12 23.2648841,36.024 C24.0053476,35.952 24.7458111,35.88 25.5101604,35.832 C26.1550802,35.784 26.7761141,35.736 27.4210339,35.688 C28.3048128,35.64 29.1885918,35.592 30.0962567,35.568 C30.6934046,35.544 31.3144385,35.52 31.9115865,35.544 C32.7237077,35.568 33.5358289,35.616 34.3479501,35.712 C35.3989305,35.832 36.426025,36.024 37.4531194,36.312 C38.3130125,36.576 39.1729055,36.888 39.9372549,37.368 C40.0089127,37.416 40.0566845,37.44 40.1283422,37.488 C40.1522282,37.464 40.1761141,37.488 40.2,37.536 Z" id="Path"></path>
                <path d="M20.9479501,28.872 C20.9479501,29.328 20.9479501,29.76 20.9479501,30.216 C20.9479501,30.312 20.9240642,30.36 20.7807487,30.36 C20.5180036,30.36 20.2552585,30.36 19.9925134,30.36 C19.5864528,30.336 19.2042781,30.216 18.8459893,30 C18.4877005,29.784 18.2488414,29.448 18.1771836,29.04 C18.057754,28.536 17.9860963,28.032 17.9383244,27.528 C17.7950089,26.496 17.6755793,25.44 17.5561497,24.408 C17.484492,23.712 17.4128342,22.992 17.3411765,22.296 C17.3172906,22.104 17.2934046,21.936 17.2934046,21.744 C17.2934046,21.648 17.3172906,21.6 17.4128342,21.576 C17.9144385,21.36 18.4399287,21.168 18.9654189,20.976 C19.8730838,20.64 20.7807487,20.352 21.7361854,20.136 C22.6916221,19.896 23.6231729,19.968 24.5547237,20.232 C26.0356506,20.664 27.397148,21.312 28.6869875,22.152 C29.0691622,22.392 29.4035651,22.656 29.7379679,22.968 C30.0723708,23.28 30.2156863,23.664 30.2156863,24.096 C30.2156863,24.72 30.1440285,25.344 30.0484848,25.944 C29.8573975,27.192 29.5946524,28.44 29.3080214,29.664 C29.2841355,29.736 29.2602496,29.808 29.2602496,29.88 C29.2363636,29.976 29.1885918,30 29.0930481,30 C28.4720143,30 27.8270945,30 27.2060606,30 C27.1344029,30 27.086631,29.952 27.086631,29.88 C27.1105169,29.52 27.1344029,29.16 27.1582888,28.8 C27.1821747,28.416 27.2299465,28.032 27.2538324,27.648 C27.3016043,27.192 27.3254902,26.712 27.373262,26.256 C27.373262,26.16 27.373262,26.064 27.3493761,25.968 C27.2299465,25.512 27.0149733,25.104 26.7044563,24.744 C26.226738,24.192 25.5818182,23.952 24.8652406,24 C23.8381462,24.096 22.9543672,24.504 22.1900178,25.176 C21.6406417,25.656 21.2823529,26.256 21.0673797,26.952 C20.9957219,27.192 20.9479501,27.408 20.9479501,27.648 C20.9479501,28.104 20.9479501,28.488 20.9479501,28.872 L20.9479501,28.872 Z" id="Path"></path>
                <path d="M111.571123,27.288 C111.618895,27.384 111.714439,27.408 111.76221,27.48 C112.454902,28.032 113.147594,28.608 113.816399,29.208 C114.509091,29.808 115.177897,30.408 115.846702,31.056 C116.03779,31.248 116.228877,31.44 116.44385,31.608 C116.754367,31.848 116.778253,32.4 116.467736,32.712 C116.324421,32.856 116.157219,33 116.013904,33.12 C115.846702,33.24 115.655615,33.336 115.440642,33.336 C115.39287,33.336 115.345098,33.336 115.321212,33.336 C114.986809,33.36 114.74795,33.24 114.509091,33.024 C114.031373,32.544 113.529768,32.088 113.004278,31.656 C112.502674,31.248 112.024955,30.816 111.547237,30.408 C111.23672,30.144 110.926203,29.88 110.615686,29.64 C110.544029,29.568 110.448485,29.496 110.352941,29.472 C110.257398,29.448 110.137968,29.52 110.137968,29.616 C110.209626,30.048 110.137968,30.504 110.209626,30.96 C110.305169,31.632 110.424599,32.304 110.376827,32.976 C110.376827,33.144 110.329055,33.312 110.233512,33.48 C110.137968,33.624 110.018538,33.744 109.875223,33.792 C109.516934,33.936 109.134759,33.984 108.752585,33.888 C108.537611,33.84 108.394296,33.72 108.298752,33.504 C108.012121,32.856 107.821034,32.16 107.677718,31.464 C107.582175,31.008 107.534403,30.552 107.462745,30.12 C107.343316,29.184 107.31943,28.224 107.343316,27.288 C107.367201,26.808 107.391087,26.328 107.438859,25.848 C107.462745,25.584 107.486631,25.32 107.510517,25.056 C107.558289,24.648 107.606061,24.264 107.629947,23.856 C107.653832,23.496 107.653832,23.136 107.606061,22.776 C107.558289,22.488 107.558289,22.224 107.510517,21.936 C107.486631,21.672 107.438859,21.408 107.414973,21.12 C107.343316,20.568 107.271658,20.04 107.343316,19.488 C107.391087,19.08 107.462745,18.672 107.629947,18.288 C107.749376,18.072 107.892692,17.904 108.131551,17.784 C108.346524,17.688 108.561497,17.616 108.776471,17.592 C109.039216,17.568 109.301961,17.544 109.54082,17.592 C109.827451,17.664 110.090196,17.928 110.114082,18.216 C110.114082,18.264 110.114082,18.336 110.114082,18.384 C110.114082,19.656 110.137968,20.928 110.114082,22.176 C110.090196,23.016 110.090196,23.832 110.06631,24.672 C110.06631,24.936 110.114082,25.224 110.114082,25.488 C110.114082,25.608 110.18574,25.656 110.305169,25.68 C110.520143,25.704 110.71123,25.68 110.878431,25.536 C111.188948,25.248 111.523351,24.984 111.857754,24.72 C112.239929,24.384 112.669875,24.144 113.17148,24.048 C113.386453,24 113.57754,24.024 113.792513,24.072 C114.079144,24.12 114.341889,24.264 114.580749,24.456 C114.771836,24.624 114.819608,24.84 114.724064,25.08 C114.652406,25.272 114.485205,25.416 114.318004,25.536 C113.888057,25.8 113.434225,26.064 113.004278,26.328 C112.645989,26.52 112.311586,26.736 111.977184,26.976 C111.857754,27.072 111.738324,27.192 111.618895,27.288 C111.618895,27.216 111.595009,27.24 111.571123,27.288 Z" id="Path"></path>
                <path d="M86.5625668,21.768 C86.5625668,22.896 86.5625668,24.048 86.5625668,25.176 C86.5625668,25.272 86.5625668,25.344 86.5625668,25.44 C86.5625668,25.536 86.6103387,25.608 86.7297683,25.608 C86.8491979,25.632 86.9686275,25.632 87.088057,25.632 C87.1597148,25.632 87.2074866,25.584 87.2552585,25.536 C87.5896613,25.248 87.9479501,24.984 88.2823529,24.672 C88.545098,24.456 88.8078431,24.264 89.1183601,24.12 C89.7871658,23.784 90.4320856,23.904 91.0292335,24.312 C91.2203209,24.432 91.2919786,24.744 91.1964349,24.936 C91.1008913,25.152 90.9575758,25.32 90.7426025,25.44 C90.1454545,25.776 89.5721925,26.136 88.9750446,26.496 C88.6645276,26.664 88.4017825,26.88 88.1390374,27.096 C87.971836,27.216 87.971836,27.288 88.1390374,27.408 C88.4734403,27.672 88.8317291,27.96 89.1661319,28.224 C89.5483066,28.536 89.9065954,28.848 90.2887701,29.184 C91.0770053,29.88 91.8652406,30.576 92.6057041,31.296 C92.7251337,31.416 92.8445633,31.512 92.9639929,31.632 C93.2506239,31.92 93.2506239,32.304 92.9878788,32.592 C92.8206774,32.76 92.6534759,32.928 92.4623886,33.072 C92.2951872,33.216 92.0802139,33.288 91.8652406,33.288 C91.769697,33.288 91.6980392,33.288 91.6024955,33.288 C91.3636364,33.288 91.172549,33.192 91.0292335,33.048 C90.6948307,32.712 90.3365419,32.376 89.9782531,32.064 C89.428877,31.584 88.8795009,31.104 88.3062389,30.648 C87.8762923,30.288 87.4463458,29.928 87.0163993,29.544 C86.9447415,29.496 86.8969697,29.424 86.801426,29.4 C86.6819964,29.376 86.5864528,29.424 86.6103387,29.544 C86.6103387,29.832 86.5864528,30.12 86.6342246,30.432 C86.7058824,30.888 86.7297683,31.344 86.801426,31.8 C86.8491979,32.16 86.8491979,32.52 86.8730838,32.88 C86.8730838,33.336 86.6103387,33.648 86.2042781,33.792 C85.8937611,33.888 85.5593583,33.912 85.2488414,33.84 C85.0338681,33.792 84.8905526,33.696 84.8188948,33.48 C84.6994652,33.192 84.5800357,32.904 84.484492,32.592 C84.2695187,31.92 84.1262032,31.224 84.0306595,30.528 C83.9828877,30.216 83.9590018,29.904 83.9351159,29.592 C83.8395722,28.656 83.8634581,27.744 83.887344,26.808 C83.887344,26.4 83.9590018,25.992 83.9828877,25.56 C84.0067736,25.32 84.0306595,25.056 84.0545455,24.816 C84.1023173,24.432 84.1500891,24.048 84.173975,23.64 C84.173975,23.52 84.197861,23.4 84.173975,23.28 C84.1262032,22.824 84.1023173,22.368 84.0545455,21.912 C84.0067736,21.48 83.9112299,21.072 83.887344,20.64 C83.8395722,19.968 83.8156863,19.32 84.0067736,18.648 C84.0545455,18.528 84.0784314,18.408 84.1500891,18.288 C84.2934046,17.976 84.5322638,17.736 84.8427807,17.64 C85.2488414,17.52 85.654902,17.448 86.0848485,17.544 C86.3475936,17.592 86.5864528,17.832 86.6103387,18.096 C86.6103387,18.192 86.6103387,18.264 86.6103387,18.36 C86.5625668,19.488 86.5625668,20.616 86.5625668,21.768 L86.5625668,21.768 Z" id="Path"></path>
                <path d="M15.3825312,12.048 C15.3825312,11.616 15.4780749,11.208 15.5736185,10.776 C15.8124777,9.696 16.1946524,8.664 16.600713,7.632 C17.1262032,6.288 17.7472371,4.992 18.3682709,3.696 C18.4638146,3.528 18.5593583,3.36 18.6787879,3.192 C19.2998217,2.28 20.0402852,1.464 20.9240642,0.792 C21.4734403,0.408 22.0467023,0.144 22.715508,0.096 C23.3365419,0.048 23.9336898,0.216 24.4352941,0.6 C24.7458111,0.84 24.8891266,1.176 24.9368984,1.56 C24.9607843,1.944 24.9130125,2.304 24.8174688,2.664 C24.6263815,3.336 24.3397504,3.96 24.0053476,4.56 C23.3604278,5.76 22.5721925,6.888 21.7600713,7.968 C21.3062389,8.568 20.8285205,9.168 20.3508021,9.768 C19.8969697,10.344 19.4192513,10.92 18.9176471,11.448 C18.8221034,11.544 18.7504456,11.688 18.6787879,11.808 C18.3682709,12.288 18.0338681,12.744 17.5561497,13.056 C17.2934046,13.248 17.0067736,13.368 16.6962567,13.392 C16.4335116,13.416 16.1707665,13.368 15.9319073,13.248 C15.6213904,13.104 15.4541889,12.84 15.4064171,12.504 C15.3825312,12.36 15.3825312,12.192 15.3825312,12.048 Z" id="Path"></path>
                <path d="M10.6053476,43.032 C10.7964349,42.936 11.0114082,42.936 11.2024955,42.888 C11.6085561,42.792 12.0146168,42.744 12.4206774,42.672 C13.0655971,42.552 13.7105169,42.432 14.3554367,42.288 C15.143672,42.144 15.9080214,42 16.6962567,41.856 C17.6039216,41.688 18.5115865,41.52 19.4192513,41.376 C20.2074866,41.232 21.0196078,41.088 21.8078431,40.944 C22.4766488,40.824 23.1215686,40.704 23.7903743,40.608 C24.483066,40.488 25.1996435,40.344 25.8923351,40.224 C26.4894831,40.128 27.086631,40.032 27.683779,39.936 C28.1614973,39.864 28.6392157,39.768 29.116934,39.696 C29.5468806,39.624 29.9768271,39.6 30.4067736,39.528 C30.8128342,39.456 31.2427807,39.48 31.6488414,39.456 C32.031016,39.408 32.4131907,39.408 32.7953654,39.432 C33.3686275,39.456 33.9180036,39.48 34.4912656,39.528 C35.2078431,39.624 35.9244207,39.744 36.6171123,40.008 C37.1426025,40.2 37.6442068,40.44 38.0741533,40.8 C38.456328,41.136 38.4324421,41.064 38.1219251,41.376 C37.5964349,41.928 37.0948307,42.456 36.5693405,43.008 C36.5215686,43.056 36.4976827,43.08 36.4499109,43.128 C36.2827094,43.296 36.2588235,43.32 36.0916221,43.128 C35.9005348,42.912 35.6377897,42.792 35.3750446,42.696 C34.8973262,42.504 34.4196078,42.408 33.9180036,42.336 C33.1058824,42.24 32.3176471,42.264 31.5055258,42.288 C31.171123,42.288 30.8367201,42.36 30.5023173,42.384 C30.2156863,42.408 29.9290553,42.408 29.6663102,42.456 C29.2124777,42.504 28.7586453,42.504 28.3048128,42.552 C27.8032086,42.624 27.2777184,42.576 26.7761141,42.648 C26.7522282,42.648 26.7283422,42.648 26.7044563,42.648 C26.202852,42.672 25.6773619,42.696 25.1757576,42.72 C24.6024955,42.744 24.0053476,42.792 23.4320856,42.84 C23.4081996,42.84 23.3843137,42.84 23.3604278,42.84 C22.8827094,42.864 22.3811052,42.888 21.9033868,42.912 C21.545098,42.936 21.1629234,42.984 20.8046346,43.008 C20.7329768,43.008 20.685205,43.008 20.6135472,43.032 C20.1836007,43.056 19.7775401,43.104 19.3475936,43.152 C19.0848485,43.176 18.8221034,43.2 18.5593583,43.224 C18.1294118,43.272 17.6994652,43.32 17.2695187,43.368 C16.7918004,43.44 16.314082,43.536 15.8363636,43.608 C15.1675579,43.728 14.4987522,43.872 13.8299465,44.064 C13.3761141,44.184 12.9461676,44.328 12.516221,44.544 C12.4206774,44.592 12.3490196,44.592 12.2534759,44.496 C11.8474153,44.136 11.4174688,43.752 11.0114082,43.392 C10.8919786,43.32 10.7247772,43.224 10.6053476,43.032 Z" id="Path"></path>
                <path d="M49.4199643,27.792 C49.802139,27.192 50.0887701,26.544 50.3515152,25.896 C50.7814617,24.888 51.0919786,23.856 51.4024955,22.8 C51.6413547,22.032 51.8802139,21.288 52.0951872,20.52 C52.2385027,20.016 52.5967914,19.752 53.1222816,19.704 C53.4327986,19.68 53.7194296,19.704 54.0299465,19.776 C54.3882353,19.872 54.7226381,20.064 55.0092692,20.28 C55.1048128,20.352 55.1525847,20.448 55.1286988,20.568 C55.0809269,20.808 55.0331551,21.048 54.9614973,21.264 C54.9376114,21.336 54.8659537,21.408 54.7942959,21.48 C54.2210339,22.056 54.3643494,21.888 54.1254902,22.68 C53.2894831,25.584 52.1668449,28.368 50.8053476,31.056 C50.7575758,31.152 50.7098039,31.224 50.6620321,31.32 C50.4709447,31.656 50.1604278,31.848 49.7782531,31.92 C49.6110517,31.944 49.4677362,31.968 49.3005348,31.944 C49.1094474,31.92 48.942246,31.848 48.7750446,31.704 C48.4406417,31.392 48.1540107,31.032 47.8912656,30.648 C47.3896613,29.928 46.9836007,29.16 46.6253119,28.368 C46.314795,27.672 45.9803922,26.976 45.6221034,26.304 C45.1921569,25.488 44.8099822,24.672 44.4994652,23.808 C44.4755793,23.736 44.4516934,23.664 44.4278075,23.592 C44.3322638,23.208 44.4278075,22.872 44.7383244,22.632 C44.9532977,22.464 45.1921569,22.344 45.454902,22.272 C45.7893048,22.2 46.0998217,22.2 46.4103387,22.296 C46.6253119,22.368 46.7925134,22.488 46.9358289,22.656 C47.1269162,22.92 47.2941176,23.208 47.4374332,23.496 C47.6762923,23.952 47.8673797,24.432 48.0345811,24.912 C48.2734403,25.584 48.5122995,26.28 48.8228164,26.928 C48.942246,27.168 49.0855615,27.408 49.2049911,27.648 C49.3005348,27.672 49.3244207,27.744 49.4199643,27.792 Z" id="Path"></path>
                <path d="M128.840642,26.304 C128.912299,26.28 128.936185,26.208 128.960071,26.16 C129.222816,25.728 129.485561,25.32 129.772193,24.912 C129.987166,24.6 130.249911,24.336 130.560428,24.144 C130.942602,23.88 131.348663,23.784 131.802496,23.856 C131.826381,23.856 131.874153,23.856 131.898039,23.856 C132.160784,23.856 132.327986,23.952 132.447415,24.216 C132.853476,25.032 133.140107,25.848 133.307308,26.736 C133.402852,27.264 133.47451,27.792 133.522282,28.32 C133.546168,28.704 133.546168,29.112 133.593939,29.496 C133.641711,29.928 133.617825,30.36 133.665597,30.768 C133.713369,31.176 133.665597,31.584 133.761141,31.968 C133.808913,32.136 133.785027,32.328 133.761141,32.52 C133.761141,32.736 133.641711,32.928 133.426738,33 C133.044563,33.12 132.638503,33.24 132.208556,33.216 C132.136898,33.216 132.089127,33.216 132.017469,33.192 C131.754724,33.12 131.635294,32.976 131.611408,32.712 C131.563636,32.088 131.491979,31.464 131.468093,30.864 C131.444207,30.456 131.444207,30.048 131.420321,29.616 C131.372549,28.968 131.348663,28.32 131.277005,27.648 C131.253119,27.336 131.205348,27.024 131.157576,26.712 C131.157576,26.64 131.13369,26.592 131.109804,26.52 C131.085918,26.472 131.062032,26.472 131.038146,26.496 C130.966488,26.568 130.870945,26.64 130.823173,26.736 C130.679857,26.928 130.560428,27.144 130.440998,27.336 C130.106595,27.936 129.867736,28.584 129.604991,29.232 C129.342246,29.952 129.055615,30.648 128.697326,31.344 C128.625668,31.512 128.530125,31.632 128.386809,31.776 C128.076292,32.064 127.718004,32.112 127.311943,32.016 C127.120856,31.968 126.97754,31.848 126.858111,31.656 C126.738681,31.416 126.667023,31.176 126.643137,30.912 C126.619251,30.72 126.619251,30.552 126.595365,30.36 C126.547594,30.048 126.619251,29.736 126.667023,29.424 C126.714795,29.112 126.786453,28.776 126.834225,28.464 C126.881996,28.2 126.858111,27.912 126.834225,27.648 C126.786453,27.216 126.690909,26.76 126.619251,26.328 C126.523708,25.632 126.547594,24.936 126.714795,24.24 C126.762567,24.096 126.786453,23.976 126.881996,23.856 C127.049198,23.64 127.264171,23.544 127.526916,23.52 C127.670232,23.52 127.837433,23.52 127.980749,23.52 C128.315152,23.52 128.697326,23.808 128.79287,24.216 C128.864528,24.528 128.79287,24.792 128.745098,25.08 C128.721212,25.248 128.67344,25.416 128.625668,25.584 C128.601783,25.656 128.601783,25.728 128.577897,25.8 C128.601783,26.088 128.601783,26.088 128.840642,26.304 Z" id="Path"></path>
                <path d="M63.9187166,24.6 C63.9426025,26.4 63.9664884,28.2 63.9426025,30 C63.9426025,30.744 63.8470588,31.464 63.6798574,32.16 C63.5843137,32.496 63.4887701,32.832 63.3454545,33.144 C63.1543672,33.6 62.8199643,33.864 62.1989305,33.816 C61.9361854,33.792 61.6734403,33.72 61.4106952,33.6 C61.1001783,33.456 60.9329768,33.192 60.885205,32.856 C60.8613191,32.64 60.8613191,32.424 60.9090909,32.208 C61.171836,31.224 61.2912656,30.216 61.3390374,29.208 C61.4345811,27.528 61.458467,25.824 61.4823529,24.144 C61.4823529,23.52 61.4345811,22.92 61.3629234,22.32 C61.2912656,21.6 61.1957219,20.88 61.1957219,20.16 C61.1957219,19.68 61.2196078,19.224 61.3629234,18.768 C61.4106952,18.6 61.4823529,18.408 61.5778966,18.264 C61.7928699,17.832 62.1511586,17.592 62.6049911,17.496 C62.8199643,17.472 63.0588235,17.448 63.2737968,17.52 C63.5604278,17.616 63.7515152,17.784 63.8709447,18.072 C63.9187166,18.216 63.9426025,18.36 63.9664884,18.528 C63.9903743,18.96 63.9903743,19.392 63.9903743,19.848 C63.9187166,21.432 63.8948307,23.016 63.9187166,24.6 Z" id="Path"></path>
                <path d="M68.8631016,21.744 C68.8631016,22.68 68.8392157,23.592 68.8631016,24.528 C68.8869875,26.328 68.8869875,28.104 68.8869875,29.904 C68.8869875,30.672 68.7914439,31.44 68.6003565,32.208 C68.5286988,32.544 68.4092692,32.856 68.2659537,33.168 C68.0748663,33.624 67.7404635,33.888 67.1194296,33.84 C66.8566845,33.816 66.5939394,33.744 66.3311943,33.624 C66.0206774,33.48 65.8534759,33.216 65.8057041,32.88 C65.7818182,32.664 65.7818182,32.448 65.82959,32.232 C66.0684492,31.272 66.2117647,30.312 66.2595365,29.328 C66.3550802,27.624 66.3789661,25.896 66.402852,24.192 C66.402852,23.568 66.3550802,22.92 66.2834225,22.296 C66.2117647,21.6 66.116221,20.88 66.116221,20.184 C66.116221,19.728 66.116221,19.272 66.2595365,18.816 C66.3073084,18.648 66.3789661,18.456 66.4506239,18.288 C66.6655971,17.856 67,17.592 67.4777184,17.52 C67.7165775,17.472 67.9554367,17.472 68.1942959,17.544 C68.4809269,17.64 68.6720143,17.808 68.7914439,18.096 C68.8392157,18.24 68.8631016,18.36 68.8869875,18.504 C68.9108734,18.864 68.9108734,19.2 68.9108734,19.56 C68.9108734,20.28 68.8869875,21.024 68.8631016,21.744 Z" id="Path"></path>
                <path d="M106.125134,19.776 C106.125134,20.112 106.14902,20.448 106.125134,20.784 C106.053476,21.96 106.101248,23.112 106.077362,24.288 C106.077362,24.552 106.077362,24.84 106.125134,25.104 C106.14902,25.368 106.125134,25.656 106.101248,25.92 C106.101248,25.992 106.077362,26.064 106.077362,26.136 C106.14902,26.64 106.101248,27.168 106.125134,27.672 C106.125134,28.2 106.101248,28.728 106.125134,29.256 C106.14902,29.784 106.101248,30.336 106.053476,30.864 C105.981818,31.632 105.838503,32.4 105.527986,33.12 C105.265241,33.696 104.835294,33.936 104.190374,33.84 C103.951515,33.792 103.736542,33.744 103.545455,33.624 C103.282709,33.48 103.139394,33.24 103.067736,32.952 C102.996078,32.688 103.04385,32.424 103.091622,32.184 C103.234938,31.608 103.330481,31.032 103.402139,30.456 C103.473797,29.88 103.497683,29.304 103.545455,28.728 C103.593226,27.912 103.593226,27.12 103.593226,26.304 C103.593226,25.752 103.640998,25.2 103.664884,24.648 C103.664884,24.024 103.640998,23.4 103.593226,22.776 C103.545455,22.272 103.473797,21.792 103.426025,21.288 C103.402139,20.784 103.306595,20.28 103.354367,19.776 C103.402139,19.272 103.497683,18.768 103.736542,18.288 C103.951515,17.88 104.285918,17.64 104.73975,17.544 C104.954724,17.496 105.169697,17.496 105.38467,17.544 C105.766845,17.64 106.005704,17.88 106.077362,18.288 C106.125134,18.48 106.14902,18.696 106.14902,18.912 C106.125134,19.2 106.125134,19.488 106.125134,19.776 L106.125134,19.776 Z" id="Path"></path>
                <path d="M21.7839572,47.856 C21.4734403,47.856 21.1390374,47.856 20.7807487,47.856 C20.4224599,47.856 20.0641711,47.784 19.7058824,47.736 C19.4431373,47.712 19.2042781,47.64 18.941533,47.592 C18.344385,47.472 17.7950089,47.28 17.2456328,47.04 C16.6962567,46.8 16.1707665,46.512 15.716934,46.128 C15.4780749,45.936 15.2392157,45.744 15.0242424,45.528 C14.9764706,45.48 14.9525847,45.456 14.9286988,45.408 C14.8809269,45.36 14.9286988,45.288 14.9764706,45.288 C15.1914439,45.288 15.4064171,45.288 15.6213904,45.288 C15.8363636,45.288 16.0513369,45.312 16.2663102,45.24 C16.3379679,45.216 16.4096257,45.24 16.5051693,45.24 C16.9112299,45.24 17.3172906,45.24 17.6994652,45.24 C17.8905526,45.24 18.0816399,45.24 18.2727273,45.192 C18.344385,45.168 18.4160428,45.192 18.5115865,45.192 C18.7982175,45.192 19.1087344,45.192 19.3953654,45.192 C19.5386809,45.192 19.6819964,45.192 19.8253119,45.144 C19.9208556,45.12 20.0402852,45.12 20.1597148,45.12 C20.4941176,45.096 20.8285205,45.144 21.1629234,45.072 C21.258467,45.048 21.3778966,45.072 21.4973262,45.072 C21.7361854,45.072 21.9511586,45.096 22.1661319,45.024 C22.2377897,45 22.2855615,45.024 22.3572193,45.024 C22.5483066,45.024 22.7393939,45.024 22.9304813,44.976 C22.9782531,44.952 23.0499109,44.976 23.0976827,44.976 C23.7187166,44.928 24.3158645,44.856 24.9130125,44.688 C25.1279857,44.64 25.342959,44.616 25.5579323,44.568 C25.916221,44.496 26.2983957,44.568 26.6566845,44.472 C26.7283422,44.448 26.8238859,44.472 26.9194296,44.448 C27.3016043,44.424 27.7076649,44.472 28.0898396,44.4 C28.1614973,44.376 28.2092692,44.4 28.2809269,44.4 C29.714082,44.4 31.1233512,44.4 32.5565062,44.4 C32.6520499,44.4 32.7237077,44.4 32.8192513,44.4 C32.8670232,44.4 32.8909091,44.472 32.8670232,44.496 C32.6520499,44.808 32.3893048,45.096 32.1026738,45.336 C31.5532977,45.768 30.9322638,46.08 30.287344,46.368 C29.3319073,46.776 28.3286988,47.064 27.3254902,47.304 C26.8,47.424 26.2983957,47.52 25.7729055,47.592 C25.2713012,47.664 24.769697,47.736 24.2680927,47.784 C23.4320856,47.832 22.6199643,47.88 21.7839572,47.856 Z" id="Path"></path>
                <path d="M14.6181818,8.016 C14.5942959,8.856 14.5942959,9.648 14.5465241,10.44 C14.5226381,10.968 14.3554367,11.472 14.0926916,11.928 C14.0210339,12.048 13.9254902,12.168 13.8299465,12.264 C13.5433155,12.576 13.1850267,12.672 12.7550802,12.552 C12.3490196,12.432 11.9907308,12.216 11.6802139,11.952 C11.2263815,11.544 10.8919786,11.064 10.6292335,10.512 C10.5575758,10.368 10.5098039,10.224 10.5098039,10.08 C10.485918,9.792 10.4620321,9.504 10.4381462,9.192 C10.3903743,8.496 10.3664884,7.8 10.3903743,7.104 C10.4142602,6.192 10.5098039,5.28 10.7008913,4.368 C10.8442068,3.768 11.0352941,3.168 11.3458111,2.64 C11.6085561,2.208 11.9190731,1.824 12.3490196,1.536 C12.516221,1.416 12.7073084,1.32 12.9222816,1.32 C13.1372549,1.32 13.3044563,1.368 13.4477718,1.512 C13.5672014,1.632 13.686631,1.776 13.7582888,1.92 C13.9254902,2.232 14.0449198,2.568 14.1404635,2.928 C14.283779,3.456 14.3554367,3.984 14.4270945,4.536 C14.5226381,5.304 14.5465241,6.048 14.57041,6.816 C14.57041,7.248 14.5942959,7.656 14.6181818,8.016 Z" id="Path"></path>
                <path d="M2.1258467,29.064 C1.91087344,29.064 1.7197861,29.04 1.50481283,28.992 C1.12263815,28.872 0.931550802,28.608 0.907664884,28.2 C0.907664884,27.888 0.979322638,27.576 1.09875223,27.288 C1.28983957,26.808 1.52869875,26.352 1.79144385,25.92 C2.36470588,24.984 3.03351159,24.144 3.75008913,23.304 C4.1083779,22.872 4.49055258,22.464 4.89661319,22.104 C5.35044563,21.696 5.85204991,21.336 6.40142602,21.096 C6.68805704,20.976 6.97468806,20.88 7.28520499,20.904 C7.66737968,20.904 7.93012478,21.144 8.02566845,21.456 C8.14509804,21.816 8.16898396,22.176 8.02566845,22.56 C7.52406417,24.024 6.9030303,25.416 5.99536542,26.688 C5.56541889,27.288 5.06381462,27.84 4.46666667,28.296 C3.89340463,28.728 3.27237077,29.016 2.57967914,29.112 C2.43636364,29.04 2.26916221,29.04 2.1258467,29.064 Z" id="Path"></path>
                <path d="M13.1611408,21.624 C12.516221,21.6 11.8713012,21.6 11.2263815,21.504 C10.7247772,21.432 10.2470588,21.336 9.79322638,21.072 C9.07664884,20.64 8.59893048,19.992 8.3600713,19.2 C8.00178253,18.096 8.21675579,16.44 9.05276292,15.456 C9.69768271,14.688 10.485918,14.184 11.4652406,13.992 C12.1340463,13.848 12.7789661,13.92 13.4,14.232 C13.8538324,14.472 14.1882353,14.832 14.4509804,15.288 C14.5226381,15.408 14.4987522,15.432 14.3793226,15.48 C13.8538324,15.672 13.3761141,15.96 12.9939394,16.368 C12.4445633,16.92 12.1579323,17.592 12.1101604,18.36 C12.0623886,18.984 12.1340463,19.584 12.2773619,20.184 C12.3490196,20.424 12.4206774,20.664 12.540107,20.88 C12.6834225,21.12 12.8506239,21.36 13.0894831,21.528 C13.113369,21.528 13.1611408,21.552 13.1611408,21.624 Z" id="Path"></path>
                <path d="M2.62745098,10.776 C2.98573975,10.752 3.29625668,10.896 3.60677362,11.016 C3.94117647,11.16 4.2516934,11.328 4.56221034,11.52 C5.0399287,11.808 5.49376114,12.144 5.92370766,12.48 C6.18645276,12.696 6.37754011,12.936 6.59251337,13.2 C6.95080214,13.632 7.26131907,14.112 7.47629234,14.64 C7.59572193,14.928 7.6912656,15.24 7.66737968,15.552 C7.66737968,15.624 7.66737968,15.696 7.64349376,15.768 C7.47629234,16.224 7.21354724,16.608 6.73582888,16.776 C6.47308378,16.872 6.18645276,16.872 5.89982175,16.776 C5.18324421,16.536 4.49055258,16.224 3.8456328,15.792 C3.22459893,15.336 2.67522282,14.808 2.29304813,14.136 C1.95864528,13.56 1.74367201,12.936 1.74367201,12.24 C1.74367201,12.048 1.74367201,11.88 1.74367201,11.688 C1.74367201,11.52 1.79144385,11.352 1.8631016,11.184 C2.00641711,10.872 2.24527629,10.728 2.57967914,10.728 C2.57967914,10.776 2.60356506,10.776 2.62745098,10.776 Z" id="Path"></path>
                <path d="M56.2513369,28.44 C56.3229947,27.888 56.2991087,27.24 56.3229947,26.568 C56.3468806,25.992 56.3946524,25.44 56.5618538,24.888 C56.6096257,24.744 56.6573975,24.576 56.7290553,24.432 C56.9201426,23.976 57.3023173,23.712 57.7800357,23.664 C58.257754,23.616 58.6877005,23.712 59.0698752,24 C59.1654189,24.072 59.2370766,24.144 59.3087344,24.216 C59.4759358,24.456 59.5237077,24.72 59.3565062,24.984 C59.0698752,25.464 58.9743316,25.968 58.9504456,26.52 C58.9265597,27 58.9026738,27.504 58.831016,27.984 C58.831016,28.056 58.8071301,28.104 58.7832442,28.176 C58.6877005,28.512 58.6638146,28.848 58.6638146,29.184 C58.6638146,29.712 58.6877005,30.264 58.6877005,30.792 C58.6877005,31.056 58.6877005,31.344 58.6638146,31.608 C58.6638146,31.728 58.6399287,31.824 58.5921569,31.92 C58.5682709,32.016 58.4966132,32.064 58.4010695,32.088 C58.0666667,32.16 57.7322638,32.232 57.397861,32.256 C57.2545455,32.256 57.087344,32.232 56.9440285,32.208 C56.6096257,32.136 56.3946524,31.92 56.2991087,31.584 C56.227451,31.296 56.1796791,31.008 56.1557932,30.72 C56.1319073,30.264 56.1080214,29.832 56.1319073,29.376 C56.227451,29.088 56.227451,28.824 56.2513369,28.44 Z" id="Path"></path>
                <path d="M15.74082,26.424 C15.74082,27.024 15.74082,27.6 15.74082,28.2 C15.74082,28.344 15.716934,28.512 15.6691622,28.656 C15.5019608,29.064 15.3347594,29.472 15.0720143,29.856 C14.9525847,30.024 14.8331551,30.192 14.6659537,30.336 C14.57041,30.432 14.4509804,30.48 14.3315508,30.528 C14.1643494,30.552 13.997148,30.528 13.8299465,30.432 C13.686631,30.336 13.5910873,30.216 13.4955437,30.096 C13.3044563,29.832 13.1611408,29.544 13.0417112,29.232 C12.9461676,28.992 12.9700535,28.728 12.9461676,28.488 C12.8506239,27.408 12.826738,26.304 12.8745098,25.224 C12.8983957,24.6 12.9700535,23.952 13.1372549,23.352 C13.2089127,23.064 13.3044563,22.776 13.4716578,22.512 C13.6388592,22.224 13.8538324,22.032 14.1882353,21.912 C14.4748663,21.816 14.7137255,21.888 14.9048128,22.08 C15.0720143,22.224 15.1914439,22.416 15.2869875,22.608 C15.4541889,22.944 15.5497326,23.304 15.6213904,23.664 C15.74082,24.192 15.7885918,24.744 15.7885918,25.296 C15.74082,25.608 15.74082,26.016 15.74082,26.424 Z" id="Path"></path>
                <path d="M7.14188948,19.632 C7.09411765,19.728 6.99857398,19.776 6.92691622,19.824 C6.04313725,20.4 5.08770053,20.832 4.03672014,21.024 C3.15294118,21.192 2.31693405,21.12 1.48092692,20.784 C1.17040998,20.664 0.883778966,20.472 0.644919786,20.232 C0.047771836,19.632 0.023885918,18.696 0.621033868,18.048 C0.95543672,17.688 1.33761141,17.496 1.79144385,17.376 C1.8631016,17.352 1.93475936,17.352 2.00641711,17.352 C2.6513369,17.304 3.27237077,17.424 3.89340463,17.664 C4.70552585,17.976 5.46987522,18.408 6.18645276,18.912 C6.52085561,19.152 6.85525847,19.368 7.14188948,19.632 Z" id="Path"></path>
                <path d="M8.40784314,31.272 C8.38395722,31.008 8.3600713,30.768 8.3600713,30.528 C8.3600713,29.688 8.33618538,28.872 8.3600713,28.032 C8.38395722,27.024 8.43172906,26.016 8.59893048,25.032 C8.67058824,24.672 8.74224599,24.336 8.86167558,23.976 C8.90944742,23.808 8.98110517,23.616 9.10053476,23.472 C9.33939394,23.112 9.64991087,22.944 10.0798574,22.944 C10.3187166,22.944 10.5098039,23.04 10.6770053,23.184 C10.8203209,23.304 10.9397504,23.448 11.0352941,23.616 C11.2263815,23.952 11.3219251,24.312 11.369697,24.696 C11.4174688,25.416 11.3219251,26.088 11.05918,26.76 C10.8203209,27.408 10.5098039,28.032 10.199287,28.632 C9.74545455,29.472 9.21996435,30.264 8.67058824,31.032 C8.59893048,31.104 8.55115865,31.176 8.40784314,31.272 Z" id="Path"></path>
                <path d="M5.66096257,9.336 C5.66096257,9.072 5.7087344,8.808 5.82816399,8.544 C5.94759358,8.28 6.13868093,8.088 6.44919786,7.992 C6.59251337,7.968 6.73582888,7.944 6.85525847,7.992 C7.21354724,8.088 7.50017825,8.256 7.76292335,8.496 C7.97789661,8.712 8.19286988,8.928 8.3600713,9.192 C8.64670232,9.648 8.93333333,10.08 9.1483066,10.584 C9.24385027,10.8 9.33939394,10.992 9.33939394,11.232 C9.33939394,11.304 9.38716578,11.376 9.41105169,11.448 C9.50659537,11.688 9.57825312,11.952 9.62602496,12.192 C9.64991087,12.312 9.64991087,12.432 9.64991087,12.552 C9.64991087,12.96 9.38716578,13.2 8.93333333,13.176 C8.74224599,13.176 8.57504456,13.104 8.40784314,13.032 C8.02566845,12.864 7.66737968,12.672 7.35686275,12.408 C6.83137255,11.976 6.40142602,11.472 6.06702317,10.872 C5.80427807,10.392 5.63707665,9.888 5.66096257,9.336 Z" id="Path"></path>
                <path d="M56.8245989,20.88 C56.8245989,20.616 56.8723708,20.376 56.9440285,20.16 C57.0395722,19.92 57.1828877,19.752 57.397861,19.632 C57.7800357,19.416 58.1860963,19.344 58.6160428,19.392 C58.9026738,19.44 59.1654189,19.56 59.3565062,19.776 C59.5953654,20.04 59.6431373,20.352 59.5953654,20.688 C59.5237077,21.12 59.3326203,21.504 59.0221034,21.84 C58.6877005,22.2 58.1622103,22.32 57.684492,22.128 C57.373975,22.008 57.1590018,21.792 56.9679144,21.552 C56.8245989,21.336 56.800713,21.096 56.8245989,20.88 Z" id="Path"></path>
                <path d="M78.1547237,23.832 C77.8442068,23.136 77.3187166,22.656 76.5782531,22.416 C76.1005348,22.248 75.6228164,22.2 75.168984,22.224 C74.4046346,22.224 73.688057,22.344 72.9953654,22.56 C72.5176471,22.728 72.0638146,22.968 71.6099822,23.208 C71.5144385,23.256 71.4427807,23.328 71.4188948,23.448 C71.371123,23.928 71.4666667,24.384 71.7294118,24.792 C71.7532977,24.84 71.8010695,24.888 71.8488414,24.936 C72.0160428,25.08 72.1832442,25.152 72.4221034,25.104 C72.4937611,25.08 72.5654189,25.056 72.6370766,25.056 C73.2581105,24.888 73.8791444,24.696 74.5240642,24.552 C75.0734403,24.408 75.6467023,24.384 76.1960784,24.504 C76.4588235,24.552 76.5782531,24.672 76.626025,24.936 C76.6499109,25.128 76.6499109,25.32 76.602139,25.512 C76.5304813,25.824 76.5065954,25.824 76.1721925,25.824 C75.455615,25.776 74.7151515,25.776 73.998574,25.896 C72.6609626,26.136 71.5622103,26.784 70.7500891,27.888 C70.5112299,28.224 70.3440285,28.608 70.2484848,29.016 C70.1768271,29.304 70.1529412,29.616 70.1290553,29.928 C70.1290553,30.384 70.1768271,30.816 70.3918004,31.224 C70.8934046,32.16 71.6816399,32.736 72.7087344,32.952 C73.114795,33.048 73.5447415,33.096 73.9508021,33.168 C74.3807487,33.24 74.8345811,33.312 75.2645276,33.384 C75.4795009,33.408 75.6228164,33.528 75.7183601,33.696 C75.7900178,33.84 75.8616756,33.96 75.9572193,34.08 C76.0527629,34.224 76.1960784,34.344 76.3871658,34.416 C76.626025,34.512 76.8648841,34.464 77.0559715,34.296 C77.1754011,34.2 77.2470588,34.056 77.3187166,33.912 C77.4381462,33.648 77.5336898,33.36 77.5814617,33.072 C77.7247772,32.352 77.772549,31.608 77.8203209,30.864 C77.8680927,30.168 77.9636364,29.496 78.05918,28.824 C78.2024955,27.936 78.369697,27.072 78.4413547,26.16 C78.5846702,25.368 78.4891266,24.576 78.1547237,23.832 Z M76.2438503,29.544 C76.1005348,30.072 75.9572193,30.624 75.8139037,31.152 C75.7900178,31.296 75.6944742,31.368 75.5750446,31.392 C75.455615,31.416 75.3122995,31.44 75.1928699,31.44 C74.285205,31.44 73.4253119,31.224 72.6131907,30.816 C72.4698752,30.744 72.3504456,30.648 72.231016,30.552 C72.0638146,30.408 71.9921569,30.216 72.0160428,30 C72.0399287,29.4 72.2787879,28.92 72.7803922,28.584 C73.0670232,28.392 73.401426,28.272 73.7358289,28.2 C74.4762923,28.056 75.1928699,27.888 75.9333333,27.744 C76.1005348,27.72 76.1244207,27.72 76.1721925,27.888 C76.2677362,28.176 76.3393939,28.488 76.3393939,28.776 C76.3393939,29.016 76.315508,29.28 76.2438503,29.544 Z" id="Shape" fill-rule="nonzero"></path>
                <path d="M124.995009,23.904 C124.708378,23.232 124.23066,22.752 123.58574,22.488 C123.155793,22.32 122.678075,22.248 122.224242,22.224 C121.77041,22.2 121.316578,22.272 120.862745,22.32 C120.098396,22.44 119.381818,22.68 118.713012,23.064 C118.235294,23.328 118.211408,23.352 118.25918,23.904 C118.283066,24.24 118.37861,24.552 118.569697,24.816 C118.78467,25.104 118.999643,25.176 119.334046,25.08 C119.620677,25.008 119.907308,24.912 120.217825,24.84 C120.743316,24.696 121.24492,24.528 121.794296,24.456 C122.224242,24.408 122.630303,24.408 123.06025,24.48 C123.299109,24.528 123.442424,24.672 123.46631,24.936 C123.490196,25.104 123.490196,25.272 123.46631,25.416 C123.46631,25.512 123.394652,25.632 123.370766,25.728 C123.346881,25.8 123.299109,25.824 123.203565,25.824 C122.916934,25.8 122.606417,25.8 122.319786,25.776 C121.436007,25.776 121.316578,25.8 120.695544,25.92 C119.572906,26.136 118.641355,26.664 117.877005,27.504 C117.518717,27.912 117.232086,28.368 117.08877,28.896 C117.017112,29.136 116.993226,29.376 116.96934,29.616 C116.897683,30.288 116.993226,30.888 117.351515,31.464 C117.853119,32.28 118.593583,32.76 119.525134,32.952 C120.07451,33.072 120.623886,33.144 121.149376,33.24 C121.459893,33.288 121.794296,33.36 122.104813,33.408 C122.319786,33.432 122.463102,33.552 122.558645,33.72 C122.630303,33.816 122.678075,33.936 122.749733,34.032 C122.82139,34.128 122.869162,34.2 122.964706,34.272 C123.299109,34.584 123.752941,34.536 124.015686,34.176 C124.087344,34.08 124.159002,33.96 124.206774,33.84 C124.350089,33.432 124.469519,33.024 124.517291,32.616 C124.541176,32.376 124.565062,32.136 124.588948,31.896 C124.63672,31.512 124.684492,31.128 124.684492,30.768 C124.708378,30.264 124.780036,29.76 124.851693,29.28 C124.971123,28.464 125.16221,27.648 125.257754,26.832 C125.305526,26.496 125.329412,26.16 125.353298,25.824 C125.377184,25.128 125.257754,24.504 124.995009,23.904 Z M123.012478,29.784 C122.893048,30.24 122.749733,30.696 122.630303,31.176 C122.606417,31.32 122.534759,31.368 122.391444,31.416 C122.2959,31.44 122.176471,31.464 122.080927,31.464 C121.364349,31.488 120.647772,31.344 119.978966,31.08 C119.787879,31.008 119.620677,30.936 119.453476,30.84 C119.357932,30.792 119.238503,30.72 119.142959,30.648 C118.927986,30.48 118.808556,30.288 118.832442,30 C118.856328,29.352 119.142959,28.848 119.692335,28.536 C119.978966,28.368 120.313369,28.272 120.623886,28.2 C121.340463,28.056 122.033155,27.912 122.749733,27.744 C122.893048,27.72 122.94082,27.744 122.988592,27.888 C123.084135,28.176 123.131907,28.416 123.131907,28.872 C123.179679,29.136 123.084135,29.448 123.012478,29.784 Z" id="Shape" fill-rule="nonzero"></path>
                <path d="M101.491266,24.072 C101.180749,23.256 100.631373,22.68 99.7714795,22.416 C99.3893048,22.296 98.9832442,22.248 98.5771836,22.224 C98.3144385,22.2 98.0516934,22.248 97.7889483,22.272 C97.1679144,22.32 96.5707665,22.464 95.9975045,22.68 C95.5914439,22.824 95.2331551,23.04 94.8748663,23.256 C94.7554367,23.328 94.7076649,23.4 94.7076649,23.544 C94.7076649,23.712 94.7076649,23.904 94.7315508,24.072 C94.7793226,24.408 94.8987522,24.72 95.1376114,24.984 C95.3048128,25.152 95.4959002,25.224 95.7347594,25.152 C95.9497326,25.08 96.1647059,25.032 96.4035651,24.984 C97.0245989,24.816 97.6217469,24.6 98.2666667,24.504 C98.6966132,24.456 99.1265597,24.456 99.5565062,24.552 C99.7237077,24.576 99.8431373,24.672 99.8909091,24.84 C100.010339,25.176 99.9625668,25.512 99.8192513,25.824 C99.7953654,25.872 99.7475936,25.896 99.6759358,25.896 C99.3893048,25.872 99.0787879,25.872 98.7921569,25.848 C98.2427807,25.848 97.7172906,25.872 97.1679144,25.968 C96.0213904,26.208 95.0659537,26.736 94.2777184,27.624 C93.8955437,28.056 93.6327986,28.56 93.513369,29.112 C93.4417112,29.424 93.4178253,29.736 93.4178253,30.048 C93.3939394,30.72 93.6327986,31.296 94.0388592,31.8 C94.5404635,32.424 95.2092692,32.808 95.9736185,32.976 C96.2363636,33.024 96.4752228,33.072 96.7379679,33.12 C97.3590018,33.216 97.9800357,33.336 98.6010695,33.432 C98.7921569,33.456 98.9115865,33.552 99.0071301,33.696 C99.0787879,33.816 99.1504456,33.912 99.1982175,34.032 C99.2698752,34.152 99.3654189,34.248 99.4848485,34.344 C99.7714795,34.56 100.105882,34.536 100.368627,34.296 C100.535829,34.128 100.607487,33.936 100.70303,33.744 C100.846346,33.312 100.965775,32.88 100.989661,32.448 C101.013547,32.184 101.013547,31.92 101.061319,31.68 C101.132977,31.296 101.132977,30.912 101.156863,30.552 C101.204635,30.096 101.252406,29.616 101.324064,29.16 C101.419608,28.512 101.562923,27.864 101.634581,27.24 C101.706239,26.712 101.754011,26.184 101.754011,25.656 C101.777897,25.032 101.682353,24.552 101.491266,24.072 Z M99.5803922,29.208 C99.5087344,29.544 99.4131907,29.88 99.341533,30.216 C99.2698752,30.528 99.1743316,30.816 99.1026738,31.128 C99.0787879,31.272 98.9832442,31.368 98.8399287,31.392 C98.7921569,31.392 98.744385,31.44 98.6727273,31.44 C98.5532977,31.44 98.4099822,31.44 98.2905526,31.44 C97.4067736,31.416 96.5707665,31.2 95.8064171,30.768 C95.7108734,30.72 95.6392157,30.672 95.5675579,30.6 C95.3764706,30.456 95.3048128,30.24 95.3048128,30 C95.3048128,29.256 95.6869875,28.752 96.3319073,28.416 C96.5707665,28.296 96.8096257,28.224 97.0723708,28.176 C97.7889483,28.032 98.5055258,27.888 99.2459893,27.72 C99.3893048,27.696 99.4131907,27.696 99.4609626,27.84 C99.6042781,28.296 99.6520499,28.752 99.5803922,29.208 Z" id="Shape" fill-rule="nonzero"></path>
            </g>
        </g>
    </g>
</svg>