<?xml version="1.0" encoding="UTF-8"?>
<svg width="143px" height="46px" viewBox="0 0 143 46" version="1.1" xmlns="http://www.w3.org/2000/svg" xmlns:xlink="http://www.w3.org/1999/xlink">
    <!-- Generator: sketchtool 54.1 (76490) - https://sketchapp.com -->
    <title>9B9752E1-1322-4BBA-8CF3-3F0A232E361E</title>
    <desc>Created with sketchtool.</desc>
    <g id="MOBİL-UYGULAMA" stroke="none" stroke-width="1" fill="none" fill-rule="evenodd">
        <g id="iPhone-8-Plus-Copy-21" transform="translate(-18.000000, -1143.000000)">
            <g id="logosvg" transform="translate(18.000000, 1143.000000)">
                <g id="XMLID_5_" transform="translate(7.000000, 0.000000)" fill="#1B1E2A">
                    <polygon id="XMLID_26_" points="2.03819095 9.52131148 4.82110553 9.16721311 4.03718593 14.8327869 5.95778894 14.5967213 9.91658291 8.53770492 13.1306533 8.1442623 8.15276382 15.6983607 11.1708543 22.2688525 7.95678392 22.6622951 5.52663317 17.3901639 3.60603015 17.6262295 2.82211055 23.2918033 0.0391959799 23.6459016"></polygon>
                    <path d="M14.9728643,7.94754098 L26.0261307,6.5704918 L24.0663317,20.695082 L21.2834171,21.0491803 L22.0673367,15.3836066 L16.5407035,16.052459 L15.7567839,21.7180328 L12.9738693,22.0721311 L14.9728643,7.94754098 Z M17.3246231,10.4262295 L16.9326633,13.2590164 L22.4592965,12.5901639 L22.8512563,9.75737705 L17.3246231,10.4262295 Z" id="XMLID_28_" fill-rule="nonzero"></path>
                    <polygon id="XMLID_31_" points="29.0834171 17.3114754 37.3929648 16.2885246 37.001005 19.1213115 25.9085427 20.4590164 27.8683417 6.33442623 30.6512563 5.98032787"></polygon>
                    <polygon id="XMLID_33_" points="40.7638191 4.76065574 43.5467337 4.40655738 42.7628141 10.0721311 44.6834171 9.83606557 48.6422111 3.77704918 51.8562814 3.38360656 46.878392 10.9377049 49.8964824 17.5081967 46.6824121 17.9016393 44.2914573 12.6295082 42.3708543 12.8655738 41.5869347 18.5311475 38.8040201 18.8852459"></polygon>
                    <path d="M53.6984925,3.14754098 L64.7517588,1.7704918 L62.7919598,15.895082 L60.0090452,16.2491803 L60.7929648,10.5836066 L55.2663317,11.2918033 L54.4824121,16.957377 L51.6994975,17.3114754 L53.6984925,3.14754098 Z M56.0502513,5.62622951 L55.6582915,8.45901639 L61.1849246,7.79016393 L61.5768844,4.95737705 L56.0502513,5.62622951 Z" id="XMLID_35_" fill-rule="nonzero"></path>
                    <polygon id="XMLID_38_" points="68.9849246 4.05245902 67.4170854 15.3442623 64.6341709 15.6983607 66.5939698 1.57377049 77.6472362 0.196721311 75.6874372 14.3213115 72.9045226 14.6754098 74.4723618 3.38360656"></polygon>
                </g>
                <polyline id="XMLID_11_" fill="#EB8418" points="5 35 0.458333333 35.5957447 0 39 4.54166667 38.4468085"></polyline>
                <g id="XMLID_2_" transform="translate(3.000000, 11.000000)">
                    <polygon id="XMLID_7_" points="5.50819672 22.408046 13.1016393 21.4425287 13.652459 17.4597701 6.01967213 18.4252874"></polygon>
                    <path d="M2.75409836,14.9655172 L0.0786885246,34.7988506 L3.89508197,34.316092 L4.95737705,26.3908046 L12.5901639,25.4252874 L11.5278689,33.3505747 L15.3442623,32.8678161 L18.0196721,13.0344828 L2.75409836,14.9655172 Z M13.1016393,21.4425287 L5.50819672,22.408046 L6.05901639,18.4252874 L13.6918033,17.4597701 L13.1016393,21.4425287 Z" id="XMLID_40_" fill="#1B1E2A" fill-rule="nonzero"></path>
                    <polygon id="XMLID_42_" fill="#1B1E2A" points="31.3967213 11.3448276 25.8885246 19.8333333 23.2918033 20.1551724 24.3540984 12.2298851 20.5377049 12.7126437 17.8622951 32.545977 21.6786885 32.0632184 22.7409836 24.137931 25.3770492 23.816092 28.6819672 31.1781609 33.1278689 30.6149425 28.957377 21.4022989 35.8032787 10.8218391"></polygon>
                    <polygon id="XMLID_43_" fill="#1B1E2A" points="38.3213115 10.5 37.8098361 14.4425287 43.5147541 13.7183908 41.3508197 29.5689655 45.1672131 29.1264368 47.3311475 13.2356322 53.0360656 12.5517241 53.5868852 8.56896552"></polygon>
                    <polygon id="XMLID_44_" fill="#1B1E2A" points="56.104918 8.24712644 55.6721311 11.6666667 59.4491803 11.183908 59.9213115 7.76436782"></polygon>
                    <polygon id="XMLID_45_" fill="#1B1E2A" points="53.4295082 28.0804598 57.2459016 27.5977011 59.4098361 11.7471264 55.5934426 12.1896552"></polygon>
                    <polygon id="XMLID_46_" fill="#1B1E2A" points="73.8885246 6.03448276 71.7639344 21.7241379 64.7213115 18.3850575 66.295082 6.95977011 62.4786885 7.44252874 60.5901639 21.2816092 74.6754098 28 77.704918 5.55172414"></polygon>
                    <polygon id="XMLID_47_" fill="#1B1E2A" points="80.2622951 5.22988506 79.7901639 8.64942529 83.5672131 8.16666667 83.6065574 8.16666667 84.0786885 4.74712644"></polygon>
                    <polygon id="XMLID_48_" fill="#1B1E2A" points="79.7114754 9.17241379 77.5868852 25.0229885 81.4032787 24.5804598 83.5278689 8.68965517 83.4885246 8.68965517"></polygon>
                    <polygon id="XMLID_49_" fill="#1B1E2A" points="86.5967213 4.42528736 86.0852459 8.36781609 91.7901639 7.68390805 89.6262295 23.5344828 93.442623 23.0517241 95.6065574 7.20114943 101.311475 6.47701149 101.862295 2.49425287"></polygon>
                    <polygon id="XMLID_50_" fill="#1B1E2A" points="119.095082 4.22413793 119.645902 0.281609195 104.380328 2.17241379 101.704918 22.0057471 116.970492 20.1149425 117.481967 16.1321839 106.072131 17.5804598 106.583607 13.5977011 118.032787 12.1494253 118.544262 8.20689655 107.134426 9.65517241 107.685246 5.67241379"></polygon>
                </g>
                <g id="XMLID_62_" transform="translate(0.000000, 12.000000)" fill="#EB8418">
                    <polygon id="XMLID_63_" points="68.8212121 17.5909091 69.3727273 17.8363636 75.5575758 17.0590909 75.9909091 13.7454545 69.2151515 14.6045455"></polygon>
                    <polygon id="XMLID_64_" points="64.5272727 15.2181818 62.8727273 15.4227273 62.4393939 18.7363636 64.0939394 18.5318182"></polygon>
                    <polygon id="XMLID_9_" points="22.5333333 20.5772727 20.8787879 20.7818182 20.4454545 24.0954545 22.1 23.85"></polygon>
                    <polygon id="XMLID_65_" points="62.9909091 15.4227273 50.7787879 16.9772727 50.3454545 20.25 62.5575758 18.6954545"></polygon>
                    <polygon id="XMLID_66_" points="46.0909091 17.55 46.0909091 17.55 34.1939394 19.1045455 33.0121212 20.9454545 33.6818182 22.3772727 45.6575758 20.8636364"></polygon>
                    <polygon id="XMLID_67_" points="87.1787879 12.3136364 80.6787879 13.1727273 80.2454545 16.4454545 86.7454545 15.6272727"></polygon>
                    <polygon id="XMLID_68_" points="135.593939 0.327272727 131.418182 0.859090909 136.972727 5.97272727 122.593939 7.81363636 122.160606 11.1272727 136.972727 9.20454545 131.221212 15.9136364 135.554545 15.3818182 142.80303 6.87272727"></polygon>
                    <polyline id="XMLID_3_" points="2.12727273 23.1545455 0.472727273 23.4 0.196969697 25.3636364 0.0393939394 26.6727273 1.69393939 26.4681818"></polyline>
                    <polygon id="XMLID_70_" points="106.521212 9.85909091 99.1151515 10.8 98.6818182 14.1136364 106.087879 13.1727273"></polygon>
                    <polygon id="XMLID_71_" points="94.4272727 11.4136364 87.0212121 12.3545455 86.5878788 15.6272727 93.9939394 14.6863636"></polygon>
                </g>
            </g>
        </g>
    </g>
</svg>