<svg width="637" height="198" viewBox="0 0 637 198" fill="none" xmlns="http://www.w3.org/2000/svg">
<path d="M57.304 64.1689C51.9453 64.1689 47.1121 65.5349 43.0143 68.1616V40.9482H28.4094V115.549H43.0143V112.607C47.1121 115.234 51.9453 116.6 57.304 116.6C64.2387 116.6 70.1227 114.078 74.956 109.034C79.8943 103.886 82.311 97.6867 82.311 90.3317C82.311 83.0818 79.7892 76.8826 74.956 71.8391C70.0176 66.6906 64.2387 64.1689 57.304 64.1689ZM54.8873 104.306C49.8439 104.306 45.8512 102.31 43.0143 98.4222V82.3463C45.9563 78.4586 49.949 76.5674 54.8873 76.5674C58.5648 76.5674 61.6119 77.9333 64.1336 80.6651C66.5503 83.2919 67.9162 86.5491 67.9162 90.3317C67.9162 94.1143 66.6553 97.3715 64.1336 100.208C61.717 102.94 58.5648 104.306 54.8873 104.306ZM140.51 65.2196H125.905V68.1616C121.807 65.5349 116.974 64.1689 111.615 64.1689C104.68 64.1689 98.7962 66.6906 93.8579 71.8391C88.9195 76.8826 86.5029 83.0818 86.5029 90.4368C86.5029 97.6867 88.9195 103.886 93.8579 109.034C98.7962 114.078 104.68 116.6 111.615 116.6C116.974 116.6 121.807 115.234 125.905 112.607V115.549H140.51V65.2196ZM114.032 104.201C110.249 104.201 107.097 102.835 104.68 100.208C102.264 97.4766 101.003 94.2193 101.003 90.4368C101.003 86.5491 102.264 83.2919 104.68 80.5601C107.097 77.8282 110.249 76.4623 114.032 76.4623C119.075 76.4623 123.068 78.4586 125.905 82.3463V98.4222C122.963 102.31 118.97 104.201 114.032 104.201ZM164.035 40.9482H149.43V115.549H164.035V40.9482ZM224.488 65.2196H209.883V68.1616C205.785 65.5349 200.952 64.1689 195.594 64.1689C188.659 64.1689 182.775 66.6906 177.836 71.8391C172.898 76.8826 170.481 83.0818 170.481 90.4368C170.481 97.6867 172.898 103.886 177.836 109.034C182.775 114.078 188.659 116.6 195.594 116.6C200.952 116.6 205.785 115.234 209.883 112.607V115.549H224.488V65.2196ZM198.01 104.201C194.228 104.201 191.075 102.835 188.659 100.208C186.242 97.4766 184.981 94.2193 184.981 90.4368C184.981 86.5491 186.242 83.2919 188.659 80.5601C191.075 77.8282 194.228 76.4623 198.01 76.4623C203.054 76.4623 207.046 78.4586 209.883 82.3463V98.4222C206.941 102.31 202.949 104.201 198.01 104.201ZM290.277 65.1146H274.936L260.226 99.4729L243.94 65.1146H228.39L252.871 116.81L243.1 139.715H258.44L290.277 65.1146ZM310.28 65.2196H295.675V115.549H310.28V65.2196Z" fill="white"/>
<path d="M321.22 96.5582C321.745 103.178 324.162 108.011 328.575 111.058C332.988 114.105 338.451 115.576 344.966 115.576C358.415 115.576 367.661 109.482 367.661 98.5545C367.661 90.464 362.618 85.4206 352.426 83.7394L343.285 82.2685C339.292 81.638 337.296 79.9569 337.296 77.5402C337.296 75.0185 340.027 73.2323 344.756 73.2323C349.904 73.2323 353.687 75.2287 354.002 79.5366L367.346 79.4315C366.821 72.707 363.458 67.8737 358.73 65.5621C354.002 63.2505 349.694 62.3049 344.756 62.3049C331.727 62.3049 323.006 68.7142 323.006 78.9062C323.006 87.6271 329.1 92.3553 337.821 93.8263L348.538 95.6125C351.9 96.1379 353.582 97.6089 353.582 99.8154C353.582 102.442 350.114 104.123 345.071 104.123C338.872 104.123 335.299 101.602 334.564 96.6632L321.22 96.5582ZM422.47 87.8372C422.47 80.3772 420.054 74.3881 415.326 69.6599C410.597 64.9317 404.713 62.6201 397.568 62.6201C389.583 62.6201 383.069 65.1418 378.13 70.0802C373.192 75.0185 370.775 81.2177 370.775 88.8879C370.775 96.4531 373.297 102.757 378.235 107.696C383.279 112.634 389.793 115.156 397.779 115.156C409.652 115.156 419.213 108.957 421.84 99.29H406.605C405.029 101.812 402.192 103.073 398.094 103.073C391.474 103.073 387.271 100.131 385.485 94.1415H422.155C422.365 92.7756 422.47 90.6742 422.47 87.8372ZM397.148 74.5982C403.137 74.5982 407.13 78.0656 407.971 83.9496H385.275C386.851 77.7504 390.844 74.5982 397.148 74.5982ZM524.787 87.8372C524.787 80.3772 522.37 74.3881 517.642 69.6599C512.914 64.9317 507.03 62.6201 499.885 62.6201C491.9 62.6201 485.385 65.1418 480.447 70.0802C475.508 75.0185 473.092 81.2177 473.092 88.8879C473.092 96.4531 475.614 102.757 480.552 107.696C485.595 112.634 492.11 115.156 500.095 115.156C511.968 115.156 521.53 108.957 524.157 99.29H508.921C507.345 101.812 504.508 103.073 500.41 103.073C493.791 103.073 489.588 100.131 487.802 94.1415H524.472C524.682 92.7756 524.787 90.6742 524.787 87.8372ZM499.465 74.5982C505.454 74.5982 509.447 78.0656 510.287 83.9496H487.592C489.168 77.7504 493.16 74.5982 499.465 74.5982Z" fill="white"/>
<path d="M427.549 62.495V113.389H440.198V100.441H447.083C454.044 100.441 459.507 98.7193 463.549 95.2765C467.591 91.7589 469.611 87.0437 469.611 81.1311C469.611 75.3681 467.665 70.8775 463.774 67.5095C459.957 64.1416 454.717 62.495 448.056 62.495H427.549ZM440.198 89.3639V73.6467H447.832C453.445 73.6467 457.038 76.5656 457.038 81.1311C457.038 86.1456 453.445 89.3639 447.832 89.3639H440.198Z" fill="white"/>
<path d="M561.521 101.559C558.164 102.214 555.789 102.541 554.479 102.541C550.302 102.541 548.255 100.576 548.255 96.5635V85.1809H561.767V73.7983H548.255V60.2866H534.989V73.7983H527.209V85.1809H534.989V96.973C534.989 102.296 536.381 106.636 539.329 109.912C542.195 113.105 546.126 114.743 550.957 114.743C554.806 114.743 558.819 114.088 562.995 112.778L561.521 101.559Z" fill="white"/>
<path d="M583.069 74.3907L576.359 76.1973L569.649 74.3907V115.684H583.069V74.3907Z" fill="white"/>
<path d="M487.764 167.356L440.118 143.82C433.955 140.763 427.165 139.172 420.28 139.172H324.988V124.462L420.28 124.462C429.415 124.372 438.446 126.386 446.671 130.346L494.318 153.882L487.764 167.356Z" fill="white"/>
<path d="M585.447 53.7812C583.377 51.668 580.021 51.668 577.951 53.7812L576.26 55.5083L574.568 53.7812C572.498 51.668 569.142 51.668 567.072 53.7812C565.002 55.8944 565.002 59.3204 567.072 61.4331L568.764 63.1601L576.26 70.8126L583.756 63.1601L585.448 61.4331C587.517 59.3204 587.517 55.8944 585.447 53.7812Z" fill="white"/>
</svg>
